<?xml version="1.0" standalone="no"?>
<!DOCTYPE svg PUBLIC "-//W3C//DTD SVG 1.1//EN" "http://www.w3.org/Graphics/SVG/1.1/DTD/svg11.dtd">
<!--Generator: Xara Xtreme (www.xara.com), SVG filter version: 1.0.0.13-->
<svg stroke-width="0.501" stroke-linejoin="bevel" fill-rule="evenodd" xmlns:xlink="http://www.w3.org/1999/xlink" xmlns="http://www.w3.org/2000/svg" version="1.1" overflow="visible" width="53.25pt" height="112.5pt" viewBox="0 0 53.25 112.5">
 <defs>
  <marker id="DefaultArrow2" markerUnits="strokeWidth" viewBox="0 0 1 1" markerWidth="1" markerHeight="1" overflow="visible" orient="auto">
   <!-- REF_ARROW_STRAIGHT (-2) -->
   <g transform="scale(0.0092592592)">
    <!-- 1/108 -->
    <path d="M -9 54 L -9 -54 L 117 0 z"/>
   </g>
  </marker>
  <marker id="DefaultArrow3" markerUnits="strokeWidth" viewBox="0 0 1 1" markerWidth="1" markerHeight="1" overflow="visible" orient="auto">
   <!-- REF_ARROW_ANGLED -->
   <g transform="scale(0.0092592592)">
    <path d="M -27 54 L -9 0 L -27 -54 L 135 0 z"/>
   </g>
  </marker>
  <marker id="DefaultArrow4" markerUnits="strokeWidth" viewBox="0 0 1 1" markerWidth="1" markerHeight="1" overflow="visible" orient="auto">
   <!-- REF_ARROW_ROUNDED -->
   <g transform="scale(0.0092592592)">
    <path d="M -9,0 L -9,-45 C -9,-51.708 2.808,-56.580 9,-54 L 117,-9 C 120.916,-7.369 126.000,-4.242 126,0 C 126,4.242 120.916,7.369 117,9 L 9,54 C 2.808,56.580 -9,51.708 -9,45 z"/>
   </g>
  </marker>
  <marker id="DefaultArrow5" markerUnits="strokeWidth" viewBox="0 0 1 1" markerWidth="1" markerHeight="1" overflow="visible" orient="auto">
   <!-- REF_ARROW_SPOT -->
   <g transform="scale(0.0092592592)">
    <path d="M -54, 0 C -54,29.807 -29.807,54 0,54 C 29.807,54 54,29.807 54,0 C 54,-29.807 29.807,-54 0,-54 C -29.807,-54 -54,-29.807 -54,0 z"/>
   </g>
  </marker>
  <marker id="DefaultArrow6" markerUnits="strokeWidth" viewBox="0 0 1 1" markerWidth="1" markerHeight="1" overflow="visible" orient="auto">
   <!-- REF_ARROW_DIAMOND -->
   <g transform="scale(0.0092592592)">
    <path d="M -63,0 L 0,63 L 63,0 L 0,-63 z"/>
   </g>
  </marker>
  <marker id="DefaultArrow7" markerUnits="strokeWidth" viewBox="0 0 1 1" markerWidth="1" markerHeight="1" overflow="visible" orient="auto">
   <!-- REF_ARROW_FEATHER -->
   <g transform="scale(0.0092592592)">
    <path d="M 18,-54 L 108,-54 L 63,0 L 108,54 L 18, 54 L -36,0 z"/>
   </g>
  </marker>
  <marker id="DefaultArrow8" markerUnits="strokeWidth" viewBox="0 0 1 1" markerWidth="1" markerHeight="1" overflow="visible" orient="auto">
   <!-- REF_ARROW_FEATHER2 -->
   <g transform="scale(0.0092592592)">
    <path d="M -36,0 L 18,-54 L 54,-54 L 18,-18 L 27,-18 L 63,-54 L 99,-54 L 63,-18 L 72,-18 L 108,-54 L 144,-54 L 90,0 L 144,54 L 108,54 L 72,18 L 63,18 L 99,54 L 63,54 L 27,18 L 18,18 L 54,54 L 18,54 z"/>
   </g>
  </marker>
  <marker id="DefaultArrow9" markerUnits="strokeWidth" viewBox="0 0 1 1" markerWidth="1" markerHeight="1" overflow="visible" orient="auto">
   <!-- REF_ARROW_HOLLOWDIAMOND -->
   <g transform="scale(0.0092592592)">
    <path d="M 0,45 L -45,0 L 0, -45 L 45, 0 z M 0, 63 L-63, 0 L 0, -63 L 63, 0 z"/>
   </g>
  </marker>
  <filter id="StainedFilter">
   <feBlend mode="multiply" in2="BackgroundImage" in="SourceGraphic" result="blend"/>
   <feComposite in="blend" in2="SourceAlpha" operator="in" result="comp"/>
  </filter>
  <filter id="BleachFilter">
   <feBlend mode="screen" in2="BackgroundImage" in="SourceGraphic" result="blend"/>
   <feComposite in="blend" in2="SourceAlpha" operator="in" result="comp"/>
  </filter>
  <filter id="InvertTransparencyBitmapFilter">
   <feComponentTransfer>
    <feFuncR type="gamma" amplitude="1.055" exponent=".416666666" offset="-0.055"/>
    <feFuncG type="gamma" amplitude="1.055" exponent=".416666666" offset="-0.055"/>
    <feFuncB type="gamma" amplitude="1.055" exponent=".416666666" offset="-0.055"/>
   </feComponentTransfer>
   <feComponentTransfer>
    <feFuncR type="linear" slope="-1" intercept="1"/>
    <feFuncG type="linear" slope="-1" intercept="1"/>
    <feFuncB type="linear" slope="-1" intercept="1"/>
    <feFuncA type="linear" slope="1" intercept="0"/>
   </feComponentTransfer>
   <feComponentTransfer>
    <feFuncR type="gamma" amplitude="1" exponent="2.4" offset="0"/>
    <feFuncG type="gamma" amplitude="1" exponent="2.4" offset="0"/>
    <feFuncB type="gamma" amplitude="1" exponent="2.4" offset="0"/>
   </feComponentTransfer>
  </filter>
  <linearGradient id="LinearGradient" gradientUnits="userSpaceOnUse" x1="0" y1="0" x2="25.5" y2="0" gradientTransform="translate(22.5 28.5) rotate(90)">
   <stop offset="0" stop-color="#6f7f6f"/>
   <stop offset="0.558311104774475" stop-color="#bbc5bb"/>
   <stop offset="1" stop-color="#6f7f6f"/>
  </linearGradient>
  <linearGradient id="LinearGradient_1" gradientUnits="userSpaceOnUse" x1="0" y1="0" x2="25.5" y2="0" gradientTransform="translate(21.75 28.5) rotate(90)">
   <stop offset="0" stop-color="#6f7f6f"/>
   <stop offset="0.558311104774475" stop-color="#c3d0c3"/>
   <stop offset="1" stop-color="#6f7f6f"/>
  </linearGradient>
  <linearGradient id="LinearGradient_2" gradientUnits="userSpaceOnUse" x1="0" y1="0" x2="12.75" y2="0" gradientTransform="translate(37.5 43.5) rotate(90)">
   <stop offset="0" stop-color="#ffffff"/>
   <stop offset="1" stop-color="#000000"/>
  </linearGradient>
  <linearGradient id="LinearGradient_3" gradientUnits="userSpaceOnUse" x1="0" y1="0" x2="14.25" y2="0" gradientTransform="translate(36.75 44.25) rotate(-90)">
   <stop offset="0" stop-color="#ffffff"/>
   <stop offset="1" stop-color="#000000"/>
  </linearGradient>
  <linearGradient id="LinearGradient_4" gradientUnits="userSpaceOnUse" x1="0" y1="0" x2="0" y2="-27.01" gradientTransform="translate(31.5 75.01)">
   <stop offset="0" stop-color="#ffffff"/>
   <stop offset="1" stop-color="#000000"/>
  </linearGradient>
  <linearGradient id="LinearGradient_5" gradientUnits="userSpaceOnUse" x1="0" y1="0" x2="0" y2="-10.526" gradientTransform="translate(18 63.776)">
   <stop offset="0" stop-color="#ffffff"/>
   <stop offset="1" stop-color="#000000"/>
  </linearGradient>
  <linearGradient id="LinearGradient_6" gradientUnits="userSpaceOnUse" x1="0" y1="0" x2="7.845" y2="0" gradientTransform="translate(26.049 105.03) rotate(180)">
   <stop offset="0" stop-color="#6f7f6f"/>
   <stop offset="0.157716974616051" stop-color="#d8e1d8"/>
   <stop offset="0.539225339889526" stop-color="#8f9e8f"/>
   <stop offset="0.772247076034546" stop-color="#c7d4c7"/>
   <stop offset="1" stop-color="#6f7f6f"/>
  </linearGradient>
  <linearGradient id="LinearGradient_7" gradientUnits="userSpaceOnUse" x1="0" y1="0" x2="12.131" y2="0" gradientTransform="translate(28.189 94.96) rotate(180)">
   <stop offset="0" stop-color="#6f7f6f"/>
   <stop offset="0.157716974616051" stop-color="#d8e1d8"/>
   <stop offset="0.539225339889526" stop-color="#8f9e8f"/>
   <stop offset="0.772247076034546" stop-color="#c7d4c7"/>
   <stop offset="1" stop-color="#6f7f6f"/>
  </linearGradient>
  <linearGradient id="LinearGradient_8" gradientUnits="userSpaceOnUse" x1="0" y1="0" x2="-29.25" y2="0" gradientTransform="translate(36.75 77.999)">
   <stop offset="0" stop-color="#6f7f6f"/>
   <stop offset="0.157716974616051" stop-color="#d8e1d8"/>
   <stop offset="0.539225339889526" stop-color="#8f9e8f"/>
   <stop offset="0.772247076034546" stop-color="#c7d4c7"/>
   <stop offset="1" stop-color="#6f7f6f"/>
  </linearGradient>
  <radialGradient id="RadialGradient" gradientUnits="userSpaceOnUse" cx="0" cy="0" r="5.999" gradientTransform="translate(14.246 76.124) scale(1 5.18836)">
   <stop offset="0" stop-color="#ffffff"/>
   <stop offset="1" stop-color="#000000"/>
  </radialGradient>
  <radialGradient id="RadialGradient_1" gradientUnits="userSpaceOnUse" cx="0" cy="0" r="5.999" gradientTransform="translate(14.246 76.124) scale(1 5.18836)">
   <stop offset="0" stop-color="#ffffff"/>
   <stop offset="1" stop-color="#000000"/>
  </radialGradient>
  <linearGradient id="LinearGradient_9" gradientUnits="userSpaceOnUse" x1="0" y1="0" x2="25.5" y2="0" gradientTransform="translate(-9.746 28.5) rotate(90)">
   <stop offset="0" stop-color="#6f7f6f"/>
   <stop offset="0.558311104774475" stop-color="#bbc5bb"/>
   <stop offset="1" stop-color="#6f7f6f"/>
  </linearGradient>
  <linearGradient id="LinearGradient_10" gradientUnits="userSpaceOnUse" x1="0" y1="0" x2="25.5" y2="0" gradientTransform="translate(-8.996 28.5) rotate(90)">
   <stop offset="0" stop-color="#6f7f6f"/>
   <stop offset="0.558311104774475" stop-color="#c3d0c3"/>
   <stop offset="1" stop-color="#6f7f6f"/>
  </linearGradient>
  <linearGradient id="LinearGradient_11" gradientUnits="userSpaceOnUse" x1="0" y1="0" x2="0" y2="12.75" gradientTransform="translate(6.75 43.5)">
   <stop offset="0" stop-color="#ffffff"/>
   <stop offset="1" stop-color="#000000"/>
  </linearGradient>
  <linearGradient id="LinearGradient_12" gradientUnits="userSpaceOnUse" x1="0" y1="0" x2="0" y2="-14.25" gradientTransform="translate(7.5 44.25)">
   <stop offset="0" stop-color="#ffffff"/>
   <stop offset="1" stop-color="#000000"/>
  </linearGradient>
  <linearGradient id="LinearGradient_13" gradientUnits="userSpaceOnUse" x1="0" y1="0" x2="0" y2="-27.01" gradientTransform="translate(31.5 75.01)">
   <stop offset="0" stop-color="#ffffff"/>
   <stop offset="1" stop-color="#000000"/>
  </linearGradient>
  <linearGradient id="LinearGradient_14" gradientUnits="userSpaceOnUse" x1="0" y1="0" x2="0" y2="-10.526" gradientTransform="translate(18 63.776)">
   <stop offset="0" stop-color="#ffffff"/>
   <stop offset="1" stop-color="#000000"/>
  </linearGradient>
  <linearGradient id="LinearGradient_15" gradientUnits="userSpaceOnUse" x1="0" y1="0" x2="26.396" y2="0" gradientTransform="translate(35.324 37.099) rotate(180)">
   <stop offset="0" stop-color="#6f7f6f"/>
   <stop offset="0.157716974616051" stop-color="#d8e1d8"/>
   <stop offset="0.539225339889526" stop-color="#8f9e8f"/>
   <stop offset="0.772247076034546" stop-color="#c7d4c7"/>
   <stop offset="1" stop-color="#6f7f6f"/>
  </linearGradient>
  <linearGradient id="LinearGradient_16" gradientUnits="userSpaceOnUse" x1="0" y1="0" x2="25.5" y2="0" gradientTransform="translate(17.699 27.751) rotate(90)">
   <stop offset="0" stop-color="#6f7f6f"/>
   <stop offset="0.558311104774475" stop-color="#bbc5bb"/>
   <stop offset="1" stop-color="#6f7f6f"/>
  </linearGradient>
  <linearGradient id="LinearGradient_17" gradientUnits="userSpaceOnUse" x1="0" y1="0" x2="25.5" y2="0" gradientTransform="translate(19.648 27.751) rotate(90)">
   <stop offset="0" stop-color="#6f7f6f"/>
   <stop offset="0.558311104774475" stop-color="#c3d0c3"/>
   <stop offset="1" stop-color="#6f7f6f"/>
  </linearGradient>
  <linearGradient id="LinearGradient_18" gradientUnits="userSpaceOnUse" x1="0" y1="0" x2="0" y2="12.75" gradientTransform="translate(32.998 42.751)">
   <stop offset="0" stop-color="#ffffff"/>
   <stop offset="1" stop-color="#000000"/>
  </linearGradient>
  <linearGradient id="LinearGradient_19" gradientUnits="userSpaceOnUse" x1="0" y1="0" x2="0" y2="-14.25" gradientTransform="translate(33.748 43.501)">
   <stop offset="0" stop-color="#ffffff"/>
   <stop offset="1" stop-color="#000000"/>
  </linearGradient>
  <linearGradient id="LinearGradient_20" gradientUnits="userSpaceOnUse" x1="0" y1="0" x2="25.5" y2="0" gradientTransform="translate(-1.801 28.5) rotate(90)">
   <stop offset="0" stop-color="#6f7f6f"/>
   <stop offset="0.558311104774475" stop-color="#bbc5bb"/>
   <stop offset="1" stop-color="#6f7f6f"/>
  </linearGradient>
  <linearGradient id="LinearGradient_21" gradientUnits="userSpaceOnUse" x1="0" y1="0" x2="25.5" y2="0" gradientTransform="translate(-0.602 28.5) rotate(90)">
   <stop offset="0" stop-color="#6f7f6f"/>
   <stop offset="0.558311104774475" stop-color="#c3d0c3"/>
   <stop offset="1" stop-color="#6f7f6f"/>
  </linearGradient>
  <linearGradient id="LinearGradient_22" gradientUnits="userSpaceOnUse" x1="0" y1="0" x2="12.75" y2="0" gradientTransform="translate(11.254 43.5) rotate(90)">
   <stop offset="0" stop-color="#ffffff"/>
   <stop offset="1" stop-color="#000000"/>
  </linearGradient>
  <linearGradient id="LinearGradient_23" gradientUnits="userSpaceOnUse" x1="0" y1="0" x2="14.25" y2="0" gradientTransform="translate(10.504 44.25) rotate(-90)">
   <stop offset="0" stop-color="#ffffff"/>
   <stop offset="1" stop-color="#000000"/>
  </linearGradient>
  <linearGradient id="LinearGradient_24" gradientUnits="userSpaceOnUse" x1="0" y1="0" x2="0" y2="-27.01" gradientTransform="translate(31.5 75.01)">
   <stop offset="0" stop-color="#ffffff"/>
   <stop offset="1" stop-color="#000000"/>
  </linearGradient>
  <linearGradient id="LinearGradient_25" gradientUnits="userSpaceOnUse" x1="0" y1="0" x2="0" y2="-17.25" gradientTransform="translate(23.25 33)">
   <stop offset="0" stop-color="#ffffff"/>
   <stop offset="1" stop-color="#000000"/>
  </linearGradient>
  <linearGradient id="LinearGradient_26" gradientUnits="userSpaceOnUse" x1="0" y1="0" x2="42.093" y2="0" gradientTransform="translate(43.171 25.673) rotate(180)">
   <stop offset="0" stop-color="#6f7f6f"/>
   <stop offset="0.157716974616051" stop-color="#d8e1d8"/>
   <stop offset="0.539225339889526" stop-color="#8f9e8f"/>
   <stop offset="0.772247076034546" stop-color="#c7d4c7"/>
   <stop offset="1" stop-color="#6f7f6f"/>
  </linearGradient>
  <linearGradient id="LinearGradient_27" gradientUnits="userSpaceOnUse" x1="0" y1="0" x2="0" y2="-10.526" gradientTransform="translate(18 63.776)">
   <stop offset="0" stop-color="#ffffff"/>
   <stop offset="1" stop-color="#000000"/>
  </linearGradient>
  <linearGradient id="LinearGradient_28" gradientUnits="userSpaceOnUse" x1="0" y1="0" x2="37.81" y2="0" gradientTransform="translate(41.031 10.706) rotate(180)">
   <stop offset="0" stop-color="#6f7f6f"/>
   <stop offset="0.157716974616051" stop-color="#d8e1d8"/>
   <stop offset="0.539225339889526" stop-color="#8f9e8f"/>
   <stop offset="0.772247076034546" stop-color="#c7d4c7"/>
   <stop offset="1" stop-color="#6f7f6f"/>
  </linearGradient>
  <linearGradient id="LinearGradient_29" gradientUnits="userSpaceOnUse" x1="0" y1="0" x2="9.75" y2="0" gradientTransform="translate(35.89 16.499) rotate(-90)">
   <stop offset="0" stop-color="#6f7f6f"/>
   <stop offset="0.230769231915474" stop-color="#c7d4c7"/>
   <stop offset="0.800000011920929" stop-color="#aab7aa"/>
   <stop offset="1" stop-color="#6f7f6f"/>
  </linearGradient>
  <linearGradient id="LinearGradient_30" gradientUnits="userSpaceOnUse" x1="0" y1="0" x2="14.949" y2="0" gradientTransform="translate(27.321 19.102) rotate(-90)">
   <stop offset="0" stop-color="#6f7f6f"/>
   <stop offset="0.230769231915474" stop-color="#c7d4c7"/>
   <stop offset="0.800000011920929" stop-color="#aab7aa"/>
   <stop offset="1" stop-color="#6f7f6f"/>
  </linearGradient>
  <linearGradient id="LinearGradient_31" gradientUnits="userSpaceOnUse" x1="0" y1="0" x2="42.093" y2="0" gradientTransform="translate(43.171 61.1) rotate(180)">
   <stop offset="0" stop-color="#6f7f6f"/>
   <stop offset="0.157716974616051" stop-color="#d8e1d8"/>
   <stop offset="0.539225339889526" stop-color="#8f9e8f"/>
   <stop offset="0.772247076034546" stop-color="#c7d4c7"/>
   <stop offset="1" stop-color="#6f7f6f"/>
  </linearGradient>
  <linearGradient id="LinearGradient_32" gradientUnits="userSpaceOnUse" x1="0" y1="0" x2="0" y2="2.25" gradientTransform="translate(18.747 59.998)">
   <stop offset="0" stop-color="#ffffff"/>
   <stop offset="1" stop-color="#000000"/>
  </linearGradient>
  <linearGradient id="LinearGradient_33" gradientUnits="userSpaceOnUse" x1="0" y1="0" x2="0" y2="-2.252" gradientTransform="translate(23.926 21.001)">
   <stop offset="0" stop-color="#ffffff"/>
   <stop offset="1" stop-color="#000000"/>
  </linearGradient>
  <linearGradient id="LinearGradient_34" gradientUnits="userSpaceOnUse" x1="0" y1="0" x2="0" y2="4.5" gradientTransform="translate(21.747 0)">
   <stop offset="0" stop-color="#ffffff"/>
   <stop offset="1" stop-color="#000000"/>
  </linearGradient>
  <linearGradient id="LinearGradient_35" gradientUnits="userSpaceOnUse" x1="0" y1="0" x2="-0.75" y2="0" gradientTransform="translate(40.5 6.75)">
   <stop offset="0" stop-color="#ffffff"/>
   <stop offset="1" stop-color="#000000"/>
  </linearGradient>
  <linearGradient id="LinearGradient_36" gradientUnits="userSpaceOnUse" x1="0" y1="0" x2="0" y2="-12.75" gradientTransform="translate(41.25 13.5)">
   <stop offset="0" stop-color="#ffffff"/>
   <stop offset="1" stop-color="#000000"/>
  </linearGradient>
  <linearGradient id="LinearGradient_37" gradientUnits="userSpaceOnUse" x1="0" y1="0" x2="1.5" y2="0" gradientTransform="translate(23.517 98.25) rotate(-90)">
   <stop offset="0" stop-color="#ffffff"/>
   <stop offset="1" stop-color="#000000"/>
  </linearGradient>
  <linearGradient id="LinearGradient_38" gradientUnits="userSpaceOnUse" x1="0" y1="0" x2="1.5" y2="0" gradientTransform="translate(22.701 106.5) rotate(-90)">
   <stop offset="0" stop-color="#ffffff"/>
   <stop offset="1" stop-color="#000000"/>
  </linearGradient>
  <linearGradient id="LinearGradient_39" gradientUnits="userSpaceOnUse" x1="0" y1="0" x2="0" y2="-1.5" gradientTransform="translate(22.497 113.25)">
   <stop offset="0" stop-color="#ffffff"/>
   <stop offset="1" stop-color="#000000"/>
  </linearGradient>
  <linearGradient id="LinearGradient_40" gradientUnits="userSpaceOnUse" x1="0" y1="0" x2="1.5" y2="0" gradientTransform="translate(24.13 66.001) rotate(-90)">
   <stop offset="0" stop-color="#ffffff"/>
   <stop offset="1" stop-color="#000000"/>
  </linearGradient>
  <linearGradient id="LinearGradient_41" gradientUnits="userSpaceOnUse" x1="0" y1="0" x2="1.5" y2="0" gradientTransform="translate(24.129 62.25) rotate(-90)">
   <stop offset="0" stop-color="#ffffff"/>
   <stop offset="1" stop-color="#000000"/>
  </linearGradient>
  <linearGradient id="LinearGradient_42" gradientUnits="userSpaceOnUse" x1="0" y1="0" x2="0" y2="2.25" gradientTransform="translate(18.747 56.25)">
   <stop offset="0" stop-color="#ffffff"/>
   <stop offset="1" stop-color="#000000"/>
  </linearGradient>
  <linearGradient id="LinearGradient_43" gradientUnits="userSpaceOnUse" x1="0" y1="0" x2="0" y2="-9.75" gradientTransform="translate(45.749 16.5)">
   <stop offset="0" stop-color="#6f7f6f"/>
   <stop offset="0.230769231915474" stop-color="#c7d4c7"/>
   <stop offset="0.800000011920929" stop-color="#aab7aa"/>
   <stop offset="1" stop-color="#6f7f6f"/>
  </linearGradient>
  <linearGradient id="LinearGradient_44" gradientUnits="userSpaceOnUse" x1="0" y1="0" x2="20.149" y2="0" gradientTransform="translate(51.32 21.704) rotate(-90)">
   <stop offset="0" stop-color="#6f7f6f"/>
   <stop offset="0.230769231915474" stop-color="#c7d4c7"/>
   <stop offset="0.800000011920929" stop-color="#aab7aa"/>
   <stop offset="1" stop-color="#6f7f6f"/>
  </linearGradient>
  <linearGradient id="LinearGradient_45" gradientUnits="userSpaceOnUse" x1="0" y1="0" x2="2.25" y2="0" gradientTransform="translate(47.247 20.25)">
   <stop offset="0" stop-color="#ffffff"/>
   <stop offset="1" stop-color="#000000"/>
  </linearGradient>
  <linearGradient id="LinearGradient_46" gradientUnits="userSpaceOnUse" x1="0" y1="0" x2="2.25" y2="0" gradientTransform="translate(54.752 20.249) rotate(180)">
   <stop offset="0" stop-color="#ffffff"/>
   <stop offset="1" stop-color="#000000"/>
  </linearGradient>
  <linearGradient id="LinearGradient_47" gradientUnits="userSpaceOnUse" x1="0" y1="0" x2="1.5" y2="0" gradientTransform="translate(24.13 28.501) rotate(-90)">
   <stop offset="0" stop-color="#ffffff"/>
   <stop offset="1" stop-color="#000000"/>
  </linearGradient>
  <linearGradient id="LinearGradient_48" gradientUnits="userSpaceOnUse" x1="0" y1="0" x2="0" y2="2.25" gradientTransform="translate(18.747 22.5)">
   <stop offset="0" stop-color="#ffffff"/>
   <stop offset="1" stop-color="#000000"/>
  </linearGradient>
  <linearGradient id="LinearGradient_49" gradientUnits="userSpaceOnUse" x1="0" y1="0" x2="0" y2="6" gradientTransform="translate(52.5 16.5)">
   <stop offset="0" stop-color="#ffffff"/>
   <stop offset="1" stop-color="#000000"/>
  </linearGradient>
  <linearGradient id="LinearGradient_50" gradientUnits="userSpaceOnUse" x1="0" y1="0" x2="0" y2="-17.25" gradientTransform="translate(52.5 18)">
   <stop offset="0" stop-color="#ffffff"/>
   <stop offset="1" stop-color="#000000"/>
  </linearGradient>
  <linearGradient id="LinearGradient_51" gradientUnits="userSpaceOnUse" x1="0" y1="0" x2="0" y2="-17.25" gradientTransform="translate(23.25 33)">
   <stop offset="0" stop-color="#ffffff"/>
   <stop offset="1" stop-color="#000000"/>
  </linearGradient>
  <linearGradient id="LinearGradient_52" gradientUnits="userSpaceOnUse" x1="0" y1="0" x2="4.5" y2="0" gradientTransform="translate(42 17.25)">
   <stop offset="0" stop-color="#ffffff"/>
   <stop offset="1" stop-color="#000000"/>
  </linearGradient>
 </defs>
 <g id="Document" fill="none" stroke="black" font-family="Times New Roman" font-size="16" transform="scale(1 -1)">
  <g id="Spread" transform="translate(0 -112.5)">
   <g id="Layer 1">
    <g id="Group" stroke-linejoin="miter" stroke="none">
     <path d="M 41.998,58.499 L 38.248,26.999 L 34.498,26.999 L 34.498,58.499 L 41.998,58.499 Z" marker-start="none" marker-end="none" fill="url(#LinearGradient)"/>
     <path d="M 41.248,58.499 L 37.498,26.999 L 33.748,26.999 L 33.748,58.499 L 41.248,58.499 Z" marker-start="none" marker-end="none" fill="url(#LinearGradient_1)"/>
     <mask id="TranspMask_1">
      <rect x="-10%" y="-10%" width="120%" height="120%" fill="url(#LinearGradient_3)" stroke="none"/>
     </mask>
     <g id="Group_1" fill="#c7d4c7" mask="url(#TranspMask_1)">
      <mask id="TranspMask">
       <rect x="-10%" y="-10%" width="120%" height="120%" fill="url(#LinearGradient_2)" stroke="none"/>
      </mask>
      <path d="M 37.498,26.999 L 41.248,58.499 L 40.498,58.499 L 36.748,26.999 L 37.498,26.999 Z" marker-start="none" marker-end="none" mask="url(#TranspMask)"/>
     </g>
    </g>
    <mask id="TranspMask_2">
     <rect x="-10%" y="-10%" width="120%" height="120%" fill="url(#LinearGradient_4)" stroke="none"/>
    </mask>
    <path d="M 41.998,58.499 L 38.248,26.999 L 34.498,26.999 L 34.498,58.499 L 41.998,58.499 Z" stroke-linejoin="miter" stroke="none" fill="#000000" marker-start="none" marker-end="none" mask="url(#TranspMask_2)"/>
    <mask id="TranspMask_3">
     <rect x="-10%" y="-10%" width="120%" height="120%" fill="url(#LinearGradient_5)" stroke="none"/>
    </mask>
    <path d="M 41.998,58.499 L 38.248,26.999 L 34.498,26.999 L 34.498,58.499 L 41.998,58.499 Z" stroke-linejoin="miter" stroke="none" fill="#000000" marker-start="none" marker-end="none" mask="url(#TranspMask_3)"/>
    <path d="M 18.003,112.499 L 18.003,98.998 L 26.25,98.998 L 26.25,112.499 L 18.003,112.499 Z" stroke-linejoin="miter" stroke="none" marker-start="none" marker-end="none" fill="url(#LinearGradient_6)"/>
    <path d="M 15.747,105.749 L 15.747,86.248 L 28.5,86.248 L 28.5,105.749 L 15.747,105.749 Z" stroke-linejoin="miter" stroke="none" marker-start="none" marker-end="none" fill="url(#LinearGradient_7)"/>
    <path d="M 6.749,97.501 L 6.749,62.25 L 37.5,62.25 L 37.5,97.501 L 6.749,97.501 Z" stroke-linejoin="miter" stroke="none" marker-start="none" marker-end="none" fill="url(#LinearGradient_8)"/>
    <mask id="TranspMask_5">
     <rect x="-10%" y="-10%" width="120%" height="120%" fill="url(#RadialGradient_1)" stroke="none"/>
    </mask>
    <g id="Group_2" stroke-linejoin="miter" stroke="none" fill="#ffffff" mask="url(#TranspMask_5)">
     <mask id="TranspMask_4">
      <rect x="-10%" y="-10%" width="120%" height="120%" fill="url(#RadialGradient)" stroke="none"/>
     </mask>
     <path d="M 8.247,76.124 C 8.247,84.398 8.87,91.922 9.886,97.499 L 18.605,97.499 C 19.621,91.922 20.245,84.398 20.245,76.124 C 20.245,58.943 17.557,44.999 14.246,44.999 C 10.935,44.999 8.247,58.943 8.247,76.124 Z" marker-start="none" marker-end="none" mask="url(#TranspMask_4)"/>
    </g>
    <g id="Group_3" stroke-linejoin="miter" stroke="none">
     <path d="M 2.252,58.499 L 6.002,26.999 L 9.752,26.999 L 9.752,58.499 L 2.252,58.499 Z" marker-start="none" marker-end="none" fill="url(#LinearGradient_9)"/>
     <path d="M 3.002,58.499 L 6.752,26.999 L 10.502,26.999 L 10.502,58.499 L 3.002,58.499 Z" marker-start="none" marker-end="none" fill="url(#LinearGradient_10)"/>
     <mask id="TranspMask_7">
      <rect x="-10%" y="-10%" width="120%" height="120%" fill="url(#LinearGradient_12)" stroke="none"/>
     </mask>
     <g id="Group_4" fill="#c7d4c7" mask="url(#TranspMask_7)">
      <mask id="TranspMask_6">
       <rect x="-10%" y="-10%" width="120%" height="120%" fill="url(#LinearGradient_11)" stroke="none"/>
      </mask>
      <path d="M 6.752,26.999 L 3.002,58.499 L 3.752,58.499 L 7.502,26.999 L 6.752,26.999 Z" marker-start="none" marker-end="none" mask="url(#TranspMask_6)"/>
     </g>
    </g>
    <mask id="TranspMask_8">
     <rect x="-10%" y="-10%" width="120%" height="120%" fill="url(#LinearGradient_13)" stroke="none"/>
    </mask>
    <path d="M 2.252,58.499 L 6.002,26.999 L 9.752,26.999 L 9.752,58.499 L 2.252,58.499 Z" stroke-linejoin="miter" stroke="none" fill="#000000" marker-start="none" marker-end="none" mask="url(#TranspMask_8)"/>
    <mask id="TranspMask_9">
     <rect x="-10%" y="-10%" width="120%" height="120%" fill="url(#LinearGradient_14)" stroke="none"/>
    </mask>
    <path d="M 2.252,58.499 L 6.002,26.999 L 9.752,26.999 L 9.752,58.499 L 2.252,58.499 Z" stroke-linejoin="miter" stroke="none" fill="#000000" marker-start="none" marker-end="none" mask="url(#TranspMask_9)"/>
    <path d="M 8.25,60.749 L 8.25,18 L 36.001,18 L 36.001,60.749 L 8.25,60.749 Z" stroke-linejoin="miter" stroke="none" marker-start="none" marker-end="none" fill="url(#LinearGradient_15)"/>
    <mask id="TranspMask_12">
     <rect x="-10%" y="-10%" width="120%" height="120%" fill="#191919" stroke="none"/>
    </mask>
    <g id="Group_5" stroke-linejoin="miter" stroke="none" mask="url(#TranspMask_12)">
     <path d="M 35.252,26.25 L 35.252,57.75 L 28.5,57.75 L 32.25,26.25 L 35.252,26.25 Z" marker-start="none" marker-end="none" fill="url(#LinearGradient_16)"/>
     <path d="M 35.252,26.25 L 35.252,57.75 L 29.25,57.75 L 33,26.25 L 35.252,26.25 Z" marker-start="none" marker-end="none" fill="url(#LinearGradient_17)"/>
     <mask id="TranspMask_11">
      <rect x="-10%" y="-10%" width="120%" height="120%" fill="url(#LinearGradient_19)" stroke="none"/>
     </mask>
     <g id="Group_6" fill="#c7d4c7" mask="url(#TranspMask_11)">
      <mask id="TranspMask_10">
       <rect x="-10%" y="-10%" width="120%" height="120%" fill="url(#LinearGradient_18)" stroke="none"/>
      </mask>
      <path d="M 33.75,26.25 L 30,57.75 L 29.25,57.75 L 33,26.25 L 33.75,26.25 Z" marker-start="none" marker-end="none" mask="url(#TranspMask_10)"/>
     </g>
    </g>
    <mask id="TranspMask_15">
     <rect x="-10%" y="-10%" width="120%" height="120%" fill="#191919" stroke="none"/>
    </mask>
    <g id="Group_7" stroke-linejoin="miter" stroke="none" mask="url(#TranspMask_15)">
     <path d="M 9,26.999 L 9,58.499 L 15.752,58.499 L 12.002,26.999 L 9,26.999 Z" marker-start="none" marker-end="none" fill="url(#LinearGradient_20)"/>
     <path d="M 9,26.999 L 9,58.499 L 15.002,58.499 L 11.252,26.999 L 9,26.999 Z" marker-start="none" marker-end="none" fill="url(#LinearGradient_21)"/>
     <mask id="TranspMask_14">
      <rect x="-10%" y="-10%" width="120%" height="120%" fill="url(#LinearGradient_23)" stroke="none"/>
     </mask>
     <g id="Group_8" fill="#c7d4c7" mask="url(#TranspMask_14)">
      <mask id="TranspMask_13">
       <rect x="-10%" y="-10%" width="120%" height="120%" fill="url(#LinearGradient_22)" stroke="none"/>
      </mask>
      <path d="M 10.502,26.999 L 14.252,58.499 L 15.002,58.499 L 11.252,26.999 L 10.502,26.999 Z" marker-start="none" marker-end="none" mask="url(#TranspMask_13)"/>
     </g>
    </g>
    <mask id="TranspMask_16">
     <rect x="-10%" y="-10%" width="120%" height="120%" fill="url(#LinearGradient_24)" stroke="none"/>
    </mask>
    <path d="M 8.25,60.749 L 8.25,27 L 36.001,27 L 36.001,60.749 L 8.25,60.749 Z" stroke-linejoin="miter" stroke="none" fill="#000000" marker-start="none" marker-end="none" mask="url(#TranspMask_16)"/>
    <g id="Group_9" stroke-linejoin="miter" stroke="none">
     <g id="Group_10">
      <path d="M 3,28.5 L 3,25.501 L 5.249,25.501 L 5.249,28.5 L 3,28.5 Z" fill="#7f7f7f" marker-start="none" marker-end="none"/>
      <path d="M 3.747,28.5 L 3.747,25.501 L 4.5,25.501 L 4.5,28.5 L 3.747,28.5 Z" fill="#adadad" marker-start="none" marker-end="none"/>
     </g>
     <g id="Group_11">
      <path d="M 11.251,28.5 L 11.251,25.501 L 13.5,25.501 L 13.5,28.5 L 11.251,28.5 Z" fill="#7f7f7f" marker-start="none" marker-end="none"/>
      <path d="M 11.998,28.5 L 11.998,25.501 L 12.751,25.501 L 12.751,28.5 L 11.998,28.5 Z" fill="#adadad" marker-start="none" marker-end="none"/>
     </g>
     <g id="Group_12">
      <path d="M 21,28.5 L 21,25.501 L 23.249,25.501 L 23.249,28.5 L 21,28.5 Z" fill="#7f7f7f" marker-start="none" marker-end="none"/>
      <path d="M 21.747,28.5 L 21.747,25.501 L 22.5,25.501 L 22.5,28.5 L 21.747,28.5 Z" fill="#adadad" marker-start="none" marker-end="none"/>
     </g>
     <g id="Group_13">
      <path d="M 30.751,28.499 L 30.751,25.5 L 33,25.5 L 33,28.499 L 30.751,28.499 Z" fill="#7f7f7f" marker-start="none" marker-end="none"/>
      <path d="M 31.498,28.499 L 31.498,25.5 L 32.251,25.5 L 32.251,28.499 L 31.498,28.499 Z" fill="#adadad" marker-start="none" marker-end="none"/>
     </g>
     <g id="Group_14">
      <path d="M 39.001,28.5 L 39.001,25.501 L 41.25,25.501 L 41.25,28.5 L 39.001,28.5 Z" fill="#7f7f7f" marker-start="none" marker-end="none"/>
      <path d="M 39.748,28.5 L 39.748,25.501 L 40.501,25.501 L 40.501,28.5 L 39.748,28.5 Z" fill="#adadad" marker-start="none" marker-end="none"/>
     </g>
    </g>
    <mask id="TranspMask_17">
     <rect x="-10%" y="-10%" width="120%" height="120%" fill="url(#LinearGradient_25)" stroke="none"/>
    </mask>
    <path d="M 8.25,26.249 L 8.25,20.252 L 36.001,20.252 L 36.001,26.249 L 8.25,26.249 Z" stroke-linejoin="miter" stroke="none" fill="#000000" marker-start="none" marker-end="none" mask="url(#TranspMask_17)"/>
    <path d="M 44.25,27.749 L 44.25,23.998 L -0.003,23.998 L -0.003,27.749 L 44.25,27.749 Z" stroke-linejoin="miter" stroke="none" marker-start="none" marker-end="none" fill="url(#LinearGradient_26)"/>
    <mask id="TranspMask_18">
     <rect x="-10%" y="-10%" width="120%" height="120%" fill="url(#LinearGradient_27)" stroke="none"/>
    </mask>
    <path d="M 8.25,60.749 L 8.25,27 L 36.001,27 L 36.001,60.749 L 8.25,60.749 Z" stroke-linejoin="miter" stroke="none" fill="#000000" marker-start="none" marker-end="none" mask="url(#TranspMask_18)"/>
    <path d="M 2.25,18.749 L 2.25,4.499 L 3.75,2.999 L 40.5,2.999 L 42,4.499 L 42,18.749 L 40.5,20.249 L 3.75,20.249 L 2.25,18.749 Z" stroke-linejoin="miter" stroke="none" marker-start="none" marker-end="none" fill="url(#LinearGradient_28)"/>
    <mask id="TranspMask_19">
     <rect x="-10%" y="-10%" width="120%" height="120%" fill="#1a1a1a" stroke="none"/>
    </mask>
    <g id="Group_15" stroke-linejoin="miter" stroke="none" mask="url(#TranspMask_19)">
     <path d="M 27.749,5.997 L 27.749,17.248 L 42,17.248 L 42,5.998 L 27.749,5.997 Z" marker-start="none" marker-end="none" fill="url(#LinearGradient_29)"/>
     <path d="M 24.75,2.999 L 24.75,20.249 L 29.251,20.249 L 29.251,2.999 L 24.75,2.999 Z" marker-start="none" marker-end="none" fill="url(#LinearGradient_30)"/>
     <path d="M 28.501,2.999 L 28.501,20.249 L 29.25,20.249 L 29.25,2.999 L 28.501,2.999 Z" fill="#000000" marker-start="none" marker-end="none" fill-opacity="0.200000"/>
     <path d="M 24.751,2.999 L 24.751,20.249 L 25.5,20.249 L 25.5,2.999 L 24.751,2.999 Z" fill="#000000" marker-start="none" marker-end="none" fill-opacity="0.200000"/>
    </g>
    <g id="Group_16" stroke-linejoin="miter" stroke="none">
     <path d="M 3,66 L 3,63.001 L 5.249,63.001 L 5.249,66 L 3,66 Z" fill="#7f7f7f" marker-start="none" marker-end="none"/>
     <path d="M 3.747,66 L 3.747,63.001 L 4.5,63.001 L 4.5,66 L 3.747,66 Z" fill="#adadad" marker-start="none" marker-end="none"/>
    </g>
    <g id="Group_17" stroke-linejoin="miter" stroke="none">
     <path d="M 11.251,66 L 11.251,63.001 L 13.5,63.001 L 13.5,66 L 11.251,66 Z" fill="#7f7f7f" marker-start="none" marker-end="none"/>
     <path d="M 11.998,66 L 11.998,63.001 L 12.751,63.001 L 12.751,66 L 11.998,66 Z" fill="#adadad" marker-start="none" marker-end="none"/>
    </g>
    <g id="Group_18" stroke-linejoin="miter" stroke="none">
     <path d="M 21,66 L 21,63.001 L 23.249,63.001 L 23.249,66 L 21,66 Z" fill="#7f7f7f" marker-start="none" marker-end="none"/>
     <path d="M 21.747,66 L 21.747,63.001 L 22.5,63.001 L 22.5,66 L 21.747,66 Z" fill="#adadad" marker-start="none" marker-end="none"/>
    </g>
    <g id="Group_19" stroke-linejoin="miter" stroke="none">
     <path d="M 30.751,65.999 L 30.751,63 L 33,63 L 33,65.999 L 30.751,65.999 Z" fill="#7f7f7f" marker-start="none" marker-end="none"/>
     <path d="M 31.498,65.999 L 31.498,63 L 32.251,63 L 32.251,65.999 L 31.498,65.999 Z" fill="#adadad" marker-start="none" marker-end="none"/>
    </g>
    <g id="Group_20" stroke-linejoin="miter" stroke="none">
     <path d="M 39.001,66 L 39.001,63.001 L 41.25,63.001 L 41.25,66 L 39.001,66 Z" fill="#7f7f7f" marker-start="none" marker-end="none"/>
     <path d="M 39.748,66 L 39.748,63.001 L 40.501,63.001 L 40.501,66 L 39.748,66 Z" fill="#adadad" marker-start="none" marker-end="none"/>
    </g>
    <g id="Group_21" stroke-linejoin="miter" stroke="none">
     <path d="M 3.001,59.999 L 3.001,57 L 5.25,57 L 5.25,59.999 L 3.001,59.999 Z" fill="#7f7f7f" marker-start="none" marker-end="none"/>
     <path d="M 3.748,59.999 L 3.748,57 L 4.501,57 L 4.501,59.999 L 3.748,59.999 Z" fill="#adadad" marker-start="none" marker-end="none"/>
    </g>
    <g id="Group_22" stroke-linejoin="miter" stroke="none">
     <path d="M 11.25,60 L 11.25,57.001 L 13.499,57.001 L 13.499,60 L 11.25,60 Z" fill="#7f7f7f" marker-start="none" marker-end="none"/>
     <path d="M 11.997,60 L 11.997,57.001 L 12.75,57.001 L 12.75,60 L 11.997,60 Z" fill="#adadad" marker-start="none" marker-end="none"/>
    </g>
    <g id="Group_23" stroke-linejoin="miter" stroke="none">
     <path d="M 21.001,60 L 21.001,57.001 L 23.25,57.001 L 23.25,60 L 21.001,60 Z" fill="#7f7f7f" marker-start="none" marker-end="none"/>
     <path d="M 21.748,60 L 21.748,57.001 L 22.501,57.001 L 22.501,60 L 21.748,60 Z" fill="#adadad" marker-start="none" marker-end="none"/>
    </g>
    <g id="Group_24" stroke-linejoin="miter" stroke="none">
     <path d="M 30.751,59.999 L 30.751,57 L 33,57 L 33,59.999 L 30.751,59.999 Z" fill="#7f7f7f" marker-start="none" marker-end="none"/>
     <path d="M 31.498,59.999 L 31.498,57 L 32.251,57 L 32.251,59.999 L 31.498,59.999 Z" fill="#adadad" marker-start="none" marker-end="none"/>
    </g>
    <g id="Group_25" stroke-linejoin="miter" stroke="none">
     <path d="M 39.001,60 L 39.001,57.001 L 41.25,57.001 L 41.25,60 L 39.001,60 Z" fill="#7f7f7f" marker-start="none" marker-end="none"/>
     <path d="M 39.748,60 L 39.748,57.001 L 40.501,57.001 L 40.501,60 L 39.748,60 Z" fill="#adadad" marker-start="none" marker-end="none"/>
    </g>
    <mask id="TranspMask_20">
     <rect x="-10%" y="-10%" width="120%" height="120%" fill="#7b7b7b" stroke="none"/>
    </mask>
    <g id="Group_26" stroke-linejoin="miter" stroke="none" fill="#000000" mask="url(#TranspMask_20)">
     <path d="M 21.001,59.998 L 21.001,56.999 L 23.25,56.999 L 23.25,59.998 L 21.001,59.998 Z" marker-start="none" marker-end="none"/>
     <path d="M 11.252,59.999 L 11.252,57 L 13.501,57 L 13.501,59.999 L 11.252,59.999 Z" marker-start="none" marker-end="none"/>
     <path d="M 3.002,59.999 L 3.002,57 L 5.251,57 L 5.251,59.999 L 3.002,59.999 Z" marker-start="none" marker-end="none"/>
     <path d="M 33,59.999 L 33,57 L 30.751,57 L 30.751,59.999 L 33,59.999 Z" marker-start="none" marker-end="none"/>
     <path d="M 41.25,59.999 L 41.25,57 L 39.001,57 L 39.001,59.999 L 41.25,59.999 Z" marker-start="none" marker-end="none"/>
    </g>
    <path d="M 44.25,65.25 L 44.25,57.749 L -0.003,57.749 L -0.003,65.25 L 44.25,65.25 Z" stroke-linejoin="miter" stroke="none" marker-start="none" marker-end="none" fill="url(#LinearGradient_31)"/>
    <mask id="TranspMask_21">
     <rect x="-10%" y="-10%" width="120%" height="120%" fill="url(#LinearGradient_32)" stroke="none"/>
    </mask>
    <path d="M -0.002,62.247 L -0.002,61.498 L 44.251,61.498 L 44.251,62.247 L -0.002,62.247 Z" stroke-linejoin="miter" stroke="none" fill="#000000" marker-start="none" marker-end="none" mask="url(#TranspMask_21)"/>
    <mask id="TranspMask_22">
     <rect x="-10%" y="-10%" width="120%" height="120%" fill="url(#LinearGradient_33)" stroke="none"/>
    </mask>
    <path d="M 2.25,18.749 L 42,18.749 L 40.5,20.249 L 3.75,20.249 L 2.25,18.749 Z" stroke-linejoin="miter" stroke="none" fill="#ffffff" marker-start="none" marker-end="none" mask="url(#TranspMask_22)"/>
    <mask id="TranspMask_23">
     <rect x="-10%" y="-10%" width="120%" height="120%" fill="url(#LinearGradient_34)" stroke="none"/>
    </mask>
    <path d="M 2.25,4.499 L 3.75,2.999 L 40.5,2.999 L 42,4.499 L 2.25,4.499 Z" stroke-linejoin="miter" stroke="none" fill="#000000" marker-start="none" marker-end="none" mask="url(#TranspMask_23)"/>
    <path d="M 39.712,7.369 C 39.262,8.496 39,10.001 39,11.625 C 39,14.521 39.936,18 42,18 L 42,5.25 C 40.862,5.25 40.132,6.321 39.712,7.369 Z" stroke-linejoin="miter" stroke="none" stroke-opacity="0.180392" fill="#000000" marker-start="none" marker-end="none" fill-opacity="0.180392"/>
    <mask id="TranspMask_25">
     <rect x="-10%" y="-10%" width="120%" height="120%" fill="url(#LinearGradient_36)" stroke="none"/>
    </mask>
    <g id="Group_27" stroke-linejoin="miter" stroke="none" fill="#000000" mask="url(#TranspMask_25)">
     <mask id="TranspMask_24">
      <rect x="-10%" y="-10%" width="120%" height="120%" fill="url(#LinearGradient_35)" stroke="none"/>
     </mask>
     <path d="M 39.75,2.999 L 39.75,11.25 L 42,11.25 L 42,4.499 L 40.5,2.999 L 39.75,2.999 Z" marker-start="none" marker-end="none" mask="url(#TranspMask_24)"/>
    </g>
    <mask id="TranspMask_26">
     <rect x="-10%" y="-10%" width="120%" height="120%" fill="url(#LinearGradient_37)" stroke="none"/>
    </mask>
    <path d="M 6.749,97.499 L 6.749,96.75 L 37.5,96.75 L 37.5,97.499 L 6.749,97.499 Z" stroke-linejoin="miter" stroke="none" fill="#ffffff" marker-start="none" marker-end="none" mask="url(#TranspMask_26)"/>
    <mask id="TranspMask_27">
     <rect x="-10%" y="-10%" width="120%" height="120%" fill="url(#LinearGradient_38)" stroke="none"/>
    </mask>
    <path d="M 15.747,105.749 L 15.747,105 L 28.5,105 L 28.5,105.749 L 15.747,105.749 Z" stroke-linejoin="miter" stroke="none" fill="#ffffff" marker-start="none" marker-end="none" mask="url(#TranspMask_27)"/>
    <mask id="TranspMask_28">
     <rect x="-10%" y="-10%" width="120%" height="120%" fill="url(#LinearGradient_39)" stroke="none"/>
    </mask>
    <path d="M 17.996,112.499 L 17.996,111.75 L 26.251,111.75 L 26.251,112.499 L 17.996,112.499 Z" stroke-linejoin="miter" stroke="none" fill="#ffffff" marker-start="none" marker-end="none" mask="url(#TranspMask_28)"/>
    <mask id="TranspMask_29">
     <rect x="-10%" y="-10%" width="120%" height="120%" fill="url(#LinearGradient_40)" stroke="none"/>
    </mask>
    <path d="M 0.001,65.25 L 0.001,64.501 L 44.25,64.501 L 44.25,65.25 L 0.001,65.25 Z" stroke-linejoin="miter" stroke="none" fill="#ffffff" marker-start="none" marker-end="none" mask="url(#TranspMask_29)"/>
    <mask id="TranspMask_30">
     <rect x="-10%" y="-10%" width="120%" height="120%" fill="url(#LinearGradient_41)" stroke="none"/>
    </mask>
    <path d="M 0,61.499 L 0,60.75 L 44.249,60.75 L 44.249,61.499 L 0,61.499 Z" stroke-linejoin="miter" stroke="none" fill="#ffffff" marker-start="none" marker-end="none" mask="url(#TranspMask_30)"/>
    <mask id="TranspMask_31">
     <rect x="-10%" y="-10%" width="120%" height="120%" fill="url(#LinearGradient_42)" stroke="none"/>
    </mask>
    <path d="M 0,58.499 L 0,57.75 L 44.249,57.75 L 44.249,58.499 L 0,58.499 Z" stroke-linejoin="miter" stroke="none" fill="#000000" marker-start="none" marker-end="none" mask="url(#TranspMask_31)"/>
    <path d="M 42,5.999 C 40.758,5.999 39.75,8.519 39.75,11.624 C 39.75,14.729 40.758,17.249 42,17.249 L 50.251,17.249 L 50.251,5.998 L 42,5.999 Z" stroke-linejoin="miter" stroke="none" marker-start="none" marker-end="none" fill="url(#LinearGradient_43)"/>
    <path d="M 48.749,23.251 L 48.749,0 L 53.25,0 L 53.25,23.251 L 48.749,23.251 Z" stroke-linejoin="miter" stroke="none" marker-start="none" marker-end="none" fill="url(#LinearGradient_44)"/>
    <mask id="TranspMask_32">
     <rect x="-10%" y="-10%" width="120%" height="120%" fill="url(#LinearGradient_45)" stroke="none"/>
    </mask>
    <path d="M 49.499,23.25 L 48.75,23.25 L 48.75,0.001 L 49.499,0.001 L 49.499,23.25 Z" stroke-linejoin="miter" stroke="none" fill="#000000" marker-start="none" marker-end="none" mask="url(#TranspMask_32)"/>
    <mask id="TranspMask_33">
     <rect x="-10%" y="-10%" width="120%" height="120%" fill="url(#LinearGradient_46)" stroke="none"/>
    </mask>
    <path d="M 53.249,23.249 L 52.5,23.249 L 52.5,0 L 53.249,0 L 53.249,23.249 Z" stroke-linejoin="miter" stroke="none" fill="#000000" marker-start="none" marker-end="none" mask="url(#TranspMask_33)"/>
    <mask id="TranspMask_34">
     <rect x="-10%" y="-10%" width="120%" height="120%" fill="url(#LinearGradient_47)" stroke="none"/>
    </mask>
    <path d="M 0.001,27.75 L 0.001,27.001 L 44.25,27.001 L 44.25,27.75 L 0.001,27.75 Z" stroke-linejoin="miter" stroke="none" fill="#ffffff" marker-start="none" marker-end="none" mask="url(#TranspMask_34)"/>
    <mask id="TranspMask_35">
     <rect x="-10%" y="-10%" width="120%" height="120%" fill="url(#LinearGradient_48)" stroke="none"/>
    </mask>
    <path d="M 0,24.749 L 0,24 L 44.249,24 L 44.249,24.749 L 0,24.749 Z" stroke-linejoin="miter" stroke="none" fill="#000000" marker-start="none" marker-end="none" mask="url(#TranspMask_35)"/>
    <mask id="TranspMask_37">
     <rect x="-10%" y="-10%" width="120%" height="120%" fill="url(#LinearGradient_50)" stroke="none"/>
    </mask>
    <g id="Group_28" stroke-linejoin="miter" stroke="none" fill="#d7e0d7" mask="url(#TranspMask_37)">
     <mask id="TranspMask_36">
      <rect x="-10%" y="-10%" width="120%" height="120%" fill="url(#LinearGradient_49)" stroke="none"/>
     </mask>
     <path d="M 52.5,23.249 L 51.751,23.249 L 51.751,0 L 52.5,0 L 52.5,23.249 Z" marker-start="none" marker-end="none" mask="url(#TranspMask_36)"/>
    </g>
    <mask id="TranspMask_39">
     <rect x="-10%" y="-10%" width="120%" height="120%" fill="url(#LinearGradient_52)" stroke="none"/>
    </mask>
    <g id="Group_29" stroke-linejoin="miter" stroke="none" fill="#000000" mask="url(#TranspMask_39)">
     <mask id="TranspMask_38">
      <rect x="-10%" y="-10%" width="120%" height="120%" fill="url(#LinearGradient_51)" stroke="none"/>
     </mask>
     <path d="M 3.75,2.999 L 2.25,4.499 L 2.25,18.749 L 3.75,20.249 L 40.5,20.249 L 42,18.749 L 42,17.249 L 50.251,17.249 L 50.251,5.998 L 42,5.999 L 42,4.499 L 40.5,2.999 L 3.75,2.999 Z" marker-start="none" marker-end="none" mask="url(#TranspMask_38)"/>
    </g>
   </g>
  </g>
 </g>
</svg>
