<?xml version="1.0" standalone="no"?>
<!DOCTYPE svg PUBLIC "-//W3C//DTD SVG 1.1//EN" "http://www.w3.org/Graphics/SVG/1.1/DTD/svg11.dtd">
<!--Generator: Xara Xtreme (www.xara.com), SVG filter version: 1.0.0.13-->
<svg stroke-width="0.501" stroke-linejoin="bevel" fill-rule="evenodd" xmlns:xlink="http://www.w3.org/1999/xlink" xmlns="http://www.w3.org/2000/svg" version="1.1" overflow="visible" width="105pt" height="42.75pt" viewBox="0 0 105 42.75">
 <defs>
  <marker id="DefaultArrow2" markerUnits="strokeWidth" viewBox="0 0 1 1" markerWidth="1" markerHeight="1" overflow="visible" orient="auto">
   <!-- REF_ARROW_STRAIGHT (-2) -->
   <g transform="scale(0.0092592592)">
    <!-- 1/108 -->
    <path d="M -9 54 L -9 -54 L 117 0 z"/>
   </g>
  </marker>
  <marker id="DefaultArrow3" markerUnits="strokeWidth" viewBox="0 0 1 1" markerWidth="1" markerHeight="1" overflow="visible" orient="auto">
   <!-- REF_ARROW_ANGLED -->
   <g transform="scale(0.0092592592)">
    <path d="M -27 54 L -9 0 L -27 -54 L 135 0 z"/>
   </g>
  </marker>
  <marker id="DefaultArrow4" markerUnits="strokeWidth" viewBox="0 0 1 1" markerWidth="1" markerHeight="1" overflow="visible" orient="auto">
   <!-- REF_ARROW_ROUNDED -->
   <g transform="scale(0.0092592592)">
    <path d="M -9,0 L -9,-45 C -9,-51.708 2.808,-56.580 9,-54 L 117,-9 C 120.916,-7.369 126.000,-4.242 126,0 C 126,4.242 120.916,7.369 117,9 L 9,54 C 2.808,56.580 -9,51.708 -9,45 z"/>
   </g>
  </marker>
  <marker id="DefaultArrow5" markerUnits="strokeWidth" viewBox="0 0 1 1" markerWidth="1" markerHeight="1" overflow="visible" orient="auto">
   <!-- REF_ARROW_SPOT -->
   <g transform="scale(0.0092592592)">
    <path d="M -54, 0 C -54,29.807 -29.807,54 0,54 C 29.807,54 54,29.807 54,0 C 54,-29.807 29.807,-54 0,-54 C -29.807,-54 -54,-29.807 -54,0 z"/>
   </g>
  </marker>
  <marker id="DefaultArrow6" markerUnits="strokeWidth" viewBox="0 0 1 1" markerWidth="1" markerHeight="1" overflow="visible" orient="auto">
   <!-- REF_ARROW_DIAMOND -->
   <g transform="scale(0.0092592592)">
    <path d="M -63,0 L 0,63 L 63,0 L 0,-63 z"/>
   </g>
  </marker>
  <marker id="DefaultArrow7" markerUnits="strokeWidth" viewBox="0 0 1 1" markerWidth="1" markerHeight="1" overflow="visible" orient="auto">
   <!-- REF_ARROW_FEATHER -->
   <g transform="scale(0.0092592592)">
    <path d="M 18,-54 L 108,-54 L 63,0 L 108,54 L 18, 54 L -36,0 z"/>
   </g>
  </marker>
  <marker id="DefaultArrow8" markerUnits="strokeWidth" viewBox="0 0 1 1" markerWidth="1" markerHeight="1" overflow="visible" orient="auto">
   <!-- REF_ARROW_FEATHER2 -->
   <g transform="scale(0.0092592592)">
    <path d="M -36,0 L 18,-54 L 54,-54 L 18,-18 L 27,-18 L 63,-54 L 99,-54 L 63,-18 L 72,-18 L 108,-54 L 144,-54 L 90,0 L 144,54 L 108,54 L 72,18 L 63,18 L 99,54 L 63,54 L 27,18 L 18,18 L 54,54 L 18,54 z"/>
   </g>
  </marker>
  <marker id="DefaultArrow9" markerUnits="strokeWidth" viewBox="0 0 1 1" markerWidth="1" markerHeight="1" overflow="visible" orient="auto">
   <!-- REF_ARROW_HOLLOWDIAMOND -->
   <g transform="scale(0.0092592592)">
    <path d="M 0,45 L -45,0 L 0, -45 L 45, 0 z M 0, 63 L-63, 0 L 0, -63 L 63, 0 z"/>
   </g>
  </marker>
  <filter id="StainedFilter">
   <feBlend mode="multiply" in2="BackgroundImage" in="SourceGraphic" result="blend"/>
   <feComposite in="blend" in2="SourceAlpha" operator="in" result="comp"/>
  </filter>
  <filter id="BleachFilter">
   <feBlend mode="screen" in2="BackgroundImage" in="SourceGraphic" result="blend"/>
   <feComposite in="blend" in2="SourceAlpha" operator="in" result="comp"/>
  </filter>
  <filter id="InvertTransparencyBitmapFilter">
   <feComponentTransfer>
    <feFuncR type="gamma" amplitude="1.055" exponent=".416666666" offset="-0.055"/>
    <feFuncG type="gamma" amplitude="1.055" exponent=".416666666" offset="-0.055"/>
    <feFuncB type="gamma" amplitude="1.055" exponent=".416666666" offset="-0.055"/>
   </feComponentTransfer>
   <feComponentTransfer>
    <feFuncR type="linear" slope="-1" intercept="1"/>
    <feFuncG type="linear" slope="-1" intercept="1"/>
    <feFuncB type="linear" slope="-1" intercept="1"/>
    <feFuncA type="linear" slope="1" intercept="0"/>
   </feComponentTransfer>
   <feComponentTransfer>
    <feFuncR type="gamma" amplitude="1" exponent="2.4" offset="0"/>
    <feFuncG type="gamma" amplitude="1" exponent="2.4" offset="0"/>
    <feFuncB type="gamma" amplitude="1" exponent="2.4" offset="0"/>
   </feComponentTransfer>
  </filter>
  <linearGradient id="LinearGradient" gradientUnits="userSpaceOnUse" x1="0" y1="0" x2="14.298" y2="0" gradientTransform="translate(9.646 41.652) rotate(-90)">
   <stop offset="0" stop-color="#6f7f6f"/>
   <stop offset="0.230769231915474" stop-color="#c7d4c7"/>
   <stop offset="0.800000011920929" stop-color="#aab7aa"/>
   <stop offset="1" stop-color="#6f7f6f"/>
  </linearGradient>
  <linearGradient id="LinearGradient_1" gradientUnits="userSpaceOnUse" x1="0" y1="0" x2="-3.822" y2="2.571" gradientTransform="translate(5.25 30.751)">
   <stop offset="0" stop-color="#ffffff"/>
   <stop offset="1" stop-color="#000000"/>
  </linearGradient>
  <linearGradient id="LinearGradient_2" gradientUnits="userSpaceOnUse" x1="0" y1="0" x2="0" y2="-21.75" gradientTransform="translate(26.25 36.001)">
   <stop offset="0" stop-color="#889588"/>
   <stop offset="0.481481492519379" stop-color="#bbc5bb"/>
   <stop offset="1" stop-color="#8f988f"/>
  </linearGradient>
  <linearGradient id="LinearGradient_3" gradientUnits="userSpaceOnUse" x1="0" y1="0" x2="0" y2="-9.75" gradientTransform="translate(30.75 30.751)">
   <stop offset="0" stop-color="#ffffff"/>
   <stop offset="1" stop-color="#000000"/>
  </linearGradient>
  <linearGradient id="LinearGradient_4" gradientUnits="userSpaceOnUse" x1="0" y1="0" x2="0" y2="57.008" gradientTransform="translate(32.25 -41.999)">
   <stop offset="0" stop-color="#ffffff"/>
   <stop offset="1" stop-color="#000000"/>
  </linearGradient>
  <radialGradient id="RadialGradient" gradientUnits="userSpaceOnUse" cx="0" cy="0" r="10.916" gradientTransform="translate(90.751 20.889) rotate(-90) scale(1 0.959234)">
   <stop offset="0" stop-color="#e4ede4"/>
   <stop offset="0.41397699713707" stop-color="#a9b6aa"/>
   <stop offset="1" stop-color="#6f7f6f"/>
  </radialGradient>
  <linearGradient id="LinearGradient_5" gradientUnits="userSpaceOnUse" x1="0" y1="0" x2="0" y2="23.262" gradientTransform="translate(92.25 -9.011)">
   <stop offset="0" stop-color="#ffffff"/>
   <stop offset="1" stop-color="#000000"/>
  </linearGradient>
  <radialGradient id="RadialGradient_1" gradientUnits="userSpaceOnUse" cx="0" cy="0" r="1.916" gradientTransform="translate(86.283 14.679) rotate(-144.469) scale(1 1.64927)">
   <stop offset="0" stop-color="#ffffff"/>
   <stop offset="1" stop-color="#000000"/>
  </radialGradient>
  <radialGradient id="RadialGradient_2" gradientUnits="userSpaceOnUse" cx="0" cy="0" r="1.373" gradientTransform="translate(95.819 21.881) rotate(39.624) scale(1 2.06264)">
   <stop offset="0" stop-color="#ffffff"/>
   <stop offset="1" stop-color="#000000"/>
  </radialGradient>
  <radialGradient id="RadialGradient_3" gradientUnits="userSpaceOnUse" cx="0" cy="0" r="1.373" gradientTransform="translate(95.819 21.881) rotate(39.624) scale(1 2.06264)">
   <stop offset="0" stop-color="#ffffff"/>
   <stop offset="1" stop-color="#000000"/>
  </radialGradient>
  <radialGradient id="RadialGradient_4" gradientUnits="userSpaceOnUse" cx="22.5" cy="23.252" r="6.75">
   <stop offset="0" stop-color="#ffffff"/>
   <stop offset="1" stop-color="#000000"/>
  </radialGradient>
  <linearGradient id="LinearGradient_6" gradientUnits="userSpaceOnUse" x1="0" y1="0" x2="0" y2="-10.5" gradientTransform="translate(22.5 30.751)">
   <stop offset="0" stop-color="#c2cdc3"/>
   <stop offset="1" stop-color="#708070"/>
  </linearGradient>
  <radialGradient id="RadialGradient_5" gradientUnits="userSpaceOnUse" cx="90.751" cy="15.001" r="3.751">
   <stop offset="0" stop-color="#ffffff"/>
   <stop offset="1" stop-color="#000000"/>
  </radialGradient>
  <linearGradient id="LinearGradient_7" gradientUnits="userSpaceOnUse" x1="0" y1="0" x2="0" y2="-6.563" gradientTransform="translate(90.751 20.532)">
   <stop offset="0" stop-color="#c2cdc3"/>
   <stop offset="1" stop-color="#708070"/>
  </linearGradient>
  <linearGradient id="LinearGradient_8" gradientUnits="userSpaceOnUse" x1="0" y1="0" x2="0" y2="36" gradientTransform="translate(29.25 -8.249)">
   <stop offset="0" stop-color="#ffffff"/>
   <stop offset="1" stop-color="#9aa89a"/>
  </linearGradient>
  <linearGradient id="LinearGradient_9" gradientUnits="userSpaceOnUse" x1="0" y1="0" x2="0" y2="18.004" gradientTransform="translate(94.128 0.372)">
   <stop offset="0" stop-color="#ffffff"/>
   <stop offset="1" stop-color="#9aa89a"/>
  </linearGradient>
  <radialGradient id="RadialGradient_6" gradientUnits="userSpaceOnUse" cx="22.5" cy="25.501" r="19.355">
   <stop offset="0" stop-color="#000000"/>
   <stop offset="1" stop-color="#7e8b7e"/>
  </radialGradient>
  <linearGradient id="LinearGradient_10" gradientUnits="userSpaceOnUse" x1="0" y1="0" x2="0" y2="-8.25" gradientTransform="translate(91.5 24.751)">
   <stop offset="0" stop-color="#ffffff"/>
   <stop offset="1" stop-color="#000000"/>
  </linearGradient>
  <radialGradient id="RadialGradient_7" gradientUnits="userSpaceOnUse" cx="90.75" cy="17.251" r="11.643">
   <stop offset="0" stop-color="#000000"/>
   <stop offset="1" stop-color="#7e8b7e"/>
  </radialGradient>
  <linearGradient id="LinearGradient_11" gradientUnits="userSpaceOnUse" x1="0" y1="0" x2="0" y2="-14.25" gradientTransform="translate(44.25 15.751)">
   <stop offset="0" stop-color="#ffffff"/>
   <stop offset="1" stop-color="#6f7f6f"/>
  </linearGradient>
  <linearGradient id="LinearGradient_12" gradientUnits="userSpaceOnUse" x1="0" y1="0" x2="1.5" y2="0" gradientTransform="translate(57.602 6.003) rotate(-90)">
   <stop offset="0" stop-color="#ffffff"/>
   <stop offset="1" stop-color="#000000"/>
  </linearGradient>
  <linearGradient id="LinearGradient_13" gradientUnits="userSpaceOnUse" x1="0" y1="0" x2="2.25" y2="0" gradientTransform="translate(44.922 -1.498) rotate(90)">
   <stop offset="0" stop-color="#ffffff"/>
   <stop offset="1" stop-color="#000000"/>
  </linearGradient>
  <linearGradient id="LinearGradient_14" gradientUnits="userSpaceOnUse" x1="0" y1="0" x2="2.25" y2="0" gradientTransform="translate(-0.753 4.574)">
   <stop offset="0" stop-color="#ffffff"/>
   <stop offset="1" stop-color="#000000"/>
  </linearGradient>
  <linearGradient id="LinearGradient_15" gradientUnits="userSpaceOnUse" x1="0" y1="0" x2="2.25" y2="0" gradientTransform="translate(106.503 4.573) rotate(180)">
   <stop offset="0" stop-color="#ffffff"/>
   <stop offset="1" stop-color="#000000"/>
  </linearGradient>
  <linearGradient id="LinearGradient_16" gradientUnits="userSpaceOnUse" x1="0" y1="0" x2="2.25" y2="0" gradientTransform="translate(-1.503 40.621)">
   <stop offset="0" stop-color="#ffffff"/>
   <stop offset="1" stop-color="#000000"/>
  </linearGradient>
 </defs>
 <g id="Document" fill="none" stroke="black" font-family="Times New Roman" font-size="16" transform="scale(1 -1)">
  <g id="Spread" transform="translate(0 -42.75)">
   <g id="Layer 1">
    <path d="M 22.5,42.751 L 22.5,26.251 L 0,26.251 L 0,42.751 L 22.5,42.751 Z" stroke="none" stroke-linejoin="miter" marker-start="none" marker-end="none" fill="url(#LinearGradient)"/>
    <mask id="TranspMask">
     <rect x="-10%" y="-10%" width="120%" height="120%" fill="url(#LinearGradient_1)" stroke="none"/>
    </mask>
    <path d="M 22.5,42.751 L 22.5,26.251 L 0,26.251 L 0,42.751 L 22.5,42.751 Z" stroke="none" stroke-linejoin="miter" fill="#708070" marker-start="none" marker-end="none" mask="url(#TranspMask)"/>
    <path d="M 39.75,25.502 C 39.75,35.024 32.022,42.751 22.5,42.751 C 12.978,42.751 5.25,35.024 5.25,25.502 C 5.25,15.98 12.978,8.252 22.5,8.252 C 32.022,8.252 39.75,15.98 39.75,25.502 Z" stroke="none" stroke-linejoin="miter" marker-start="none" marker-end="none" fill="url(#LinearGradient_2)"/>
    <path d="M 5.25,25.502 C 5.25,35.024 12.978,42.751 22.5,42.751 C 32.022,42.751 39.75,35.024 39.75,25.502 C 39.75,15.98 32.022,8.252 22.5,8.252 C 12.978,8.252 5.25,15.98 5.25,25.502 Z M 39,25.502 C 39,34.61 31.608,42.001 22.5,42.001 C 13.392,42.001 6,34.61 6,25.502 C 6,16.394 13.392,9.002 22.5,9.002 C 31.608,9.002 39,16.394 39,25.502 Z" stroke="none" stroke-linejoin="miter" marker-start="none" marker-end="none" fill-opacity="0.137255" fill="url(#LinearGradient_3)"/>
    <mask id="TranspMask_1">
     <rect x="-10%" y="-10%" width="120%" height="120%" fill="url(#LinearGradient_4)" stroke="none"/>
    </mask>
    <path d="M 39.75,25.502 C 39.75,35.024 32.022,42.751 22.5,42.751 C 12.978,42.751 5.25,35.024 5.25,25.502 C 5.25,15.98 12.978,8.252 22.5,8.252 C 32.022,8.252 39.75,15.98 39.75,25.502 Z" stroke="none" fill="#000000" stroke-linejoin="miter" marker-start="none" marker-end="none" mask="url(#TranspMask_1)"/>
    <path d="M 90.751,26.25 C 95.718,26.25 99.75,22.218 99.75,17.251 C 99.75,12.283 95.718,8.251 90.751,8.251 C 85.783,8.251 81.751,12.283 81.751,17.251 C 81.751,22.218 85.783,26.25 90.751,26.25 Z" stroke="none" stroke-linejoin="miter" marker-start="none" marker-end="none" fill="url(#RadialGradient)"/>
    <mask id="TranspMask_2">
     <rect x="-10%" y="-10%" width="120%" height="120%" fill="url(#LinearGradient_5)" stroke="none"/>
    </mask>
    <path d="M 90.751,26.25 C 95.718,26.25 99.75,22.218 99.75,17.251 C 99.75,12.283 95.718,8.251 90.751,8.251 C 85.783,8.251 81.751,12.283 81.751,17.251 C 81.751,22.218 85.783,26.25 90.751,26.25 Z" stroke="none" fill="#000000" stroke-linejoin="miter" marker-start="none" marker-end="none" mask="url(#TranspMask_2)"/>
    <mask id="TranspMask_3">
     <rect x="-10%" y="-10%" width="120%" height="120%" fill="url(#RadialGradient_1)" stroke="none"/>
    </mask>
    <path d="M 88.762,11.006 L 93.382,11.007 C 94.431,11.007 95.282,11.858 95.282,12.907 L 95.282,20.309 C 95.282,21.358 94.431,22.209 93.382,22.209 L 88.762,22.209 C 85.67,22.209 83.16,19.7 83.16,16.607 C 83.16,13.516 85.67,11.006 88.762,11.006 Z" stroke="none" stroke-linejoin="miter" fill="#afbbaf" marker-start="none" marker-end="none" mask="url(#TranspMask_3)"/>
    <mask id="TranspMask_5">
     <rect x="-10%" y="-10%" width="120%" height="120%" fill="url(#RadialGradient_3)" stroke="none"/>
    </mask>
    <g id="Group" stroke="none" stroke-linejoin="miter" fill="#e3ece3" mask="url(#TranspMask_5)">
     <mask id="TranspMask_4">
      <rect x="-10%" y="-10%" width="120%" height="120%" fill="url(#RadialGradient_2)" stroke="none"/>
     </mask>
     <path d="M 94.011,24.061 C 94.595,24.543 95.879,23.959 96.877,22.757 C 97.875,21.553 98.211,20.186 97.627,19.702 C 97.044,19.22 95.76,19.804 94.762,21.006 C 93.764,22.209 93.428,23.577 94.011,24.061 Z" marker-start="none" marker-end="none" mask="url(#TranspMask_4)"/>
    </g>
    <path d="M 90.342,12.764 L 21.814,18.785 C 18.404,19.131 15.75,22.007 15.75,25.501 C 15.75,29.229 18.773,32.251 22.5,32.251 C 22.927,32.251 23.334,32.212 23.73,32.139 L 91.495,21.695 C 93.63,21.337 95.255,19.485 95.255,17.251 C 95.255,14.763 93.236,12.747 90.75,12.747 C 90.613,12.747 90.477,12.752 90.342,12.764 Z M 93.755,17.251 C 93.755,18.74 92.671,19.976 91.256,20.214 L 23.479,30.66 C 23.151,30.721 22.834,30.751 22.5,30.751 C 19.602,30.751 17.25,28.4 17.25,25.501 C 17.25,22.784 19.315,20.546 21.955,20.278 L 90.473,14.259 C 90.564,14.251 90.656,14.247 90.75,14.247 C 92.409,14.247 93.755,15.592 93.755,17.251 Z" stroke="none" stroke-width="0.5" fill="#616a61" fill-rule="evenodd" marker-start="none" marker-end="none" stroke-miterlimit="79.8403193612775"/>
    <path d="M 90.745,12.767 L 22.219,18.787 C 19.002,19.114 16.495,21.83 16.495,25.13 C 16.495,28.651 19.35,31.505 22.87,31.505 C 23.274,31.505 23.658,31.468 24.037,31.398 L 91.805,20.954 C 93.721,20.632 95.19,18.995 95.248,17.001 C 95.123,14.707 93.279,12.87 90.984,12.752 C 90.904,12.755 90.824,12.759 90.745,12.767 Z M 94.5,16.88 C 94.5,18.555 93.281,19.945 91.686,20.213 L 23.912,30.659 C 23.567,30.723 23.227,30.755 22.87,30.755 C 22.786,30.755 22.704,30.753 22.622,30.749 C 22.581,30.75 22.541,30.751 22.5,30.751 C 19.602,30.751 17.25,28.4 17.25,25.501 C 17.25,25.465 17.25,25.429 17.251,25.393 C 17.247,25.306 17.245,25.218 17.245,25.13 C 17.245,22.219 19.457,19.821 22.29,19.534 L 90.81,13.514 C 90.912,13.505 91.015,13.501 91.12,13.501 C 92.986,13.501 94.5,15.014 94.5,16.88 Z" stroke="none" stroke-opacity="0.301961" fill="#000000" fill-rule="evenodd" stroke-width="0.5" marker-start="none" marker-end="none" stroke-miterlimit="79.8403193612775" fill-opacity="0.301961"/>
    <mask id="TranspMask_6">
     <rect x="-10%" y="-10%" width="120%" height="120%" fill="url(#RadialGradient_4)" stroke="none"/>
    </mask>
    <path d="M 22.5,16.503 C 18.773,16.503 15.75,19.524 15.75,23.251 C 15.75,26.98 18.773,30.001 22.5,30.001 C 26.227,30.001 29.25,26.98 29.25,23.251 C 29.25,19.524 26.227,16.503 22.5,16.503 Z" stroke="none" fill="#000000" stroke-linejoin="miter" marker-start="none" marker-end="none" mask="url(#TranspMask_6)"/>
    <path d="M 22.5,19.503 C 19.187,19.503 16.5,22.188 16.5,25.501 C 16.5,28.816 19.187,31.501 22.5,31.501 C 25.813,31.501 28.5,28.816 28.5,25.501 C 28.5,22.188 25.813,19.503 22.5,19.503 Z" stroke="none" stroke-linejoin="miter" marker-start="none" marker-end="none" fill="url(#LinearGradient_6)"/>
    <mask id="TranspMask_7">
     <rect x="-10%" y="-10%" width="120%" height="120%" fill="url(#RadialGradient_5)" stroke="none"/>
    </mask>
    <path d="M 90.751,11.251 C 88.68,11.251 87,12.93 87,15 C 87,17.072 88.68,18.751 90.751,18.751 C 92.822,18.751 94.502,17.072 94.502,15 C 94.502,12.93 92.822,11.251 90.751,11.251 Z" stroke="none" fill="#000000" stroke-linejoin="miter" marker-start="none" marker-end="none" mask="url(#TranspMask_7)"/>
    <path d="M 90.751,13.501 C 88.68,13.501 87,15.18 87,17.25 C 87,19.322 88.68,21.001 90.751,21.001 C 92.822,21.001 94.502,19.322 94.502,17.25 C 94.502,15.18 92.822,13.501 90.751,13.501 Z" stroke="none" stroke-linejoin="miter" marker-start="none" marker-end="none" fill="url(#LinearGradient_7)"/>
    <path d="M 22.5,21.003 C 20.015,21.003 18,23.017 18,25.501 C 18,27.987 20.015,30.001 22.5,30.001 C 24.985,30.001 27,27.987 27,25.501 C 27,23.017 24.985,21.003 22.5,21.003 Z" stroke="none" stroke-linejoin="miter" marker-start="none" marker-end="none" fill="url(#LinearGradient_8)"/>
    <path d="M 90.751,15.001 C 89.508,15.001 88.5,16.008 88.5,17.25 C 88.5,18.494 89.508,19.501 90.751,19.501 C 91.994,19.501 93.002,18.494 93.002,17.25 C 93.002,16.008 91.994,15.001 90.751,15.001 Z" stroke="none" stroke-linejoin="miter" marker-start="none" marker-end="none" fill="url(#LinearGradient_9)"/>
    <path d="M 12.75,5.251 L 14.9,11.705 C 17.154,10.46 19.744,9.752 22.5,9.752 C 25.255,9.752 27.845,10.46 30.099,11.705 L 32.25,5.251 L 32.25,3.751 L 12.75,3.751 L 12.75,5.251 Z" stroke="none" stroke-linejoin="miter" marker-start="none" marker-end="none" fill="url(#RadialGradient_6)"/>
    <path d="M 12.75,3.751 L 12.75,5.251 L 14.9,11.705 C 17.154,10.46 19.744,9.752 22.5,9.752 C 25.255,9.752 27.845,10.46 30.099,11.705 L 32.25,5.251 L 32.25,3.751 L 12.75,3.751 Z M 31.503,4.498 L 31.503,5.129 L 29.664,10.643 L 29.558,10.588 C 27.416,9.572 25.023,9.005 22.5,9.005 C 19.974,9.005 17.581,9.572 15.439,10.588 L 15.333,10.643 L 13.497,5.129 L 13.497,4.498 L 31.503,4.498 Z" stroke="none" fill="#000000" stroke-linejoin="miter" marker-start="none" marker-end="none" fill-opacity="0.137255"/>
    <mask id="TranspMask_8">
     <rect x="-10%" y="-10%" width="120%" height="120%" fill="url(#LinearGradient_10)" stroke="none"/>
    </mask>
    <path d="M 87,17.25 C 87,19.322 88.68,21.001 90.751,21.001 C 92.822,21.001 94.502,19.322 94.502,17.25 C 94.502,15.18 92.822,13.501 90.751,13.501 C 88.68,13.501 87,15.18 87,17.25 Z M 93.752,17.25 C 93.752,18.908 92.408,20.251 90.751,20.251 C 89.094,20.251 87.75,18.908 87.75,17.25 C 87.75,15.594 89.094,14.251 90.751,14.251 C 92.408,14.251 93.752,15.594 93.752,17.25 Z" stroke="none" fill="#ffffff" stroke-linejoin="miter" marker-start="none" marker-end="none" mask="url(#TranspMask_8)"/>
    <path d="M 81,3.751 L 81,5.448 L 83.321,12.001 L 84.385,12.001 C 85.273,10.925 86.429,10.078 87.751,9.562 L 87.751,3.751 L 81,3.751 Z M 93.752,3.751 L 93.752,9.563 C 95.071,10.079 96.226,10.925 97.114,12.001 L 98.177,12.001 L 100.5,5.448 L 100.5,3.751 L 93.752,3.751 Z" stroke="none" stroke-linejoin="miter" marker-start="none" marker-end="none" fill="url(#RadialGradient_7)"/>
    <path d="M 81,3.751 L 81,5.448 L 83.321,12.001 L 84.385,12.001 C 85.273,10.925 86.429,10.078 87.751,9.562 L 87.751,3.751 L 81,3.751 Z M 93.752,3.751 L 93.752,9.563 C 95.071,10.079 96.226,10.925 97.114,12.001 L 98.177,12.001 L 100.5,5.448 L 100.5,3.751 L 93.752,3.751 Z M 87.001,4.501 L 87.001,9.085 L 86.431,9.351 C 85.759,9.719 85.138,10.17 84.585,10.691 L 84.06,11.251 L 83.851,11.251 L 81.75,5.319 L 81.75,4.501 L 87.001,4.501 Z M 99.75,4.501 L 99.75,5.318 L 97.647,11.251 L 97.437,11.251 L 96.913,10.691 C 96.359,10.171 95.74,9.72 95.068,9.352 L 94.502,9.086 L 94.502,4.501 L 99.75,4.501 Z" stroke="none" fill="#000000" stroke-linejoin="miter" marker-start="none" marker-end="none" fill-opacity="0.137255"/>
    <path d="M 104.999,5.25 L 104.999,0.001 L 0.75,0.001 L 0.75,5.25 L 104.999,5.25 Z" stroke="none" stroke-linejoin="miter" marker-start="none" marker-end="none" fill="url(#LinearGradient_11)"/>
    <mask id="TranspMask_9">
     <rect x="-10%" y="-10%" width="120%" height="120%" fill="url(#LinearGradient_12)" stroke="none"/>
    </mask>
    <path d="M 0.76,5.252 L 0.76,4.503 L 104.999,4.503 L 104.999,5.252 L 0.76,5.252 Z" stroke="none" stroke-linejoin="miter" fill="#ffffff" marker-start="none" marker-end="none" mask="url(#TranspMask_9)"/>
    <mask id="TranspMask_10">
     <rect x="-10%" y="-10%" width="120%" height="120%" fill="url(#LinearGradient_13)" stroke="none"/>
    </mask>
    <path d="M 0.759,0.751 L 0.759,0.002 L 104.998,0.002 L 104.998,0.751 L 0.759,0.751 Z" stroke="none" stroke-linejoin="miter" fill="#000000" marker-start="none" marker-end="none" mask="url(#TranspMask_10)"/>
    <mask id="TranspMask_11">
     <rect x="-10%" y="-10%" width="120%" height="120%" fill="url(#LinearGradient_14)" stroke="none"/>
    </mask>
    <path d="M 1.499,5.252 L 0.75,5.252 L 0.75,0.001 L 1.499,0.001 L 1.499,5.252 Z" stroke="none" stroke-linejoin="miter" fill="#000000" marker-start="none" marker-end="none" mask="url(#TranspMask_11)"/>
    <mask id="TranspMask_12">
     <rect x="-10%" y="-10%" width="120%" height="120%" fill="url(#LinearGradient_15)" stroke="none"/>
    </mask>
    <path d="M 104.251,5.251 L 105,5.251 L 105,0 L 104.251,0 L 104.251,5.251 Z" stroke="none" stroke-linejoin="miter" fill="#000000" marker-start="none" marker-end="none" mask="url(#TranspMask_12)"/>
    <mask id="TranspMask_13">
     <rect x="-10%" y="-10%" width="120%" height="120%" fill="url(#LinearGradient_16)" stroke="none"/>
    </mask>
    <path d="M 0.749,42.75 L 0,42.75 L 0,26.251 L 0.749,26.251 L 0.749,42.75 Z" stroke="none" stroke-linejoin="miter" fill="#000000" marker-start="none" marker-end="none" mask="url(#TranspMask_13)"/>
   </g>
  </g>
 </g>
</svg>
