<?xml version="1.0" standalone="no"?>
<!DOCTYPE svg PUBLIC "-//W3C//DTD SVG 1.1//EN" "http://www.w3.org/Graphics/SVG/1.1/DTD/svg11.dtd">
<!--Generator: Xara Xtreme (www.xara.com), SVG filter version: 1.0.0.13-->
<svg stroke-width="0.501" stroke-linejoin="bevel" fill-rule="evenodd" xmlns:xlink="http://www.w3.org/1999/xlink" xmlns="http://www.w3.org/2000/svg" version="1.1" overflow="visible" width="64.5pt" height="81.75pt" viewBox="0 0 64.5 81.75">
 <defs>
  <marker id="DefaultArrow2" markerUnits="strokeWidth" viewBox="0 0 1 1" markerWidth="1" markerHeight="1" overflow="visible" orient="auto">
   <!-- REF_ARROW_STRAIGHT (-2) -->
   <g transform="scale(0.0092592592)">
    <!-- 1/108 -->
    <path d="M -9 54 L -9 -54 L 117 0 z"/>
   </g>
  </marker>
  <marker id="DefaultArrow3" markerUnits="strokeWidth" viewBox="0 0 1 1" markerWidth="1" markerHeight="1" overflow="visible" orient="auto">
   <!-- REF_ARROW_ANGLED -->
   <g transform="scale(0.0092592592)">
    <path d="M -27 54 L -9 0 L -27 -54 L 135 0 z"/>
   </g>
  </marker>
  <marker id="DefaultArrow4" markerUnits="strokeWidth" viewBox="0 0 1 1" markerWidth="1" markerHeight="1" overflow="visible" orient="auto">
   <!-- REF_ARROW_ROUNDED -->
   <g transform="scale(0.0092592592)">
    <path d="M -9,0 L -9,-45 C -9,-51.708 2.808,-56.580 9,-54 L 117,-9 C 120.916,-7.369 126.000,-4.242 126,0 C 126,4.242 120.916,7.369 117,9 L 9,54 C 2.808,56.580 -9,51.708 -9,45 z"/>
   </g>
  </marker>
  <marker id="DefaultArrow5" markerUnits="strokeWidth" viewBox="0 0 1 1" markerWidth="1" markerHeight="1" overflow="visible" orient="auto">
   <!-- REF_ARROW_SPOT -->
   <g transform="scale(0.0092592592)">
    <path d="M -54, 0 C -54,29.807 -29.807,54 0,54 C 29.807,54 54,29.807 54,0 C 54,-29.807 29.807,-54 0,-54 C -29.807,-54 -54,-29.807 -54,0 z"/>
   </g>
  </marker>
  <marker id="DefaultArrow6" markerUnits="strokeWidth" viewBox="0 0 1 1" markerWidth="1" markerHeight="1" overflow="visible" orient="auto">
   <!-- REF_ARROW_DIAMOND -->
   <g transform="scale(0.0092592592)">
    <path d="M -63,0 L 0,63 L 63,0 L 0,-63 z"/>
   </g>
  </marker>
  <marker id="DefaultArrow7" markerUnits="strokeWidth" viewBox="0 0 1 1" markerWidth="1" markerHeight="1" overflow="visible" orient="auto">
   <!-- REF_ARROW_FEATHER -->
   <g transform="scale(0.0092592592)">
    <path d="M 18,-54 L 108,-54 L 63,0 L 108,54 L 18, 54 L -36,0 z"/>
   </g>
  </marker>
  <marker id="DefaultArrow8" markerUnits="strokeWidth" viewBox="0 0 1 1" markerWidth="1" markerHeight="1" overflow="visible" orient="auto">
   <!-- REF_ARROW_FEATHER2 -->
   <g transform="scale(0.0092592592)">
    <path d="M -36,0 L 18,-54 L 54,-54 L 18,-18 L 27,-18 L 63,-54 L 99,-54 L 63,-18 L 72,-18 L 108,-54 L 144,-54 L 90,0 L 144,54 L 108,54 L 72,18 L 63,18 L 99,54 L 63,54 L 27,18 L 18,18 L 54,54 L 18,54 z"/>
   </g>
  </marker>
  <marker id="DefaultArrow9" markerUnits="strokeWidth" viewBox="0 0 1 1" markerWidth="1" markerHeight="1" overflow="visible" orient="auto">
   <!-- REF_ARROW_HOLLOWDIAMOND -->
   <g transform="scale(0.0092592592)">
    <path d="M 0,45 L -45,0 L 0, -45 L 45, 0 z M 0, 63 L-63, 0 L 0, -63 L 63, 0 z"/>
   </g>
  </marker>
  <filter id="StainedFilter">
   <feBlend mode="multiply" in2="BackgroundImage" in="SourceGraphic" result="blend"/>
   <feComposite in="blend" in2="SourceAlpha" operator="in" result="comp"/>
  </filter>
  <filter id="BleachFilter">
   <feBlend mode="screen" in2="BackgroundImage" in="SourceGraphic" result="blend"/>
   <feComposite in="blend" in2="SourceAlpha" operator="in" result="comp"/>
  </filter>
  <filter id="InvertTransparencyBitmapFilter">
   <feComponentTransfer>
    <feFuncR type="gamma" amplitude="1.055" exponent=".416666666" offset="-0.055"/>
    <feFuncG type="gamma" amplitude="1.055" exponent=".416666666" offset="-0.055"/>
    <feFuncB type="gamma" amplitude="1.055" exponent=".416666666" offset="-0.055"/>
   </feComponentTransfer>
   <feComponentTransfer>
    <feFuncR type="linear" slope="-1" intercept="1"/>
    <feFuncG type="linear" slope="-1" intercept="1"/>
    <feFuncB type="linear" slope="-1" intercept="1"/>
    <feFuncA type="linear" slope="1" intercept="0"/>
   </feComponentTransfer>
   <feComponentTransfer>
    <feFuncR type="gamma" amplitude="1" exponent="2.4" offset="0"/>
    <feFuncG type="gamma" amplitude="1" exponent="2.4" offset="0"/>
    <feFuncB type="gamma" amplitude="1" exponent="2.4" offset="0"/>
   </feComponentTransfer>
  </filter>
  <linearGradient id="LinearGradient" gradientUnits="userSpaceOnUse" x1="0" y1="0" x2="57.072" y2="0" gradientTransform="translate(60.783 43.71) rotate(180)">
   <stop offset="0" stop-color="#6f7f6f"/>
   <stop offset="0.157716974616051" stop-color="#d8e1d8"/>
   <stop offset="0.539225339889526" stop-color="#8f9e8f"/>
   <stop offset="0.772247076034546" stop-color="#c7d4c7"/>
   <stop offset="1" stop-color="#6f7f6f"/>
  </linearGradient>
  <radialGradient id="RadialGradient" gradientUnits="userSpaceOnUse" cx="0" cy="0" r="5.999" gradientTransform="translate(51.001 46.874) scale(1 3.56309)">
   <stop offset="0" stop-color="#ffffff"/>
   <stop offset="1" stop-color="#000000"/>
  </radialGradient>
  <radialGradient id="RadialGradient_1" gradientUnits="userSpaceOnUse" cx="0" cy="0" r="5.999" gradientTransform="translate(51.001 46.874) scale(1 3.56309)">
   <stop offset="0" stop-color="#ffffff"/>
   <stop offset="1" stop-color="#000000"/>
  </radialGradient>
  <linearGradient id="LinearGradient_1" gradientUnits="userSpaceOnUse" x1="0" y1="0" x2="21.013" y2="0" gradientTransform="translate(43.342 84.013) rotate(-90)">
   <stop offset="0" stop-color="#ffffff"/>
   <stop offset="1" stop-color="#000000"/>
  </linearGradient>
  <linearGradient id="LinearGradient_2" gradientUnits="userSpaceOnUse" x1="0" y1="0" x2="11.25" y2="0" gradientTransform="translate(43.342 76.5) rotate(-90)">
   <stop offset="0" stop-color="#ffffff"/>
   <stop offset="1" stop-color="#000000"/>
  </linearGradient>
  <radialGradient id="RadialGradient_2" gradientUnits="userSpaceOnUse" cx="0" cy="0" r="8.25" gradientTransform="translate(47.992 76.5) rotate(90) scale(1 4.5463)">
   <stop offset="0" stop-color="#e4ede4"/>
   <stop offset="1" stop-color="#6f7f6f"/>
  </radialGradient>
  <radialGradient id="RadialGradient_3" gradientUnits="userSpaceOnUse" cx="0" cy="0" r="12.75" gradientTransform="translate(17.242 75) scale(1 0.323529)">
   <stop offset="0" stop-color="#ffffff"/>
   <stop offset="1" stop-color="#000000"/>
  </radialGradient>
  <linearGradient id="LinearGradient_3" gradientUnits="userSpaceOnUse" x1="0" y1="0" x2="61.354" y2="0" gradientTransform="translate(62.922 70.85) rotate(180)">
   <stop offset="0" stop-color="#6f7f6f"/>
   <stop offset="0.157716974616051" stop-color="#d8e1d8"/>
   <stop offset="0.539225339889526" stop-color="#8f9e8f"/>
   <stop offset="0.772247076034546" stop-color="#c7d4c7"/>
   <stop offset="1" stop-color="#6f7f6f"/>
  </linearGradient>
  <linearGradient id="LinearGradient_4" gradientUnits="userSpaceOnUse" x1="0" y1="0" x2="2.25" y2="0" gradientTransform="translate(27.322 69.748) rotate(90)">
   <stop offset="0" stop-color="#ffffff"/>
   <stop offset="1" stop-color="#000000"/>
  </linearGradient>
  <linearGradient id="LinearGradient_5" gradientUnits="userSpaceOnUse" x1="0" y1="0" x2="1.5" y2="0" gradientTransform="translate(35.168 75.751) rotate(-90)">
   <stop offset="0" stop-color="#ffffff"/>
   <stop offset="1" stop-color="#000000"/>
  </linearGradient>
  <linearGradient id="LinearGradient_6" gradientUnits="userSpaceOnUse" x1="0" y1="0" x2="1.5" y2="0" gradientTransform="translate(35.167 72) rotate(-90)">
   <stop offset="0" stop-color="#ffffff"/>
   <stop offset="1" stop-color="#000000"/>
  </linearGradient>
  <linearGradient id="LinearGradient_7" gradientUnits="userSpaceOnUse" x1="0" y1="0" x2="2.25" y2="0" gradientTransform="translate(27.322 66) rotate(90)">
   <stop offset="0" stop-color="#ffffff"/>
   <stop offset="1" stop-color="#000000"/>
  </linearGradient>
  <radialGradient id="RadialGradient_4" gradientUnits="userSpaceOnUse" cx="0" cy="0" r="7.5" gradientTransform="translate(42.746 6) rotate(-90) scale(1 5.00093)">
   <stop offset="0" stop-color="#e4ede4"/>
   <stop offset="1" stop-color="#6f7f6f"/>
  </radialGradient>
  <linearGradient id="LinearGradient_8" gradientUnits="userSpaceOnUse" x1="0" y1="0" x2="21.013" y2="0" gradientTransform="translate(43.342 23.263) rotate(-90)">
   <stop offset="0" stop-color="#ffffff"/>
   <stop offset="1" stop-color="#000000"/>
  </linearGradient>
  <linearGradient id="LinearGradient_9" gradientUnits="userSpaceOnUse" x1="0" y1="0" x2="11.25" y2="0" gradientTransform="translate(43.342 15.75) rotate(-90)">
   <stop offset="0" stop-color="#ffffff"/>
   <stop offset="1" stop-color="#000000"/>
  </linearGradient>
  <linearGradient id="LinearGradient_10" gradientUnits="userSpaceOnUse" x1="0" y1="0" x2="61.354" y2="0" gradientTransform="translate(62.926 10.1) rotate(180)">
   <stop offset="0" stop-color="#6f7f6f"/>
   <stop offset="0.157716974616051" stop-color="#d8e1d8"/>
   <stop offset="0.539225339889526" stop-color="#8f9e8f"/>
   <stop offset="0.772247076034546" stop-color="#c7d4c7"/>
   <stop offset="1" stop-color="#6f7f6f"/>
  </linearGradient>
  <linearGradient id="LinearGradient_11" gradientUnits="userSpaceOnUse" x1="0" y1="0" x2="2.25" y2="0" gradientTransform="translate(27.326 8.998) rotate(90)">
   <stop offset="0" stop-color="#ffffff"/>
   <stop offset="1" stop-color="#000000"/>
  </linearGradient>
  <linearGradient id="LinearGradient_12" gradientUnits="userSpaceOnUse" x1="0" y1="0" x2="1.5" y2="0" gradientTransform="translate(35.172 15.001) rotate(-90)">
   <stop offset="0" stop-color="#ffffff"/>
   <stop offset="1" stop-color="#000000"/>
  </linearGradient>
  <linearGradient id="LinearGradient_13" gradientUnits="userSpaceOnUse" x1="0" y1="0" x2="1.5" y2="0" gradientTransform="translate(35.171 11.25) rotate(-90)">
   <stop offset="0" stop-color="#ffffff"/>
   <stop offset="1" stop-color="#000000"/>
  </linearGradient>
  <linearGradient id="LinearGradient_14" gradientUnits="userSpaceOnUse" x1="0" y1="0" x2="2.25" y2="0" gradientTransform="translate(27.326 5.25) rotate(90)">
   <stop offset="0" stop-color="#ffffff"/>
   <stop offset="1" stop-color="#000000"/>
  </linearGradient>
  <radialGradient id="RadialGradient_5" gradientUnits="userSpaceOnUse" cx="0" cy="0" r="5.999" gradientTransform="translate(16.501 40.124) scale(1 3.56309)">
   <stop offset="0" stop-color="#ffffff"/>
   <stop offset="1" stop-color="#000000"/>
  </radialGradient>
  <radialGradient id="RadialGradient_6" gradientUnits="userSpaceOnUse" cx="0" cy="0" r="5.999" gradientTransform="translate(16.501 40.124) scale(1 3.56309)">
   <stop offset="0" stop-color="#ffffff"/>
   <stop offset="1" stop-color="#000000"/>
  </radialGradient>
 </defs>
 <g id="Document" fill="none" stroke="black" font-family="Times New Roman" font-size="16" transform="scale(1 -1)">
  <g id="Spread" transform="translate(0 -81.75)">
   <g id="Layer 1">
    <path d="M 2.247,14.25 L 2.247,67.501 L 62.246,67.501 L 62.246,14.25 L 2.247,14.25 Z" stroke-linejoin="miter" stroke="none" marker-start="none" marker-end="none" fill="url(#LinearGradient)"/>
    <mask id="TranspMask_1">
     <rect x="-10%" y="-10%" width="120%" height="120%" fill="url(#RadialGradient_1)" stroke="none"/>
    </mask>
    <g id="Group" stroke-linejoin="miter" stroke="none" fill="#ffffff" mask="url(#TranspMask_1)">
     <mask id="TranspMask">
      <rect x="-10%" y="-10%" width="120%" height="120%" fill="url(#RadialGradient)" stroke="none"/>
     </mask>
     <path d="M 51.001,68.249 C 54.312,68.249 57,58.673 57,46.874 C 57,35.075 54.312,25.499 51.001,25.499 C 47.69,25.499 45.002,35.075 45.002,46.874 C 45.002,58.673 47.69,68.249 51.001,68.249 Z" marker-start="none" marker-end="none" mask="url(#TranspMask)"/>
    </g>
    <mask id="TranspMask_2">
     <rect x="-10%" y="-10%" width="120%" height="120%" fill="url(#LinearGradient_1)" stroke="none"/>
    </mask>
    <path d="M 2.247,70.5 L 2.247,62.999 L 62.246,62.999 L 62.246,70.5 L 2.247,70.5 Z" stroke-linejoin="miter" stroke="none" fill="#000000" marker-start="none" marker-end="none" mask="url(#TranspMask_2)"/>
    <mask id="TranspMask_3">
     <rect x="-10%" y="-10%" width="120%" height="120%" fill="url(#LinearGradient_2)" stroke="none"/>
    </mask>
    <path d="M 2.247,70.5 L 2.247,62.999 L 62.246,62.999 L 62.246,70.5 L 2.247,70.5 Z" stroke-linejoin="miter" stroke="none" fill="#000000" marker-start="none" marker-end="none" mask="url(#TranspMask_3)"/>
    <path d="M 32.246,81.75 C 47.505,81.75 60.142,78.814 62.245,75 L 62.246,73.5 L 2.246,73.5 L 2.246,75 C 4.349,78.814 16.986,81.75 32.246,81.75 Z" stroke-linejoin="miter" stroke="none" marker-start="none" marker-end="none" fill="url(#RadialGradient_2)"/>
    <mask id="TranspMask_4">
     <rect x="-10%" y="-10%" width="120%" height="120%" fill="url(#RadialGradient_3)" stroke="none"/>
    </mask>
    <path d="M 32.246,81.75 C 47.505,81.75 60.142,78.814 62.245,75 L 62.246,73.5 L 2.246,73.5 L 2.246,75 C 4.349,78.814 16.986,81.75 32.246,81.75 Z" stroke-linejoin="miter" stroke="none" fill="#dce6dc" marker-start="none" marker-end="none" mask="url(#TranspMask_4)"/>
    <path d="M 64.495,75 L 64.495,67.499 L -0.008,67.499 L -0.008,75 L 64.495,75 Z" stroke-linejoin="miter" stroke="none" marker-start="none" marker-end="none" fill="url(#LinearGradient_3)"/>
    <mask id="TranspMask_5">
     <rect x="-10%" y="-10%" width="120%" height="120%" fill="url(#LinearGradient_4)" stroke="none"/>
    </mask>
    <path d="M -0.007,71.997 L -0.007,71.248 L 64.496,71.248 L 64.496,71.997 L -0.007,71.997 Z" stroke-linejoin="miter" stroke="none" fill="#000000" marker-start="none" marker-end="none" mask="url(#TranspMask_5)"/>
    <mask id="TranspMask_6">
     <rect x="-10%" y="-10%" width="120%" height="120%" fill="url(#LinearGradient_5)" stroke="none"/>
    </mask>
    <path d="M -0.002,75 L -0.002,74.251 L 64.495,74.251 L 64.495,75 L -0.002,75 Z" stroke-linejoin="miter" stroke="none" fill="#ffffff" marker-start="none" marker-end="none" mask="url(#TranspMask_6)"/>
    <mask id="TranspMask_7">
     <rect x="-10%" y="-10%" width="120%" height="120%" fill="url(#LinearGradient_6)" stroke="none"/>
    </mask>
    <path d="M -0.004,71.249 L -0.004,70.5 L 64.493,70.5 L 64.493,71.249 L -0.004,71.249 Z" stroke-linejoin="miter" stroke="none" fill="#ffffff" marker-start="none" marker-end="none" mask="url(#TranspMask_7)"/>
    <mask id="TranspMask_8">
     <rect x="-10%" y="-10%" width="120%" height="120%" fill="url(#LinearGradient_7)" stroke="none"/>
    </mask>
    <path d="M -0.004,68.249 L -0.004,67.5 L 64.493,67.5 L 64.493,68.249 L -0.004,68.249 Z" stroke-linejoin="miter" stroke="none" fill="#000000" marker-start="none" marker-end="none" mask="url(#TranspMask_8)"/>
    <path d="M 32.246,-0.001 C 47.505,-0.001 60.142,2.935 62.245,6.749 L 62.246,8.249 L 2.246,8.249 L 2.246,6.749 C 4.349,2.935 16.986,-0.001 32.246,-0.001 Z" stroke-linejoin="miter" stroke="none" marker-start="none" marker-end="none" fill="url(#RadialGradient_4)"/>
    <g id="Group_1" stroke-linejoin="miter" stroke="none" fill="#000000">
     <mask id="TranspMask_9">
      <rect x="-10%" y="-10%" width="120%" height="120%" fill="url(#LinearGradient_8)" stroke="none"/>
     </mask>
     <path d="M 2.246,6.747 L 2.247,8.249 L 62.246,8.249 L 62.245,6.749 C 61.279,4.997 58.091,3.43 53.448,2.249 L 11.042,2.249 C 6.4,3.43 3.213,4.996 2.246,6.747 Z" marker-start="none" marker-end="none" mask="url(#TranspMask_9)"/>
     <mask id="TranspMask_10">
      <rect x="-10%" y="-10%" width="120%" height="120%" fill="url(#LinearGradient_9)" stroke="none"/>
     </mask>
     <path d="M 2.246,6.747 L 2.247,8.249 L 62.246,8.249 L 62.245,6.749 C 61.279,4.997 58.091,3.43 53.448,2.249 L 11.042,2.249 C 6.4,3.43 3.213,4.996 2.246,6.747 Z" marker-start="none" marker-end="none" mask="url(#TranspMask_10)"/>
    </g>
    <path d="M 64.499,14.25 L 64.499,6.749 L -0.004,6.749 L -0.004,14.25 L 64.499,14.25 Z" stroke-linejoin="miter" stroke="none" marker-start="none" marker-end="none" fill="url(#LinearGradient_10)"/>
    <mask id="TranspMask_11">
     <rect x="-10%" y="-10%" width="120%" height="120%" fill="url(#LinearGradient_11)" stroke="none"/>
    </mask>
    <path d="M -0.003,11.247 L -0.003,10.498 L 64.5,10.498 L 64.5,11.247 L -0.003,11.247 Z" stroke-linejoin="miter" stroke="none" fill="#000000" marker-start="none" marker-end="none" mask="url(#TranspMask_11)"/>
    <mask id="TranspMask_12">
     <rect x="-10%" y="-10%" width="120%" height="120%" fill="url(#LinearGradient_12)" stroke="none"/>
    </mask>
    <path d="M 0.002,14.25 L 0.002,13.501 L 64.499,13.501 L 64.499,14.25 L 0.002,14.25 Z" stroke-linejoin="miter" stroke="none" fill="#ffffff" marker-start="none" marker-end="none" mask="url(#TranspMask_12)"/>
    <mask id="TranspMask_13">
     <rect x="-10%" y="-10%" width="120%" height="120%" fill="url(#LinearGradient_13)" stroke="none"/>
    </mask>
    <path d="M 0,10.499 L 0,9.75 L 64.497,9.75 L 64.497,10.499 L 0,10.499 Z" stroke-linejoin="miter" stroke="none" fill="#ffffff" marker-start="none" marker-end="none" mask="url(#TranspMask_13)"/>
    <mask id="TranspMask_14">
     <rect x="-10%" y="-10%" width="120%" height="120%" fill="url(#LinearGradient_14)" stroke="none"/>
    </mask>
    <path d="M 0,7.499 L 0,6.75 L 64.497,6.75 L 64.497,7.499 L 0,7.499 Z" stroke-linejoin="miter" stroke="none" fill="#000000" marker-start="none" marker-end="none" mask="url(#TranspMask_14)"/>
    <mask id="TranspMask_16">
     <rect x="-10%" y="-10%" width="120%" height="120%" fill="url(#RadialGradient_6)" stroke="none"/>
    </mask>
    <g id="Group_2" stroke-linejoin="miter" stroke="none" fill="#ffffff" mask="url(#TranspMask_16)">
     <mask id="TranspMask_15">
      <rect x="-10%" y="-10%" width="120%" height="120%" fill="url(#RadialGradient_5)" stroke="none"/>
     </mask>
     <path d="M 16.501,61.499 C 19.812,61.499 22.5,51.923 22.5,40.124 C 22.5,28.325 19.812,18.749 16.501,18.749 C 13.19,18.749 10.502,28.325 10.502,40.124 C 10.502,51.923 13.19,61.499 16.501,61.499 Z" marker-start="none" marker-end="none" mask="url(#TranspMask_15)"/>
    </g>
   </g>
  </g>
 </g>
</svg>
