<?xml version="1.0" standalone="no"?>
<!DOCTYPE svg PUBLIC "-//W3C//DTD SVG 1.1//EN" "http://www.w3.org/Graphics/SVG/1.1/DTD/svg11.dtd">
<!--Generator: Xara Xtreme (www.xara.com), SVG filter version: 1.0.0.13-->
<svg stroke-width="0.501" stroke-linejoin="bevel" fill-rule="evenodd" xmlns:xlink="http://www.w3.org/1999/xlink" xmlns="http://www.w3.org/2000/svg" version="1.1" overflow="visible" width="73.5pt" height="88.5pt" viewBox="0 0 73.5 88.5">
 <defs>
  <marker id="DefaultArrow2" markerUnits="strokeWidth" viewBox="0 0 1 1" markerWidth="1" markerHeight="1" overflow="visible" orient="auto">
   <!-- REF_ARROW_STRAIGHT (-2) -->
   <g transform="scale(0.0092592592)">
    <!-- 1/108 -->
    <path d="M -9 54 L -9 -54 L 117 0 z"/>
   </g>
  </marker>
  <marker id="DefaultArrow3" markerUnits="strokeWidth" viewBox="0 0 1 1" markerWidth="1" markerHeight="1" overflow="visible" orient="auto">
   <!-- REF_ARROW_ANGLED -->
   <g transform="scale(0.0092592592)">
    <path d="M -27 54 L -9 0 L -27 -54 L 135 0 z"/>
   </g>
  </marker>
  <marker id="DefaultArrow4" markerUnits="strokeWidth" viewBox="0 0 1 1" markerWidth="1" markerHeight="1" overflow="visible" orient="auto">
   <!-- REF_ARROW_ROUNDED -->
   <g transform="scale(0.0092592592)">
    <path d="M -9,0 L -9,-45 C -9,-51.708 2.808,-56.580 9,-54 L 117,-9 C 120.916,-7.369 126.000,-4.242 126,0 C 126,4.242 120.916,7.369 117,9 L 9,54 C 2.808,56.580 -9,51.708 -9,45 z"/>
   </g>
  </marker>
  <marker id="DefaultArrow5" markerUnits="strokeWidth" viewBox="0 0 1 1" markerWidth="1" markerHeight="1" overflow="visible" orient="auto">
   <!-- REF_ARROW_SPOT -->
   <g transform="scale(0.0092592592)">
    <path d="M -54, 0 C -54,29.807 -29.807,54 0,54 C 29.807,54 54,29.807 54,0 C 54,-29.807 29.807,-54 0,-54 C -29.807,-54 -54,-29.807 -54,0 z"/>
   </g>
  </marker>
  <marker id="DefaultArrow6" markerUnits="strokeWidth" viewBox="0 0 1 1" markerWidth="1" markerHeight="1" overflow="visible" orient="auto">
   <!-- REF_ARROW_DIAMOND -->
   <g transform="scale(0.0092592592)">
    <path d="M -63,0 L 0,63 L 63,0 L 0,-63 z"/>
   </g>
  </marker>
  <marker id="DefaultArrow7" markerUnits="strokeWidth" viewBox="0 0 1 1" markerWidth="1" markerHeight="1" overflow="visible" orient="auto">
   <!-- REF_ARROW_FEATHER -->
   <g transform="scale(0.0092592592)">
    <path d="M 18,-54 L 108,-54 L 63,0 L 108,54 L 18, 54 L -36,0 z"/>
   </g>
  </marker>
  <marker id="DefaultArrow8" markerUnits="strokeWidth" viewBox="0 0 1 1" markerWidth="1" markerHeight="1" overflow="visible" orient="auto">
   <!-- REF_ARROW_FEATHER2 -->
   <g transform="scale(0.0092592592)">
    <path d="M -36,0 L 18,-54 L 54,-54 L 18,-18 L 27,-18 L 63,-54 L 99,-54 L 63,-18 L 72,-18 L 108,-54 L 144,-54 L 90,0 L 144,54 L 108,54 L 72,18 L 63,18 L 99,54 L 63,54 L 27,18 L 18,18 L 54,54 L 18,54 z"/>
   </g>
  </marker>
  <marker id="DefaultArrow9" markerUnits="strokeWidth" viewBox="0 0 1 1" markerWidth="1" markerHeight="1" overflow="visible" orient="auto">
   <!-- REF_ARROW_HOLLOWDIAMOND -->
   <g transform="scale(0.0092592592)">
    <path d="M 0,45 L -45,0 L 0, -45 L 45, 0 z M 0, 63 L-63, 0 L 0, -63 L 63, 0 z"/>
   </g>
  </marker>
  <filter id="StainedFilter">
   <feBlend mode="multiply" in2="BackgroundImage" in="SourceGraphic" result="blend"/>
   <feComposite in="blend" in2="SourceAlpha" operator="in" result="comp"/>
  </filter>
  <filter id="BleachFilter">
   <feBlend mode="screen" in2="BackgroundImage" in="SourceGraphic" result="blend"/>
   <feComposite in="blend" in2="SourceAlpha" operator="in" result="comp"/>
  </filter>
  <filter id="InvertTransparencyBitmapFilter">
   <feComponentTransfer>
    <feFuncR type="gamma" amplitude="1.055" exponent=".416666666" offset="-0.055"/>
    <feFuncG type="gamma" amplitude="1.055" exponent=".416666666" offset="-0.055"/>
    <feFuncB type="gamma" amplitude="1.055" exponent=".416666666" offset="-0.055"/>
   </feComponentTransfer>
   <feComponentTransfer>
    <feFuncR type="linear" slope="-1" intercept="1"/>
    <feFuncG type="linear" slope="-1" intercept="1"/>
    <feFuncB type="linear" slope="-1" intercept="1"/>
    <feFuncA type="linear" slope="1" intercept="0"/>
   </feComponentTransfer>
   <feComponentTransfer>
    <feFuncR type="gamma" amplitude="1" exponent="2.4" offset="0"/>
    <feFuncG type="gamma" amplitude="1" exponent="2.4" offset="0"/>
    <feFuncB type="gamma" amplitude="1" exponent="2.4" offset="0"/>
   </feComponentTransfer>
  </filter>
  <linearGradient id="LinearGradient" gradientUnits="userSpaceOnUse" x1="0" y1="0" x2="14.268" y2="0" gradientTransform="translate(43.887 8.377) rotate(180)">
   <stop offset="0" stop-color="#6f7f6f"/>
   <stop offset="0.157716974616051" stop-color="#d8e1d8"/>
   <stop offset="0.539225339889526" stop-color="#8f9e8f"/>
   <stop offset="0.772247076034546" stop-color="#c7d4c7"/>
   <stop offset="1" stop-color="#6f7f6f"/>
  </linearGradient>
  <linearGradient id="LinearGradient_1" gradientUnits="userSpaceOnUse" x1="0" y1="0" x2="0" y2="-27.009" gradientTransform="translate(37.503 36.759)">
   <stop offset="0" stop-color="#ffffff"/>
   <stop offset="1" stop-color="#000000"/>
  </linearGradient>
  <radialGradient id="RadialGradient" gradientUnits="userSpaceOnUse" cx="36.753" cy="64.5" r="42.756">
   <stop offset="0" stop-color="#e4ede4"/>
   <stop offset="0.41397699713707" stop-color="#a9b6aa"/>
   <stop offset="1" stop-color="#6f7f6f"/>
  </radialGradient>
  <linearGradient id="LinearGradient_2" gradientUnits="userSpaceOnUse" x1="0" y1="0" x2="14.268" y2="0" gradientTransform="translate(20.637 40.435) rotate(180)">
   <stop offset="0" stop-color="#6f7f6f"/>
   <stop offset="0.157716974616051" stop-color="#d8e1d8"/>
   <stop offset="0.539225339889526" stop-color="#8f9e8f"/>
   <stop offset="0.772247076034546" stop-color="#c7d4c7"/>
   <stop offset="1" stop-color="#6f7f6f"/>
  </linearGradient>
  <linearGradient id="LinearGradient_3" gradientUnits="userSpaceOnUse" x1="0" y1="0" x2="14.268" y2="0" gradientTransform="translate(67.133 40.435) rotate(180)">
   <stop offset="0" stop-color="#6f7f6f"/>
   <stop offset="0.157716974616051" stop-color="#d8e1d8"/>
   <stop offset="0.539225339889526" stop-color="#8f9e8f"/>
   <stop offset="0.772247076034546" stop-color="#c7d4c7"/>
   <stop offset="1" stop-color="#6f7f6f"/>
  </linearGradient>
  <linearGradient id="LinearGradient_4" gradientUnits="userSpaceOnUse" x1="0" y1="0" x2="0" y2="88.511" gradientTransform="translate(39.003 -36.011)">
   <stop offset="0" stop-color="#ffffff"/>
   <stop offset="1" stop-color="#000000"/>
  </linearGradient>
  <linearGradient id="LinearGradient_5" gradientUnits="userSpaceOnUse" x1="0" y1="0" x2="14.268" y2="0" gradientTransform="translate(20.637 19.435) rotate(180)">
   <stop offset="0" stop-color="#6f7f6f"/>
   <stop offset="0.157716974616051" stop-color="#d8e1d8"/>
   <stop offset="0.539225339889526" stop-color="#8f9e8f"/>
   <stop offset="0.772247076034546" stop-color="#c7d4c7"/>
   <stop offset="1" stop-color="#6f7f6f"/>
  </linearGradient>
  <linearGradient id="LinearGradient_6" gradientUnits="userSpaceOnUse" x1="0" y1="0" x2="14.268" y2="0" gradientTransform="translate(67.133 19.435) rotate(180)">
   <stop offset="0" stop-color="#6f7f6f"/>
   <stop offset="0.157716974616051" stop-color="#d8e1d8"/>
   <stop offset="0.539225339889526" stop-color="#8f9e8f"/>
   <stop offset="0.772247076034546" stop-color="#c7d4c7"/>
   <stop offset="1" stop-color="#6f7f6f"/>
  </linearGradient>
  <linearGradient id="LinearGradient_7" gradientUnits="userSpaceOnUse" x1="0" y1="0" x2="28.542" y2="0" gradientTransform="translate(51.022 86.84) rotate(180)">
   <stop offset="0" stop-color="#6f7f6f"/>
   <stop offset="0.157716974616051" stop-color="#d8e1d8"/>
   <stop offset="0.539225339889526" stop-color="#8f9e8f"/>
   <stop offset="0.772247076034546" stop-color="#c7d4c7"/>
   <stop offset="1" stop-color="#6f7f6f"/>
  </linearGradient>
  <linearGradient id="LinearGradient_8" gradientUnits="userSpaceOnUse" x1="0" y1="0" x2="1.5" y2="0" gradientTransform="translate(38.111 89.253) rotate(-90)">
   <stop offset="0" stop-color="#ffffff"/>
   <stop offset="1" stop-color="#000000"/>
  </linearGradient>
  <linearGradient id="LinearGradient_9" gradientUnits="userSpaceOnUse" x1="0" y1="0" x2="2.25" y2="0" gradientTransform="translate(34.461 84.002) rotate(90)">
   <stop offset="0" stop-color="#ffffff"/>
   <stop offset="1" stop-color="#000000"/>
  </linearGradient>
  <radialGradient id="RadialGradient_1" gradientUnits="userSpaceOnUse" cx="0" cy="0" r="7.826" gradientTransform="translate(54.754 42) rotate(-35.536) scale(1 1.64873)">
   <stop offset="0" stop-color="#ffffff"/>
   <stop offset="1" stop-color="#000000"/>
  </radialGradient>
  <radialGradient id="RadialGradient_2" gradientUnits="userSpaceOnUse" cx="0" cy="0" r="4.63" gradientTransform="translate(16.897 40.812) rotate(34.7437) scale(1 3.56285)">
   <stop offset="0" stop-color="#ffffff"/>
   <stop offset="1" stop-color="#000000"/>
  </radialGradient>
  <radialGradient id="RadialGradient_3" gradientUnits="userSpaceOnUse" cx="0" cy="0" r="4.63" gradientTransform="translate(16.897 40.812) rotate(34.7437) scale(1 3.56285)">
   <stop offset="0" stop-color="#ffffff"/>
   <stop offset="1" stop-color="#000000"/>
  </radialGradient>
  <radialGradient id="RadialGradient_4" gradientUnits="userSpaceOnUse" cx="0" cy="0" r="5.606" gradientTransform="translate(57.45 71.41) rotate(39.608) scale(1 2.06243)">
   <stop offset="0" stop-color="#ffffff"/>
   <stop offset="1" stop-color="#000000"/>
  </radialGradient>
  <radialGradient id="RadialGradient_5" gradientUnits="userSpaceOnUse" cx="0" cy="0" r="5.606" gradientTransform="translate(57.45 71.41) rotate(39.608) scale(1 2.06243)">
   <stop offset="0" stop-color="#ffffff"/>
   <stop offset="1" stop-color="#000000"/>
  </radialGradient>
  <radialGradient id="RadialGradient_6" gradientUnits="userSpaceOnUse" cx="0" cy="0" r="2.25" gradientTransform="translate(9.753 19.875) scale(1 7.16667)">
   <stop offset="0" stop-color="#ffffff"/>
   <stop offset="1" stop-color="#000000"/>
  </radialGradient>
  <radialGradient id="RadialGradient_7" gradientUnits="userSpaceOnUse" cx="0" cy="0" r="2.25" gradientTransform="translate(9.753 19.875) scale(1 7.16667)">
   <stop offset="0" stop-color="#ffffff"/>
   <stop offset="1" stop-color="#000000"/>
  </radialGradient>
  <radialGradient id="RadialGradient_8" gradientUnits="userSpaceOnUse" cx="0" cy="0" r="2.25" gradientTransform="translate(56.253 15.375) scale(1 5.16667)">
   <stop offset="0" stop-color="#ffffff"/>
   <stop offset="1" stop-color="#000000"/>
  </radialGradient>
  <radialGradient id="RadialGradient_9" gradientUnits="userSpaceOnUse" cx="0" cy="0" r="2.25" gradientTransform="translate(56.253 15.375) scale(1 5.16667)">
   <stop offset="0" stop-color="#ffffff"/>
   <stop offset="1" stop-color="#000000"/>
  </radialGradient>
  <linearGradient id="LinearGradient_10" gradientUnits="userSpaceOnUse" x1="0" y1="0" x2="-21" y2="-12" gradientTransform="translate(21.753 56.25)">
   <stop offset="0" stop-color="#ffffff"/>
   <stop offset="1" stop-color="#000000"/>
  </linearGradient>
  <linearGradient id="LinearGradient_11" gradientUnits="userSpaceOnUse" x1="0" y1="0" x2="24.186" y2="0" gradientTransform="translate(51.747 56.25) rotate(-29.7449)">
   <stop offset="0" stop-color="#ffffff"/>
   <stop offset="1" stop-color="#000000"/>
  </linearGradient>
  <linearGradient id="LinearGradient_12" gradientUnits="userSpaceOnUse" x1="0" y1="0" x2="2.25" y2="0" gradientTransform="translate(12.358 -1.5) rotate(90)">
   <stop offset="0" stop-color="#ffffff"/>
   <stop offset="1" stop-color="#000000"/>
  </linearGradient>
  <linearGradient id="LinearGradient_13" gradientUnits="userSpaceOnUse" x1="0" y1="0" x2="2.25" y2="0" gradientTransform="translate(35.608 -1.499) rotate(90)">
   <stop offset="0" stop-color="#ffffff"/>
   <stop offset="1" stop-color="#000000"/>
  </linearGradient>
  <linearGradient id="LinearGradient_14" gradientUnits="userSpaceOnUse" x1="0" y1="0" x2="2.25" y2="0" gradientTransform="translate(58.858 -1.5) rotate(90)">
   <stop offset="0" stop-color="#ffffff"/>
   <stop offset="1" stop-color="#000000"/>
  </linearGradient>
  <linearGradient id="LinearGradient_15" gradientUnits="userSpaceOnUse" x1="0" y1="0" x2="28.542" y2="0" gradientTransform="translate(51.028 84.16) rotate(180)">
   <stop offset="0" stop-color="#6f7f6f"/>
   <stop offset="0.157716974616051" stop-color="#d8e1d8"/>
   <stop offset="0.539225339889526" stop-color="#8f9e8f"/>
   <stop offset="0.772247076034546" stop-color="#c7d4c7"/>
   <stop offset="1" stop-color="#6f7f6f"/>
  </linearGradient>
  <linearGradient id="LinearGradient_16" gradientUnits="userSpaceOnUse" x1="0" y1="0" x2="1.5" y2="0" gradientTransform="translate(38.117 81.747) rotate(90)">
   <stop offset="0" stop-color="#ffffff"/>
   <stop offset="1" stop-color="#000000"/>
  </linearGradient>
  <linearGradient id="LinearGradient_17" gradientUnits="userSpaceOnUse" x1="0" y1="0" x2="2.25" y2="0" gradientTransform="translate(34.467 86.998) rotate(-90)">
   <stop offset="0" stop-color="#ffffff"/>
   <stop offset="1" stop-color="#000000"/>
  </linearGradient>
 </defs>
 <g id="Document" fill="none" stroke="black" font-family="Times New Roman" font-size="16" transform="scale(1 -1)">
  <g id="Spread" transform="translate(0 -88.5)">
   <g id="Layer 1">
    <path d="M 29.253,0 L 29.253,18.75 L 44.253,18.75 L 44.253,0 L 29.253,0 Z" stroke-linejoin="miter" stroke="none" marker-start="none" marker-end="none" fill="url(#LinearGradient)"/>
    <mask id="TranspMask">
     <rect x="-10%" y="-10%" width="120%" height="120%" fill="url(#LinearGradient_1)" stroke="none"/>
    </mask>
    <path d="M 29.253,0 L 29.253,18.75 L 44.253,18.75 L 44.253,0 L 29.253,0 Z" stroke-linejoin="miter" stroke="none" fill="#000000" marker-start="none" marker-end="none" mask="url(#TranspMask)"/>
    <path d="M 0,51.75 C 0,66.865 8.701,79.859 21.753,85.5 L 51.753,85.5 C 64.805,79.859 73.5,66.865 73.5,51.75 C 73.5,31.465 57.036,15.001 36.75,15.001 C 16.464,15.001 0,31.465 0,51.75 Z" stroke-linejoin="miter" stroke="none" marker-start="none" marker-end="none" fill="url(#RadialGradient)"/>
    <mask id="TranspMask_1">
     <rect x="-10%" y="-10%" width="120%" height="120%" fill="url(#LinearGradient_4)" stroke="none"/>
    </mask>
    <g id="Group" stroke-linejoin="miter" stroke="none" mask="url(#TranspMask_1)">
     <path d="M 6.003,21 L 6.003,62.25 C 6.003,63.384 6.26,64.5 6.753,64.5 L 19.503,59.25 C 20.275,58.058 21.003,57.235 21.003,55.5 L 21.003,21 L 6.003,21 Z" marker-start="none" marker-end="none" fill="url(#LinearGradient_2)"/>
     <path d="M 67.499,21 L 67.499,62.25 C 67.499,63.384 67.242,64.5 66.749,64.5 L 53.999,59.25 C 53.227,58.058 52.499,57.235 52.499,55.5 L 52.499,21 L 67.499,21 Z" marker-start="none" marker-end="none" fill="url(#LinearGradient_3)"/>
    </g>
    <path d="M 21.753,21 C 21.753,18 17.398,22.486 15.753,24 C 10.8,28.557 5.253,34.5 5.253,41.25 C 5.253,41.949 5.343,44.25 6.753,44.25 C 7.691,44.25 8.681,42.95 9.165,42.301 C 9.869,41.357 10.604,40.196 11.126,39.416 L 20.129,25.911 C 20.942,24.656 21.753,22.938 21.753,21 Z" stroke-linejoin="miter" stroke="none" stroke-opacity="0.082353" fill="#000000" marker-start="none" marker-end="none" fill-opacity="0.082353"/>
    <path d="M 6.003,0 L 6.003,41.25 C 6.003,42.384 6.26,43.5 6.753,43.5 C 7.661,43.5 9.425,40.609 10.503,39 L 19.503,25.5 C 20.275,24.308 21.003,22.735 21.003,21 L 21.003,0 L 6.003,0 Z" stroke-linejoin="miter" stroke="none" marker-start="none" marker-end="none" fill="url(#LinearGradient_5)"/>
    <path d="M 51.747,21 C 51.747,18 56.102,22.486 57.747,24 C 62.7,28.557 68.247,34.5 68.247,41.25 C 68.247,41.949 68.157,44.25 66.747,44.25 C 65.809,44.25 64.819,42.95 64.335,42.301 C 63.631,41.357 62.896,40.196 62.374,39.416 L 53.371,25.911 C 52.558,24.656 51.747,22.938 51.747,21 Z" stroke-linejoin="miter" stroke="none" stroke-opacity="0.082353" fill="#000000" marker-start="none" marker-end="none" fill-opacity="0.082353"/>
    <path d="M 67.499,0 L 67.499,41.25 C 67.499,42.384 67.242,43.5 66.749,43.5 C 65.841,43.5 64.077,40.609 62.999,39 L 53.999,25.5 C 53.227,24.308 52.499,22.735 52.499,21 L 52.499,0 L 67.499,0 Z" stroke-linejoin="miter" stroke="none" marker-start="none" marker-end="none" fill="url(#LinearGradient_6)"/>
    <path d="M 51.754,88.499 L 51.754,85.5 L 21.747,85.5 L 21.747,88.499 L 51.754,88.499 Z" stroke-linejoin="miter" stroke="none" marker-start="none" marker-end="none" fill="url(#LinearGradient_7)"/>
    <mask id="TranspMask_2">
     <rect x="-10%" y="-10%" width="120%" height="120%" fill="url(#LinearGradient_8)" stroke="none"/>
    </mask>
    <path d="M 21.75,88.502 L 21.75,87.753 L 51.754,87.753 L 51.754,88.502 L 21.75,88.502 Z" stroke-linejoin="miter" stroke="none" fill="#ffffff" marker-start="none" marker-end="none" mask="url(#TranspMask_2)"/>
    <mask id="TranspMask_3">
     <rect x="-10%" y="-10%" width="120%" height="120%" fill="url(#LinearGradient_9)" stroke="none"/>
    </mask>
    <path d="M 21.749,86.251 L 21.749,85.502 L 51.753,85.502 L 51.753,86.251 L 21.749,86.251 Z" stroke-linejoin="miter" stroke="none" fill="#000000" marker-start="none" marker-end="none" mask="url(#TranspMask_3)"/>
    <mask id="TranspMask_4">
     <rect x="-10%" y="-10%" width="120%" height="120%" fill="url(#RadialGradient_1)" stroke="none"/>
    </mask>
    <path d="M 44.63,27 L 28.764,27.003 C 24.48,27.003 21.003,30.48 21.003,34.763 L 21.003,64.99 C 21.003,69.273 24.48,72.75 28.764,72.75 L 44.63,72.75 C 57.257,72.75 67.506,62.502 67.506,49.875 C 67.506,37.248 57.257,27 44.63,27 Z" stroke-linejoin="miter" stroke="none" fill="#afbbaf" marker-start="none" marker-end="none" mask="url(#TranspMask_4)"/>
    <mask id="TranspMask_6">
     <rect x="-10%" y="-10%" width="120%" height="120%" fill="url(#RadialGradient_3)" stroke="none"/>
    </mask>
    <g id="Group_1" stroke-linejoin="miter" stroke="none" fill="#a7b4a7" mask="url(#TranspMask_6)">
     <mask id="TranspMask_5">
      <rect x="-10%" y="-10%" width="120%" height="120%" fill="url(#RadialGradient_2)" stroke="none"/>
     </mask>
     <path d="M 7.496,54.368 C 9.596,55.823 15.512,50.933 20.702,43.451 C 25.891,35.968 28.398,28.713 26.298,27.256 C 24.198,25.801 18.282,30.691 13.092,38.173 C 7.903,45.656 5.396,52.911 7.496,54.368 Z" marker-start="none" marker-end="none" mask="url(#TranspMask_5)"/>
    </g>
    <mask id="TranspMask_8">
     <rect x="-10%" y="-10%" width="120%" height="120%" fill="url(#RadialGradient_5)" stroke="none"/>
    </mask>
    <g id="Group_2" stroke-linejoin="miter" stroke="none" fill="#e3ece3" mask="url(#TranspMask_8)">
     <mask id="TranspMask_7">
      <rect x="-10%" y="-10%" width="120%" height="120%" fill="url(#RadialGradient_4)" stroke="none"/>
     </mask>
     <path d="M 50.067,80.308 C 52.451,82.279 57.693,79.893 61.769,74.984 C 65.844,70.072 67.216,64.485 64.833,62.512 C 62.449,60.541 57.207,62.927 53.131,67.836 C 49.056,72.748 47.684,78.335 50.067,80.308 Z" marker-start="none" marker-end="none" mask="url(#TranspMask_7)"/>
    </g>
    <mask id="TranspMask_10">
     <rect x="-10%" y="-10%" width="120%" height="120%" fill="url(#RadialGradient_7)" stroke="none"/>
    </mask>
    <g id="Group_3" stroke-linejoin="miter" stroke="none" fill="#ffffff" mask="url(#TranspMask_10)">
     <mask id="TranspMask_9">
      <rect x="-10%" y="-10%" width="120%" height="120%" fill="url(#RadialGradient_6)" stroke="none"/>
     </mask>
     <path d="M 9.753,36 C 10.995,36 12.003,28.776 12.003,19.875 C 12.003,10.974 10.995,3.75 9.753,3.75 C 8.511,3.75 7.503,10.974 7.503,19.875 C 7.503,28.776 8.511,36 9.753,36 Z" marker-start="none" marker-end="none" mask="url(#TranspMask_9)"/>
    </g>
    <mask id="TranspMask_12">
     <rect x="-10%" y="-10%" width="120%" height="120%" fill="url(#RadialGradient_9)" stroke="none"/>
    </mask>
    <g id="Group_4" stroke-linejoin="miter" stroke="none" fill="#ffffff" mask="url(#TranspMask_12)">
     <mask id="TranspMask_11">
      <rect x="-10%" y="-10%" width="120%" height="120%" fill="url(#RadialGradient_8)" stroke="none"/>
     </mask>
     <path d="M 56.253,27 C 57.495,27 58.503,21.792 58.503,15.375 C 58.503,8.958 57.495,3.75 56.253,3.75 C 55.011,3.75 54.003,8.958 54.003,15.375 C 54.003,21.792 55.011,27 56.253,27 Z" marker-start="none" marker-end="none" mask="url(#TranspMask_11)"/>
    </g>
    <mask id="TranspMask_13">
     <rect x="-10%" y="-10%" width="120%" height="120%" fill="url(#LinearGradient_10)" stroke="none"/>
    </mask>
    <path d="M 6.003,0 L 6.003,41.25 C 6.003,42.384 6.26,43.5 6.753,43.5 C 7.661,43.5 9.425,40.609 10.503,39 L 19.503,25.5 C 20.275,24.308 21.003,22.735 21.003,21 L 21.003,0 L 6.003,0 Z" stroke-linejoin="miter" stroke="none" fill="#000000" marker-start="none" marker-end="none" mask="url(#TranspMask_13)"/>
    <mask id="TranspMask_14">
     <rect x="-10%" y="-10%" width="120%" height="120%" fill="url(#LinearGradient_11)" stroke="none"/>
    </mask>
    <path d="M 67.497,0 L 67.497,41.25 C 67.497,42.384 67.24,43.5 66.747,43.5 C 65.839,43.5 64.075,40.609 62.997,39 L 53.997,25.5 C 53.225,24.308 52.497,22.735 52.497,21 L 52.497,0 L 67.497,0 Z" stroke-linejoin="miter" stroke="none" fill="#000000" marker-start="none" marker-end="none" mask="url(#TranspMask_14)"/>
    <mask id="TranspMask_15">
     <rect x="-10%" y="-10%" width="120%" height="120%" fill="url(#LinearGradient_12)" stroke="none"/>
    </mask>
    <path d="M 6.002,0.749 L 6.002,0 L 21.003,0 L 21.003,0.749 L 6.002,0.749 Z" stroke-linejoin="miter" stroke="none" fill="#000000" marker-start="none" marker-end="none" mask="url(#TranspMask_15)"/>
    <mask id="TranspMask_16">
     <rect x="-10%" y="-10%" width="120%" height="120%" fill="url(#LinearGradient_13)" stroke="none"/>
    </mask>
    <path d="M 29.252,0.75 L 29.252,0.001 L 44.253,0.001 L 44.253,0.75 L 29.252,0.75 Z" stroke-linejoin="miter" stroke="none" fill="#000000" marker-start="none" marker-end="none" mask="url(#TranspMask_16)"/>
    <mask id="TranspMask_17">
     <rect x="-10%" y="-10%" width="120%" height="120%" fill="url(#LinearGradient_14)" stroke="none"/>
    </mask>
    <path d="M 52.502,0.749 L 52.502,0 L 67.503,0 L 67.503,0.749 L 52.502,0.749 Z" stroke-linejoin="miter" stroke="none" fill="#000000" marker-start="none" marker-end="none" mask="url(#TranspMask_17)"/>
    <mask id="TranspMask_20">
     <rect x="-10%" y="-10%" width="120%" height="120%" fill="#333333" stroke="none"/>
    </mask>
    <g id="Group_5" stroke-linejoin="miter" stroke="none" mask="url(#TranspMask_20)">
     <path d="M 51.76,82.501 L 51.76,85.5 L 21.753,85.5 L 21.753,82.501 L 51.76,82.501 Z" marker-start="none" marker-end="none" fill="url(#LinearGradient_15)"/>
     <mask id="TranspMask_18">
      <rect x="-10%" y="-10%" width="120%" height="120%" fill="url(#LinearGradient_16)" stroke="none"/>
     </mask>
     <path d="M 21.756,82.498 L 21.756,83.247 L 51.76,83.247 L 51.76,82.498 L 21.756,82.498 Z" fill="#ffffff" marker-start="none" marker-end="none" mask="url(#TranspMask_18)"/>
     <mask id="TranspMask_19">
      <rect x="-10%" y="-10%" width="120%" height="120%" fill="url(#LinearGradient_17)" stroke="none"/>
     </mask>
     <path d="M 21.755,84.749 L 21.755,85.498 L 51.759,85.498 L 51.759,84.749 L 21.755,84.749 Z" fill="#000000" marker-start="none" marker-end="none" mask="url(#TranspMask_19)"/>
    </g>
   </g>
  </g>
 </g>
</svg>
