<?xml version="1.0" standalone="no"?>
<!DOCTYPE svg PUBLIC "-//W3C//DTD SVG 1.1//EN" "http://www.w3.org/Graphics/SVG/1.1/DTD/svg11.dtd">
<!--Generator: Xara Xtreme (www.xara.com), SVG filter version: 1.0.0.13-->
<svg stroke-width="0.501" stroke-linejoin="bevel" fill-rule="evenodd" xmlns:xlink="http://www.w3.org/1999/xlink" xmlns="http://www.w3.org/2000/svg" version="1.1" overflow="visible" width="69.75pt" height="70.5pt" viewBox="0 0 69.75 70.5">
 <defs>
  <marker id="DefaultArrow2" markerUnits="strokeWidth" viewBox="0 0 1 1" markerWidth="1" markerHeight="1" overflow="visible" orient="auto">
   <!-- REF_ARROW_STRAIGHT (-2) -->
   <g transform="scale(0.0092592592)">
    <!-- 1/108 -->
    <path d="M -9 54 L -9 -54 L 117 0 z"/>
   </g>
  </marker>
  <marker id="DefaultArrow3" markerUnits="strokeWidth" viewBox="0 0 1 1" markerWidth="1" markerHeight="1" overflow="visible" orient="auto">
   <!-- REF_ARROW_ANGLED -->
   <g transform="scale(0.0092592592)">
    <path d="M -27 54 L -9 0 L -27 -54 L 135 0 z"/>
   </g>
  </marker>
  <marker id="DefaultArrow4" markerUnits="strokeWidth" viewBox="0 0 1 1" markerWidth="1" markerHeight="1" overflow="visible" orient="auto">
   <!-- REF_ARROW_ROUNDED -->
   <g transform="scale(0.0092592592)">
    <path d="M -9,0 L -9,-45 C -9,-51.708 2.808,-56.580 9,-54 L 117,-9 C 120.916,-7.369 126.000,-4.242 126,0 C 126,4.242 120.916,7.369 117,9 L 9,54 C 2.808,56.580 -9,51.708 -9,45 z"/>
   </g>
  </marker>
  <marker id="DefaultArrow5" markerUnits="strokeWidth" viewBox="0 0 1 1" markerWidth="1" markerHeight="1" overflow="visible" orient="auto">
   <!-- REF_ARROW_SPOT -->
   <g transform="scale(0.0092592592)">
    <path d="M -54, 0 C -54,29.807 -29.807,54 0,54 C 29.807,54 54,29.807 54,0 C 54,-29.807 29.807,-54 0,-54 C -29.807,-54 -54,-29.807 -54,0 z"/>
   </g>
  </marker>
  <marker id="DefaultArrow6" markerUnits="strokeWidth" viewBox="0 0 1 1" markerWidth="1" markerHeight="1" overflow="visible" orient="auto">
   <!-- REF_ARROW_DIAMOND -->
   <g transform="scale(0.0092592592)">
    <path d="M -63,0 L 0,63 L 63,0 L 0,-63 z"/>
   </g>
  </marker>
  <marker id="DefaultArrow7" markerUnits="strokeWidth" viewBox="0 0 1 1" markerWidth="1" markerHeight="1" overflow="visible" orient="auto">
   <!-- REF_ARROW_FEATHER -->
   <g transform="scale(0.0092592592)">
    <path d="M 18,-54 L 108,-54 L 63,0 L 108,54 L 18, 54 L -36,0 z"/>
   </g>
  </marker>
  <marker id="DefaultArrow8" markerUnits="strokeWidth" viewBox="0 0 1 1" markerWidth="1" markerHeight="1" overflow="visible" orient="auto">
   <!-- REF_ARROW_FEATHER2 -->
   <g transform="scale(0.0092592592)">
    <path d="M -36,0 L 18,-54 L 54,-54 L 18,-18 L 27,-18 L 63,-54 L 99,-54 L 63,-18 L 72,-18 L 108,-54 L 144,-54 L 90,0 L 144,54 L 108,54 L 72,18 L 63,18 L 99,54 L 63,54 L 27,18 L 18,18 L 54,54 L 18,54 z"/>
   </g>
  </marker>
  <marker id="DefaultArrow9" markerUnits="strokeWidth" viewBox="0 0 1 1" markerWidth="1" markerHeight="1" overflow="visible" orient="auto">
   <!-- REF_ARROW_HOLLOWDIAMOND -->
   <g transform="scale(0.0092592592)">
    <path d="M 0,45 L -45,0 L 0, -45 L 45, 0 z M 0, 63 L-63, 0 L 0, -63 L 63, 0 z"/>
   </g>
  </marker>
  <filter id="StainedFilter">
   <feBlend mode="multiply" in2="BackgroundImage" in="SourceGraphic" result="blend"/>
   <feComposite in="blend" in2="SourceAlpha" operator="in" result="comp"/>
  </filter>
  <filter id="BleachFilter">
   <feBlend mode="screen" in2="BackgroundImage" in="SourceGraphic" result="blend"/>
   <feComposite in="blend" in2="SourceAlpha" operator="in" result="comp"/>
  </filter>
  <filter id="InvertTransparencyBitmapFilter">
   <feComponentTransfer>
    <feFuncR type="gamma" amplitude="1.055" exponent=".416666666" offset="-0.055"/>
    <feFuncG type="gamma" amplitude="1.055" exponent=".416666666" offset="-0.055"/>
    <feFuncB type="gamma" amplitude="1.055" exponent=".416666666" offset="-0.055"/>
   </feComponentTransfer>
   <feComponentTransfer>
    <feFuncR type="linear" slope="-1" intercept="1"/>
    <feFuncG type="linear" slope="-1" intercept="1"/>
    <feFuncB type="linear" slope="-1" intercept="1"/>
    <feFuncA type="linear" slope="1" intercept="0"/>
   </feComponentTransfer>
   <feComponentTransfer>
    <feFuncR type="gamma" amplitude="1" exponent="2.4" offset="0"/>
    <feFuncG type="gamma" amplitude="1" exponent="2.4" offset="0"/>
    <feFuncB type="gamma" amplitude="1" exponent="2.4" offset="0"/>
   </feComponentTransfer>
  </filter>
  <linearGradient id="LinearGradient" gradientUnits="userSpaceOnUse" x1="0" y1="0" x2="20.799" y2="0" gradientTransform="translate(38.557 29.903) rotate(-90)">
   <stop offset="0" stop-color="#6f7f6f"/>
   <stop offset="0.230769231915474" stop-color="#c7d4c7"/>
   <stop offset="0.800000011920929" stop-color="#aab7aa"/>
   <stop offset="1" stop-color="#6f7f6f"/>
  </linearGradient>
  <linearGradient id="LinearGradient_1" gradientUnits="userSpaceOnUse" x1="0" y1="0" x2="0.816" y2="0" gradientTransform="translate(11.83 29.603) rotate(90)">
   <stop offset="0" stop-color="#666666"/>
   <stop offset="1" stop-color="#7f7f7f"/>
  </linearGradient>
  <linearGradient id="LinearGradient_2" gradientUnits="userSpaceOnUse" x1="0" y1="0" x2="0.816" y2="0" gradientTransform="translate(11.83 16.853) rotate(90)">
   <stop offset="0" stop-color="#666666"/>
   <stop offset="1" stop-color="#7f7f7f"/>
  </linearGradient>
  <linearGradient id="LinearGradient_3" gradientUnits="userSpaceOnUse" x1="0" y1="0" x2="0.816" y2="0" gradientTransform="translate(68.08 29.603) rotate(90)">
   <stop offset="0" stop-color="#666666"/>
   <stop offset="1" stop-color="#7f7f7f"/>
  </linearGradient>
  <linearGradient id="LinearGradient_4" gradientUnits="userSpaceOnUse" x1="0" y1="0" x2="0.816" y2="0" gradientTransform="translate(68.08 16.853) rotate(90)">
   <stop offset="0" stop-color="#666666"/>
   <stop offset="1" stop-color="#7f7f7f"/>
  </linearGradient>
  <linearGradient id="LinearGradient_5" gradientUnits="userSpaceOnUse" x1="0" y1="0" x2="37.811" y2="0" gradientTransform="translate(53.781 15.78) rotate(180)">
   <stop offset="0" stop-color="#6f7f6f"/>
   <stop offset="0.157716974616051" stop-color="#d8e1d8"/>
   <stop offset="0.539225339889526" stop-color="#8f9e8f"/>
   <stop offset="0.772247076034546" stop-color="#c7d4c7"/>
   <stop offset="1" stop-color="#6f7f6f"/>
  </linearGradient>
  <linearGradient id="LinearGradient_6" gradientUnits="userSpaceOnUse" x1="0" y1="0" x2="22.116" y2="0" gradientTransform="translate(45.933 24.702) rotate(180)">
   <stop offset="0" stop-color="#6f7f6f"/>
   <stop offset="0.157716974616051" stop-color="#d8e1d8"/>
   <stop offset="0.539225339889526" stop-color="#8f9e8f"/>
   <stop offset="0.772247076034546" stop-color="#c7d4c7"/>
   <stop offset="1" stop-color="#6f7f6f"/>
  </linearGradient>
  <linearGradient id="LinearGradient_7" gradientUnits="userSpaceOnUse" x1="0" y1="0" x2="24.319" y2="0" gradientTransform="translate(37.498 40.761) rotate(-90)">
   <stop offset="0" stop-color="#ffffff"/>
   <stop offset="1" stop-color="#000000"/>
  </linearGradient>
  <linearGradient id="LinearGradient_8" gradientUnits="userSpaceOnUse" x1="0" y1="0" x2="22.116" y2="0" gradientTransform="translate(45.933 31.452) rotate(180)">
   <stop offset="0" stop-color="#6f7f6f"/>
   <stop offset="0.157716974616051" stop-color="#d8e1d8"/>
   <stop offset="0.539225339889526" stop-color="#8f9e8f"/>
   <stop offset="0.772247076034546" stop-color="#c7d4c7"/>
   <stop offset="1" stop-color="#6f7f6f"/>
  </linearGradient>
  <linearGradient id="LinearGradient_9" gradientUnits="userSpaceOnUse" x1="0" y1="0" x2="0.816" y2="0" gradientTransform="translate(68.08 19.853) rotate(90)">
   <stop offset="0" stop-color="#666666"/>
   <stop offset="1" stop-color="#7f7f7f"/>
  </linearGradient>
  <linearGradient id="LinearGradient_10" gradientUnits="userSpaceOnUse" x1="0" y1="0" x2="0.816" y2="0" gradientTransform="translate(68.08 33.353) rotate(90)">
   <stop offset="0" stop-color="#666666"/>
   <stop offset="1" stop-color="#7f7f7f"/>
  </linearGradient>
  <linearGradient id="LinearGradient_11" gradientUnits="userSpaceOnUse" x1="0" y1="0" x2="0.816" y2="0" gradientTransform="translate(68.08 4.856) rotate(90)">
   <stop offset="0" stop-color="#666666"/>
   <stop offset="1" stop-color="#7f7f7f"/>
  </linearGradient>
  <linearGradient id="LinearGradient_12" gradientUnits="userSpaceOnUse" x1="0" y1="0" x2="33.797" y2="0" gradientTransform="translate(63.748 36.405) rotate(-90)">
   <stop offset="0" stop-color="#6f7f6f"/>
   <stop offset="0.230769231915474" stop-color="#c7d4c7"/>
   <stop offset="0.800000011920929" stop-color="#aab7aa"/>
   <stop offset="1" stop-color="#6f7f6f"/>
  </linearGradient>
  <linearGradient id="LinearGradient_13" gradientUnits="userSpaceOnUse" x1="0" y1="0" x2="2.25" y2="0" gradientTransform="translate(56.247 33.966)">
   <stop offset="0" stop-color="#ffffff"/>
   <stop offset="1" stop-color="#000000"/>
  </linearGradient>
  <linearGradient id="LinearGradient_14" gradientUnits="userSpaceOnUse" x1="0" y1="0" x2="2.25" y2="0" gradientTransform="translate(69.752 33.965) rotate(180)">
   <stop offset="0" stop-color="#ffffff"/>
   <stop offset="1" stop-color="#000000"/>
  </linearGradient>
  <linearGradient id="LinearGradient_15" gradientUnits="userSpaceOnUse" x1="0" y1="0" x2="10.064" y2="0" gradientTransform="translate(67.5 27.676) rotate(90)">
   <stop offset="0" stop-color="#ffffff"/>
   <stop offset="1" stop-color="#000000"/>
  </linearGradient>
  <linearGradient id="LinearGradient_16" gradientUnits="userSpaceOnUse" x1="0" y1="0" x2="28.934" y2="0" gradientTransform="translate(67.5 30.192) rotate(-90)">
   <stop offset="0" stop-color="#ffffff"/>
   <stop offset="1" stop-color="#000000"/>
  </linearGradient>
  <linearGradient id="LinearGradient_17" gradientUnits="userSpaceOnUse" x1="0" y1="0" x2="2.25" y2="0" gradientTransform="translate(61.501 22.477)">
   <stop offset="0" stop-color="#ffffff"/>
   <stop offset="1" stop-color="#000000"/>
  </linearGradient>
  <linearGradient id="LinearGradient_18" gradientUnits="userSpaceOnUse" x1="0" y1="0" x2="1.5" y2="0" gradientTransform="translate(63.753 17.733) rotate(180)">
   <stop offset="0" stop-color="#ffffff"/>
   <stop offset="1" stop-color="#000000"/>
  </linearGradient>
  <linearGradient id="LinearGradient_19" gradientUnits="userSpaceOnUse" x1="0" y1="0" x2="10.064" y2="0" gradientTransform="translate(62.25 27.676) rotate(90)">
   <stop offset="0" stop-color="#ffffff"/>
   <stop offset="1" stop-color="#000000"/>
  </linearGradient>
  <linearGradient id="LinearGradient_20" gradientUnits="userSpaceOnUse" x1="0" y1="0" x2="28.934" y2="0" gradientTransform="translate(62.25 30.192) rotate(-90)">
   <stop offset="0" stop-color="#ffffff"/>
   <stop offset="1" stop-color="#000000"/>
  </linearGradient>
  <linearGradient id="LinearGradient_21" gradientUnits="userSpaceOnUse" x1="0" y1="0" x2="0.816" y2="0" gradientTransform="translate(11.83 19.853) rotate(90)">
   <stop offset="0" stop-color="#666666"/>
   <stop offset="1" stop-color="#7f7f7f"/>
  </linearGradient>
  <linearGradient id="LinearGradient_22" gradientUnits="userSpaceOnUse" x1="0" y1="0" x2="0.816" y2="0" gradientTransform="translate(11.83 33.353) rotate(90)">
   <stop offset="0" stop-color="#666666"/>
   <stop offset="1" stop-color="#7f7f7f"/>
  </linearGradient>
  <linearGradient id="LinearGradient_23" gradientUnits="userSpaceOnUse" x1="0" y1="0" x2="0.816" y2="0" gradientTransform="translate(11.83 4.856) rotate(90)">
   <stop offset="0" stop-color="#666666"/>
   <stop offset="1" stop-color="#7f7f7f"/>
  </linearGradient>
  <linearGradient id="LinearGradient_24" gradientUnits="userSpaceOnUse" x1="0" y1="0" x2="33.797" y2="0" gradientTransform="translate(7.498 36.405) rotate(-90)">
   <stop offset="0" stop-color="#6f7f6f"/>
   <stop offset="0.230769231915474" stop-color="#c7d4c7"/>
   <stop offset="0.800000011920929" stop-color="#aab7aa"/>
   <stop offset="1" stop-color="#6f7f6f"/>
  </linearGradient>
  <linearGradient id="LinearGradient_25" gradientUnits="userSpaceOnUse" x1="0" y1="0" x2="2.25" y2="0" gradientTransform="translate(-0.003 33.966)">
   <stop offset="0" stop-color="#ffffff"/>
   <stop offset="1" stop-color="#000000"/>
  </linearGradient>
  <linearGradient id="LinearGradient_26" gradientUnits="userSpaceOnUse" x1="0" y1="0" x2="2.25" y2="0" gradientTransform="translate(13.502 33.965) rotate(180)">
   <stop offset="0" stop-color="#ffffff"/>
   <stop offset="1" stop-color="#000000"/>
  </linearGradient>
  <linearGradient id="LinearGradient_27" gradientUnits="userSpaceOnUse" x1="0" y1="0" x2="10.064" y2="0" gradientTransform="translate(11.25 27.676) rotate(90)">
   <stop offset="0" stop-color="#ffffff"/>
   <stop offset="1" stop-color="#000000"/>
  </linearGradient>
  <linearGradient id="LinearGradient_28" gradientUnits="userSpaceOnUse" x1="0" y1="0" x2="28.934" y2="0" gradientTransform="translate(11.25 30.192) rotate(-90)">
   <stop offset="0" stop-color="#ffffff"/>
   <stop offset="1" stop-color="#000000"/>
  </linearGradient>
  <linearGradient id="LinearGradient_29" gradientUnits="userSpaceOnUse" x1="0" y1="0" x2="2.25" y2="0" gradientTransform="translate(5.251 22.477)">
   <stop offset="0" stop-color="#ffffff"/>
   <stop offset="1" stop-color="#000000"/>
  </linearGradient>
  <linearGradient id="LinearGradient_30" gradientUnits="userSpaceOnUse" x1="0" y1="0" x2="1.5" y2="0" gradientTransform="translate(7.503 17.733) rotate(180)">
   <stop offset="0" stop-color="#ffffff"/>
   <stop offset="1" stop-color="#000000"/>
  </linearGradient>
  <linearGradient id="LinearGradient_31" gradientUnits="userSpaceOnUse" x1="0" y1="0" x2="10.064" y2="0" gradientTransform="translate(6 27.676) rotate(90)">
   <stop offset="0" stop-color="#ffffff"/>
   <stop offset="1" stop-color="#000000"/>
  </linearGradient>
  <linearGradient id="LinearGradient_32" gradientUnits="userSpaceOnUse" x1="0" y1="0" x2="28.934" y2="0" gradientTransform="translate(6 30.192) rotate(-90)">
   <stop offset="0" stop-color="#ffffff"/>
   <stop offset="1" stop-color="#000000"/>
  </linearGradient>
  <linearGradient id="LinearGradient_33" gradientUnits="userSpaceOnUse" x1="0" y1="0" x2="0" y2="-11.25" gradientTransform="translate(29.25 41.25)">
   <stop offset="0" stop-color="#ffffff"/>
   <stop offset="1" stop-color="#000000"/>
  </linearGradient>
  <linearGradient id="LinearGradient_34" gradientUnits="userSpaceOnUse" x1="0" y1="0" x2="0" y2="-8.25" gradientTransform="translate(29.25 40.5)">
   <stop offset="0" stop-color="#ffffff"/>
   <stop offset="1" stop-color="#000000"/>
  </linearGradient>
  <linearGradient id="LinearGradient_35" gradientUnits="userSpaceOnUse" x1="0" y1="0" x2="6.423" y2="0" gradientTransform="translate(38.086 52.976) rotate(180)">
   <stop offset="0" stop-color="#6f7f6f"/>
   <stop offset="0.157716974616051" stop-color="#d8e1d8"/>
   <stop offset="0.539225339889526" stop-color="#8f9e8f"/>
   <stop offset="0.772247076034546" stop-color="#c7d4c7"/>
   <stop offset="1" stop-color="#6f7f6f"/>
  </linearGradient>
  <linearGradient id="LinearGradient_36" gradientUnits="userSpaceOnUse" x1="0" y1="0" x2="8.25" y2="0" gradientTransform="translate(30.75 57.75)">
   <stop offset="0" stop-color="#8c9b8c"/>
   <stop offset="0.356363624334335" stop-color="#6f7f6f"/>
   <stop offset="0.636363625526428" stop-color="#c0cbc0"/>
   <stop offset="1" stop-color="#8c9b8c"/>
  </linearGradient>
  <linearGradient id="LinearGradient_37" gradientUnits="userSpaceOnUse" x1="0" y1="0" x2="0" y2="27.75" gradientTransform="translate(33 24.75)">
   <stop offset="0" stop-color="#ffffff"/>
   <stop offset="1" stop-color="#000000"/>
  </linearGradient>
  <linearGradient id="LinearGradient_38" gradientUnits="userSpaceOnUse" x1="0" y1="0" x2="0" y2="-17.328" gradientTransform="translate(35.25 72.828)">
   <stop offset="0" stop-color="#ffffff"/>
   <stop offset="1" stop-color="#000000"/>
  </linearGradient>
  <linearGradient id="LinearGradient_39" gradientUnits="userSpaceOnUse" x1="0" y1="0" x2="37.809" y2="0" gradientTransform="translate(53.78 38.441) rotate(180)">
   <stop offset="0" stop-color="#6f7f6f"/>
   <stop offset="0.157716974616051" stop-color="#d8e1d8"/>
   <stop offset="0.539225339889526" stop-color="#8f9e8f"/>
   <stop offset="0.772247076034546" stop-color="#c7d4c7"/>
   <stop offset="1" stop-color="#6f7f6f"/>
  </linearGradient>
  <linearGradient id="LinearGradient_40" gradientUnits="userSpaceOnUse" x1="0" y1="0" x2="2.25" y2="0" gradientTransform="translate(31.842 37.499) rotate(90)">
   <stop offset="0" stop-color="#ffffff"/>
   <stop offset="1" stop-color="#000000"/>
  </linearGradient>
  <linearGradient id="LinearGradient_41" gradientUnits="userSpaceOnUse" x1="0" y1="0" x2="1.5" y2="0" gradientTransform="translate(36.677 45.002) rotate(-90)">
   <stop offset="0" stop-color="#ffffff"/>
   <stop offset="1" stop-color="#000000"/>
  </linearGradient>
  <linearGradient id="LinearGradient_42" gradientUnits="userSpaceOnUse" x1="0" y1="0" x2="1.5" y2="0" gradientTransform="translate(36.676 39.751) rotate(-90)">
   <stop offset="0" stop-color="#ffffff"/>
   <stop offset="1" stop-color="#000000"/>
  </linearGradient>
  <linearGradient id="LinearGradient_43" gradientUnits="userSpaceOnUse" x1="0" y1="0" x2="2.25" y2="0" gradientTransform="translate(31.842 32.251) rotate(90)">
   <stop offset="0" stop-color="#ffffff"/>
   <stop offset="1" stop-color="#000000"/>
  </linearGradient>
  <linearGradient id="LinearGradient_44" gradientUnits="userSpaceOnUse" x1="0" y1="0" x2="53.513" y2="0" gradientTransform="translate(61.634 67.18) rotate(180)">
   <stop offset="0" stop-color="#6f7f6f"/>
   <stop offset="0.157716974616051" stop-color="#d8e1d8"/>
   <stop offset="0.539225339889526" stop-color="#8f9e8f"/>
   <stop offset="0.772247076034546" stop-color="#c7d4c7"/>
   <stop offset="1" stop-color="#6f7f6f"/>
  </linearGradient>
  <linearGradient id="LinearGradient_45" gradientUnits="userSpaceOnUse" x1="0" y1="0" x2="3.006" y2="0" gradientTransform="translate(37.077 72.007) rotate(-90)">
   <stop offset="0" stop-color="#ffffff"/>
   <stop offset="1" stop-color="#000000"/>
  </linearGradient>
  <linearGradient id="LinearGradient_46" gradientUnits="userSpaceOnUse" x1="0" y1="0" x2="4.506" y2="0" gradientTransform="translate(29.119 61.496) rotate(90)">
   <stop offset="0" stop-color="#ffffff"/>
   <stop offset="1" stop-color="#000000"/>
  </linearGradient>
  <linearGradient id="LinearGradient_47" gradientUnits="userSpaceOnUse" x1="0" y1="0" x2="20.141" y2="0" gradientTransform="translate(-9.227 74.102)">
   <stop offset="0" stop-color="#ffffff"/>
   <stop offset="1" stop-color="#000000"/>
  </linearGradient>
  <linearGradient id="LinearGradient_48" gradientUnits="userSpaceOnUse" x1="0" y1="0" x2="20.141" y2="0" gradientTransform="translate(78.973 74.102) rotate(180)">
   <stop offset="0" stop-color="#ffffff"/>
   <stop offset="1" stop-color="#000000"/>
  </linearGradient>
  <linearGradient id="LinearGradient_49" gradientUnits="userSpaceOnUse" x1="0" y1="0" x2="12" y2="0" gradientTransform="translate(21.751 69.751) rotate(180)">
   <stop offset="0" stop-color="#ffffff"/>
   <stop offset="1" stop-color="#000000"/>
  </linearGradient>
  <linearGradient id="LinearGradient_50" gradientUnits="userSpaceOnUse" x1="0" y1="0" x2="18.999" y2="0" gradientTransform="translate(14.751 70.501)">
   <stop offset="0" stop-color="#ffffff"/>
   <stop offset="1" stop-color="#000000"/>
  </linearGradient>
 </defs>
 <g id="Document" fill="none" stroke="black" font-family="Times New Roman" font-size="16" transform="scale(1 -1)">
  <g id="Spread" transform="translate(0 -70.5)">
   <g id="Layer 1">
    <path d="M 9,31.501 L 9,7.5 L 60.749,7.5 L 60.749,31.501 L 9,31.501 Z" stroke-linejoin="miter" stroke="none" marker-start="none" marker-end="none" fill="url(#LinearGradient)"/>
    <mask id="TranspMask">
     <rect x="-10%" y="-10%" width="120%" height="120%" fill="#191919" stroke="none"/>
    </mask>
    <g id="Group" stroke-linejoin="miter" stroke="none" mask="url(#TranspMask)">
     <g id="Group_1">
      <path d="M 9,26.247 L 9,31.501 L 13.5,31.501 L 13.5,26.247 L 9,26.247 Z" marker-start="none" marker-end="none" fill="url(#LinearGradient_1)"/>
      <path d="M 9,13.497 L 9,21 L 13.5,21 L 13.5,13.497 L 9,13.497 Z" marker-start="none" marker-end="none" fill="url(#LinearGradient_2)"/>
      <path d="M 9,28.502 L 9,31.497 L 13.5,31.497 L 13.5,28.502 L 9,28.502 Z" fill="#adadad" marker-start="none" marker-end="none"/>
      <path d="M 9,15.752 L 9,18.747 L 13.5,18.747 L 13.5,15.752 L 9,15.752 Z" fill="#adadad" marker-start="none" marker-end="none"/>
     </g>
     <g id="Group_2">
      <path d="M 56.25,26.247 L 56.25,31.501 L 60.749,31.501 L 60.749,26.247 L 56.25,26.247 Z" marker-start="none" marker-end="none" fill="url(#LinearGradient_3)"/>
      <path d="M 56.25,13.497 L 56.25,21 L 60.749,21 L 60.749,13.497 L 56.25,13.497 Z" marker-start="none" marker-end="none" fill="url(#LinearGradient_4)"/>
      <path d="M 56.25,28.502 L 56.25,31.497 L 60.749,31.497 L 60.749,28.502 L 56.25,28.502 Z" fill="#adadad" marker-start="none" marker-end="none"/>
      <path d="M 56.25,15.752 L 56.25,18.747 L 60.749,18.747 L 60.749,15.752 L 56.25,15.752 Z" fill="#adadad" marker-start="none" marker-end="none"/>
     </g>
    </g>
    <mask id="TranspMask_1">
     <rect x="-10%" y="-10%" width="120%" height="120%" fill="url(#LinearGradient_7)" stroke="none"/>
    </mask>
    <g id="Group_3" stroke-linejoin="miter" stroke="none" mask="url(#TranspMask_1)">
     <path d="M 14.999,23.249 L 14.999,9.75 L 54.75,9.75 L 54.75,23.249 L 14.999,23.249 Z" marker-start="none" marker-end="none" fill="url(#LinearGradient_5)"/>
     <path d="M 15.002,23.25 C 15.002,26.508 17.453,29.444 21.368,31.5 L 48.383,31.5 C 52.298,29.444 54.75,26.508 54.75,23.25 C 54.75,17.04 45.846,12 34.876,12 C 23.906,12 15.002,17.04 15.002,23.25 Z" fill="#768676" marker-start="none" marker-end="none"/>
     <path d="M 23.248,24.75 L 23.249,31.5 L 46.5,31.5 L 46.5,24.75 C 46.5,21.024 41.291,18 34.874,18 C 28.457,18 23.248,21.024 23.248,24.75 Z" marker-start="none" marker-end="none" fill="url(#LinearGradient_6)"/>
    </g>
    <path d="M 22.498,31.5 L 22.498,31.501 L 47.249,31.501 L 47.25,31.5 C 47.25,27.36 41.705,24 34.874,24 C 28.043,24 22.498,27.36 22.498,31.5 Z" stroke-linejoin="miter" stroke="none" stroke-opacity="0.180392" fill="#000000" marker-start="none" marker-end="none" fill-opacity="0.180392"/>
    <path d="M 23.248,31.5 L 23.249,39.75 L 46.5,39.75 L 46.5,31.5 C 46.5,27.774 41.291,24.75 34.874,24.75 C 28.457,24.75 23.248,27.774 23.248,31.5 Z" stroke-linejoin="miter" stroke="none" marker-start="none" marker-end="none" fill="url(#LinearGradient_8)"/>
    <g id="Group_4" stroke-linejoin="miter" stroke="none">
     <path d="M 69.75,24 L 56.25,24 L 56.25,16.497 L 69.75,16.497 L 69.75,24 Z" marker-start="none" marker-end="none" fill="url(#LinearGradient_9)"/>
     <path d="M 69.75,21.747 L 56.25,21.747 L 56.25,18.752 L 69.75,18.752 L 69.75,21.747 Z" fill="#adadad" marker-start="none" marker-end="none"/>
    </g>
    <g id="Group_5" stroke-linejoin="miter" stroke="none">
     <path d="M 69.75,37.5 L 56.25,37.5 L 56.25,29.997 L 69.75,29.997 L 69.75,37.5 Z" marker-start="none" marker-end="none" fill="url(#LinearGradient_10)"/>
     <path d="M 69.75,35.247 L 56.25,35.247 L 56.25,32.252 L 69.75,32.252 L 69.75,35.247 Z" fill="#adadad" marker-start="none" marker-end="none"/>
    </g>
    <g id="Group_6" stroke-linejoin="miter" stroke="none">
     <path d="M 69.75,9.003 L 56.25,9.003 L 56.25,1.5 L 69.75,1.5 L 69.75,9.003 Z" marker-start="none" marker-end="none" fill="url(#LinearGradient_11)"/>
     <path d="M 69.75,6.75 L 56.25,6.75 L 56.25,3.755 L 69.75,3.755 L 69.75,6.75 Z" fill="#adadad" marker-start="none" marker-end="none"/>
    </g>
    <path d="M 57.752,39 L 57.752,0.001 L 68.249,0.001 L 68.249,39 L 57.752,39 Z" stroke-linejoin="miter" stroke="none" marker-start="none" marker-end="none" fill="url(#LinearGradient_12)"/>
    <mask id="TranspMask_2">
     <rect x="-10%" y="-10%" width="120%" height="120%" fill="url(#LinearGradient_13)" stroke="none"/>
    </mask>
    <path d="M 58.499,38.998 L 57.75,38.998 L 57.75,0.002 L 58.499,0.002 L 58.499,38.998 Z" stroke-linejoin="miter" stroke="none" fill="#000000" marker-start="none" marker-end="none" mask="url(#TranspMask_2)"/>
    <mask id="TranspMask_3">
     <rect x="-10%" y="-10%" width="120%" height="120%" fill="url(#LinearGradient_14)" stroke="none"/>
    </mask>
    <path d="M 68.249,38.997 L 67.5,38.997 L 67.5,0 L 68.249,0 L 68.249,38.997 Z" stroke-linejoin="miter" stroke="none" fill="#000000" marker-start="none" marker-end="none" mask="url(#TranspMask_3)"/>
    <mask id="TranspMask_5">
     <rect x="-10%" y="-10%" width="120%" height="120%" fill="url(#LinearGradient_16)" stroke="none"/>
    </mask>
    <g id="Group_7" stroke-linejoin="miter" stroke="none" fill="#d7e0d7" mask="url(#TranspMask_5)">
     <mask id="TranspMask_4">
      <rect x="-10%" y="-10%" width="120%" height="120%" fill="url(#LinearGradient_15)" stroke="none"/>
     </mask>
     <path d="M 67.5,38.997 L 66.751,38.997 L 66.751,0 L 67.5,0 L 67.5,38.997 Z" marker-start="none" marker-end="none" mask="url(#TranspMask_4)"/>
    </g>
    <g id="Group_8" stroke-linejoin="miter" stroke="none">
     <mask id="TranspMask_6">
      <rect x="-10%" y="-10%" width="120%" height="120%" fill="url(#LinearGradient_17)" stroke="none"/>
     </mask>
     <path d="M 63.75,39 L 63.001,39 L 63.001,0 L 63.75,0 L 63.75,39 Z" fill="#000000" marker-start="none" marker-end="none" mask="url(#TranspMask_6)"/>
     <mask id="TranspMask_7">
      <rect x="-10%" y="-10%" width="120%" height="120%" fill="url(#LinearGradient_18)" stroke="none"/>
     </mask>
     <path d="M 63.002,38.998 L 62.253,38.998 L 62.253,0.002 L 63.002,0.002 L 63.002,38.998 Z" fill="#ffffff" marker-start="none" marker-end="none" mask="url(#TranspMask_7)"/>
    </g>
    <mask id="TranspMask_9">
     <rect x="-10%" y="-10%" width="120%" height="120%" fill="url(#LinearGradient_20)" stroke="none"/>
    </mask>
    <g id="Group_9" stroke-linejoin="miter" stroke="none" fill="#d7e0d7" mask="url(#TranspMask_9)">
     <mask id="TranspMask_8">
      <rect x="-10%" y="-10%" width="120%" height="120%" fill="url(#LinearGradient_19)" stroke="none"/>
     </mask>
     <path d="M 62.25,38.997 L 61.501,38.997 L 61.501,0 L 62.25,0 L 62.25,38.997 Z" marker-start="none" marker-end="none" mask="url(#TranspMask_8)"/>
    </g>
    <g id="Group_10" stroke-linejoin="miter" stroke="none">
     <path d="M 13.5,24 L 0,24 L 0,16.497 L 13.5,16.497 L 13.5,24 Z" marker-start="none" marker-end="none" fill="url(#LinearGradient_21)"/>
     <path d="M 13.5,21.747 L 0,21.747 L 0,18.752 L 13.5,18.752 L 13.5,21.747 Z" fill="#adadad" marker-start="none" marker-end="none"/>
    </g>
    <g id="Group_11" stroke-linejoin="miter" stroke="none">
     <path d="M 13.5,37.5 L 0,37.5 L 0,29.997 L 13.5,29.997 L 13.5,37.5 Z" marker-start="none" marker-end="none" fill="url(#LinearGradient_22)"/>
     <path d="M 13.5,35.247 L 0,35.247 L 0,32.252 L 13.5,32.252 L 13.5,35.247 Z" fill="#adadad" marker-start="none" marker-end="none"/>
    </g>
    <g id="Group_12" stroke-linejoin="miter" stroke="none">
     <path d="M 13.5,9.003 L 0,9.003 L 0,1.5 L 13.5,1.5 L 13.5,9.003 Z" marker-start="none" marker-end="none" fill="url(#LinearGradient_23)"/>
     <path d="M 13.5,6.75 L 0,6.75 L 0,3.755 L 13.5,3.755 L 13.5,6.75 Z" fill="#adadad" marker-start="none" marker-end="none"/>
    </g>
    <path d="M 1.502,39 L 1.502,0.001 L 11.999,0.001 L 11.999,39 L 1.502,39 Z" stroke-linejoin="miter" stroke="none" marker-start="none" marker-end="none" fill="url(#LinearGradient_24)"/>
    <mask id="TranspMask_10">
     <rect x="-10%" y="-10%" width="120%" height="120%" fill="url(#LinearGradient_25)" stroke="none"/>
    </mask>
    <path d="M 2.249,38.998 L 1.5,38.998 L 1.5,0.002 L 2.249,0.002 L 2.249,38.998 Z" stroke-linejoin="miter" stroke="none" fill="#000000" marker-start="none" marker-end="none" mask="url(#TranspMask_10)"/>
    <mask id="TranspMask_11">
     <rect x="-10%" y="-10%" width="120%" height="120%" fill="url(#LinearGradient_26)" stroke="none"/>
    </mask>
    <path d="M 11.999,38.997 L 11.25,38.997 L 11.25,0 L 11.999,0 L 11.999,38.997 Z" stroke-linejoin="miter" stroke="none" fill="#000000" marker-start="none" marker-end="none" mask="url(#TranspMask_11)"/>
    <mask id="TranspMask_13">
     <rect x="-10%" y="-10%" width="120%" height="120%" fill="url(#LinearGradient_28)" stroke="none"/>
    </mask>
    <g id="Group_13" stroke-linejoin="miter" stroke="none" fill="#d7e0d7" mask="url(#TranspMask_13)">
     <mask id="TranspMask_12">
      <rect x="-10%" y="-10%" width="120%" height="120%" fill="url(#LinearGradient_27)" stroke="none"/>
     </mask>
     <path d="M 11.25,38.997 L 10.501,38.997 L 10.501,0 L 11.25,0 L 11.25,38.997 Z" marker-start="none" marker-end="none" mask="url(#TranspMask_12)"/>
    </g>
    <g id="Group_14" stroke-linejoin="miter" stroke="none">
     <mask id="TranspMask_14">
      <rect x="-10%" y="-10%" width="120%" height="120%" fill="url(#LinearGradient_29)" stroke="none"/>
     </mask>
     <path d="M 7.5,39 L 6.751,39 L 6.751,0 L 7.5,0 L 7.5,39 Z" fill="#000000" marker-start="none" marker-end="none" mask="url(#TranspMask_14)"/>
     <mask id="TranspMask_15">
      <rect x="-10%" y="-10%" width="120%" height="120%" fill="url(#LinearGradient_30)" stroke="none"/>
     </mask>
     <path d="M 6.752,38.998 L 6.003,38.998 L 6.003,0.002 L 6.752,0.002 L 6.752,38.998 Z" fill="#ffffff" marker-start="none" marker-end="none" mask="url(#TranspMask_15)"/>
    </g>
    <mask id="TranspMask_17">
     <rect x="-10%" y="-10%" width="120%" height="120%" fill="url(#LinearGradient_32)" stroke="none"/>
    </mask>
    <g id="Group_15" stroke-linejoin="miter" stroke="none" fill="#d7e0d7" mask="url(#TranspMask_17)">
     <mask id="TranspMask_16">
      <rect x="-10%" y="-10%" width="120%" height="120%" fill="url(#LinearGradient_31)" stroke="none"/>
     </mask>
     <path d="M 6,38.997 L 5.251,38.997 L 5.251,0 L 6,0 L 6,38.997 Z" marker-start="none" marker-end="none" mask="url(#TranspMask_16)"/>
    </g>
    <mask id="TranspMask_18">
     <rect x="-10%" y="-10%" width="120%" height="120%" fill="url(#LinearGradient_33)" stroke="none"/>
    </mask>
    <path d="M 23.248,31.5 L 23.249,39.75 L 46.5,39.75 L 46.5,31.5 C 46.5,27.774 41.291,24.75 34.874,24.75 C 28.457,24.75 23.248,27.774 23.248,31.5 Z" stroke-linejoin="miter" stroke="none" fill="#000000" marker-start="none" marker-end="none" mask="url(#TranspMask_18)"/>
    <mask id="TranspMask_19">
     <rect x="-10%" y="-10%" width="120%" height="120%" fill="url(#LinearGradient_34)" stroke="none"/>
    </mask>
    <path d="M 23.248,31.5 L 23.249,39.75 L 46.5,39.75 L 46.5,31.5 C 46.5,27.774 41.291,24.75 34.874,24.75 C 28.457,24.75 23.248,27.774 23.248,31.5 Z" stroke-linejoin="miter" stroke="none" fill="#000000" marker-start="none" marker-end="none" mask="url(#TranspMask_19)"/>
    <path d="M 38.251,67.502 L 38.251,41.249 L 31.498,41.249 L 31.498,67.502 L 38.251,67.502 Z" stroke-linejoin="miter" stroke="none" marker-start="none" marker-end="none" fill="url(#LinearGradient_35)"/>
    <path d="M 40.499,42.752 L 40.499,58.5 L 29.251,58.5 L 29.251,42.757 L 26.25,42.757 L 26.25,61.502 L 43.5,61.501 L 43.5,42.752 L 40.499,42.752 Z" stroke-linejoin="miter" stroke="none" marker-start="none" marker-end="none" fill="url(#LinearGradient_36)"/>
    <mask id="TranspMask_20">
     <rect x="-10%" y="-10%" width="120%" height="120%" fill="url(#LinearGradient_37)" stroke="none"/>
    </mask>
    <path d="M 40.499,42.752 L 40.499,58.5 L 29.251,58.5 L 29.251,42.757 L 26.25,42.757 L 26.25,61.502 L 43.5,61.501 L 43.5,42.752 L 40.499,42.752 Z" stroke-linejoin="miter" stroke="none" fill="#ffffff" marker-start="none" marker-end="none" mask="url(#TranspMask_20)"/>
    <path d="M 40.499,42.752 L 40.499,58.5 L 29.251,58.5 L 29.251,42.757 L 26.25,42.757 L 26.25,61.502 L 43.5,61.501 L 43.5,42.752 L 40.499,42.752 Z M 42.75,43.502 L 42.75,60.751 L 27,60.751 L 27,43.507 L 28.501,43.507 L 28.501,59.25 L 41.249,59.25 L 41.249,43.502 L 42.75,43.502 Z" stroke-linejoin="miter" stroke="none" stroke-opacity="0.098039" fill="#000000" marker-start="none" marker-end="none" fill-opacity="0.098039"/>
    <mask id="TranspMask_21">
     <rect x="-10%" y="-10%" width="120%" height="120%" fill="url(#LinearGradient_38)" stroke="none"/>
    </mask>
    <path d="M 31.498,41.249 L 31.498,58.5 L 29.251,58.5 L 29.251,42.757 L 26.25,42.757 L 26.25,61.502 L 31.497,61.501 L 31.498,67.502 L 38.251,67.502 L 38.249,61.501 L 43.5,61.501 L 43.5,42.752 L 40.499,42.752 L 40.499,58.5 L 38.251,58.5 L 38.251,41.249 L 31.498,41.249 Z" stroke-linejoin="miter" stroke="none" fill="#000000" marker-start="none" marker-end="none" mask="url(#TranspMask_21)"/>
    <g id="Group_16" stroke-linejoin="miter" stroke="none">
     <path d="M 54.749,44.251 L 54.749,33.75 L 15,33.75 L 15,44.251 L 54.749,44.251 Z" marker-start="none" marker-end="none" fill="url(#LinearGradient_39)"/>
     <mask id="TranspMask_22">
      <rect x="-10%" y="-10%" width="120%" height="120%" fill="url(#LinearGradient_40)" stroke="none"/>
     </mask>
     <path d="M 15.001,39.748 L 15.001,38.999 L 54.75,38.999 L 54.75,39.748 L 15.001,39.748 Z" fill="#000000" marker-start="none" marker-end="none" mask="url(#TranspMask_22)"/>
     <mask id="TranspMask_23">
      <rect x="-10%" y="-10%" width="120%" height="120%" fill="url(#LinearGradient_41)" stroke="none"/>
     </mask>
     <path d="M 15.004,44.251 L 15.004,43.502 L 54.749,43.502 L 54.749,44.251 L 15.004,44.251 Z" fill="#ffffff" marker-start="none" marker-end="none" mask="url(#TranspMask_23)"/>
     <mask id="TranspMask_24">
      <rect x="-10%" y="-10%" width="120%" height="120%" fill="url(#LinearGradient_42)" stroke="none"/>
     </mask>
     <path d="M 15.003,39 L 15.003,38.251 L 54.748,38.251 L 54.748,39 L 15.003,39 Z" fill="#ffffff" marker-start="none" marker-end="none" mask="url(#TranspMask_24)"/>
     <mask id="TranspMask_25">
      <rect x="-10%" y="-10%" width="120%" height="120%" fill="url(#LinearGradient_43)" stroke="none"/>
     </mask>
     <path d="M 15.003,34.5 L 15.003,33.751 L 54.748,33.751 L 54.748,34.5 L 15.003,34.5 Z" fill="#000000" marker-start="none" marker-end="none" mask="url(#TranspMask_25)"/>
    </g>
    <path d="M 63.004,68.909 L 63.004,66.09 C 63.004,65.212 62.291,64.499 61.413,64.499 L 8.334,64.499 C 7.456,64.499 6.743,65.212 6.743,66.09 L 6.743,68.909 C 6.743,69.787 7.456,70.5 8.334,70.5 L 61.413,70.5 C 62.291,70.5 63.004,69.787 63.004,68.909 Z" stroke-linejoin="miter" stroke="none" marker-start="none" marker-end="none" fill="url(#LinearGradient_44)"/>
    <g id="Group_17" stroke-linejoin="miter" stroke="none">
     <mask id="TranspMask_26">
      <rect x="-10%" y="-10%" width="120%" height="120%" fill="url(#LinearGradient_45)" stroke="none"/>
     </mask>
     <path d="M 8.334,70.5 L 61.413,70.5 C 62.259,70.5 62.953,69.836 63.001,69.001 L 6.745,69.001 C 6.793,69.836 7.487,70.5 8.334,70.5 Z" fill="#ffffff" marker-start="none" marker-end="none" mask="url(#TranspMask_26)"/>
     <mask id="TranspMask_27">
      <rect x="-10%" y="-10%" width="120%" height="120%" fill="url(#LinearGradient_46)" stroke="none"/>
     </mask>
     <path d="M 6.745,66 L 63.001,66 C 62.954,65.17 62.271,64.509 61.432,64.5 L 8.314,64.5 C 7.475,64.509 6.792,65.17 6.745,66 Z" fill="#000000" marker-start="none" marker-end="none" mask="url(#TranspMask_27)"/>
    </g>
    <mask id="TranspMask_28">
     <rect x="-10%" y="-10%" width="120%" height="120%" fill="url(#LinearGradient_47)" stroke="none"/>
    </mask>
    <path d="M 63.004,68.909 L 63.004,66.09 C 63.004,65.212 62.291,64.499 61.413,64.499 L 8.334,64.499 C 7.456,64.499 6.743,65.212 6.743,66.09 L 6.743,68.909 C 6.743,69.787 7.456,70.5 8.334,70.5 L 61.413,70.5 C 62.291,70.5 63.004,69.787 63.004,68.909 Z" stroke-linejoin="miter" stroke="none" fill="#000000" marker-start="none" marker-end="none" mask="url(#TranspMask_28)"/>
    <mask id="TranspMask_29">
     <rect x="-10%" y="-10%" width="120%" height="120%" fill="url(#LinearGradient_48)" stroke="none"/>
    </mask>
    <path d="M 6.742,68.909 L 6.742,66.09 C 6.742,65.212 7.455,64.499 8.333,64.499 L 61.412,64.499 C 62.29,64.499 63.003,65.212 63.003,66.09 L 63.003,68.909 C 63.003,69.787 62.29,70.5 61.412,70.5 L 8.333,70.5 C 7.455,70.5 6.742,69.787 6.742,68.909 Z" stroke-linejoin="miter" stroke="none" fill="#000000" marker-start="none" marker-end="none" mask="url(#TranspMask_29)"/>
    <mask id="TranspMask_31">
     <rect x="-10%" y="-10%" width="120%" height="120%" fill="url(#LinearGradient_50)" stroke="none"/>
    </mask>
    <g id="Group_18" stroke-linejoin="miter" stroke="none" stroke-linecap="round" stroke-width="0.75" fill="#ffffff" stroke-miterlimit="79.8403193612775" mask="url(#TranspMask_31)">
     <mask id="TranspMask_30">
      <rect x="-10%" y="-10%" width="120%" height="120%" fill="url(#LinearGradient_49)" stroke="none"/>
     </mask>
     <path d="M 9.75,69.75 L 9.75,69.001 L 33.751,69.001 L 33.751,69.75 L 9.75,69.75 Z" marker-start="none" marker-end="none" mask="url(#TranspMask_30)"/>
    </g>
   </g>
  </g>
 </g>
</svg>
