<?xml version="1.0" standalone="no"?>
<!DOCTYPE svg PUBLIC "-//W3C//DTD SVG 1.1//EN" "http://www.w3.org/Graphics/SVG/1.1/DTD/svg11.dtd">
<!--Generator: Xara Xtreme (www.xara.com), SVG filter version: 1.0.0.13-->
<svg stroke-width="0.501" stroke-linejoin="bevel" fill-rule="evenodd" xmlns:xlink="http://www.w3.org/1999/xlink" xmlns="http://www.w3.org/2000/svg" version="1.1" overflow="visible" width="91.5pt" height="66pt" viewBox="0 0 91.5 66">
 <defs>
  <marker id="DefaultArrow2" markerUnits="strokeWidth" viewBox="0 0 1 1" markerWidth="1" markerHeight="1" overflow="visible" orient="auto">
   <!-- REF_ARROW_STRAIGHT (-2) -->
   <g transform="scale(0.0092592592)">
    <!-- 1/108 -->
    <path d="M -9 54 L -9 -54 L 117 0 z"/>
   </g>
  </marker>
  <marker id="DefaultArrow3" markerUnits="strokeWidth" viewBox="0 0 1 1" markerWidth="1" markerHeight="1" overflow="visible" orient="auto">
   <!-- REF_ARROW_ANGLED -->
   <g transform="scale(0.0092592592)">
    <path d="M -27 54 L -9 0 L -27 -54 L 135 0 z"/>
   </g>
  </marker>
  <marker id="DefaultArrow4" markerUnits="strokeWidth" viewBox="0 0 1 1" markerWidth="1" markerHeight="1" overflow="visible" orient="auto">
   <!-- REF_ARROW_ROUNDED -->
   <g transform="scale(0.0092592592)">
    <path d="M -9,0 L -9,-45 C -9,-51.708 2.808,-56.580 9,-54 L 117,-9 C 120.916,-7.369 126.000,-4.242 126,0 C 126,4.242 120.916,7.369 117,9 L 9,54 C 2.808,56.580 -9,51.708 -9,45 z"/>
   </g>
  </marker>
  <marker id="DefaultArrow5" markerUnits="strokeWidth" viewBox="0 0 1 1" markerWidth="1" markerHeight="1" overflow="visible" orient="auto">
   <!-- REF_ARROW_SPOT -->
   <g transform="scale(0.0092592592)">
    <path d="M -54, 0 C -54,29.807 -29.807,54 0,54 C 29.807,54 54,29.807 54,0 C 54,-29.807 29.807,-54 0,-54 C -29.807,-54 -54,-29.807 -54,0 z"/>
   </g>
  </marker>
  <marker id="DefaultArrow6" markerUnits="strokeWidth" viewBox="0 0 1 1" markerWidth="1" markerHeight="1" overflow="visible" orient="auto">
   <!-- REF_ARROW_DIAMOND -->
   <g transform="scale(0.0092592592)">
    <path d="M -63,0 L 0,63 L 63,0 L 0,-63 z"/>
   </g>
  </marker>
  <marker id="DefaultArrow7" markerUnits="strokeWidth" viewBox="0 0 1 1" markerWidth="1" markerHeight="1" overflow="visible" orient="auto">
   <!-- REF_ARROW_FEATHER -->
   <g transform="scale(0.0092592592)">
    <path d="M 18,-54 L 108,-54 L 63,0 L 108,54 L 18, 54 L -36,0 z"/>
   </g>
  </marker>
  <marker id="DefaultArrow8" markerUnits="strokeWidth" viewBox="0 0 1 1" markerWidth="1" markerHeight="1" overflow="visible" orient="auto">
   <!-- REF_ARROW_FEATHER2 -->
   <g transform="scale(0.0092592592)">
    <path d="M -36,0 L 18,-54 L 54,-54 L 18,-18 L 27,-18 L 63,-54 L 99,-54 L 63,-18 L 72,-18 L 108,-54 L 144,-54 L 90,0 L 144,54 L 108,54 L 72,18 L 63,18 L 99,54 L 63,54 L 27,18 L 18,18 L 54,54 L 18,54 z"/>
   </g>
  </marker>
  <marker id="DefaultArrow9" markerUnits="strokeWidth" viewBox="0 0 1 1" markerWidth="1" markerHeight="1" overflow="visible" orient="auto">
   <!-- REF_ARROW_HOLLOWDIAMOND -->
   <g transform="scale(0.0092592592)">
    <path d="M 0,45 L -45,0 L 0, -45 L 45, 0 z M 0, 63 L-63, 0 L 0, -63 L 63, 0 z"/>
   </g>
  </marker>
  <filter id="StainedFilter">
   <feBlend mode="multiply" in2="BackgroundImage" in="SourceGraphic" result="blend"/>
   <feComposite in="blend" in2="SourceAlpha" operator="in" result="comp"/>
  </filter>
  <filter id="BleachFilter">
   <feBlend mode="screen" in2="BackgroundImage" in="SourceGraphic" result="blend"/>
   <feComposite in="blend" in2="SourceAlpha" operator="in" result="comp"/>
  </filter>
  <filter id="InvertTransparencyBitmapFilter">
   <feComponentTransfer>
    <feFuncR type="gamma" amplitude="1.055" exponent=".416666666" offset="-0.055"/>
    <feFuncG type="gamma" amplitude="1.055" exponent=".416666666" offset="-0.055"/>
    <feFuncB type="gamma" amplitude="1.055" exponent=".416666666" offset="-0.055"/>
   </feComponentTransfer>
   <feComponentTransfer>
    <feFuncR type="linear" slope="-1" intercept="1"/>
    <feFuncG type="linear" slope="-1" intercept="1"/>
    <feFuncB type="linear" slope="-1" intercept="1"/>
    <feFuncA type="linear" slope="1" intercept="0"/>
   </feComponentTransfer>
   <feComponentTransfer>
    <feFuncR type="gamma" amplitude="1" exponent="2.4" offset="0"/>
    <feFuncG type="gamma" amplitude="1" exponent="2.4" offset="0"/>
    <feFuncB type="gamma" amplitude="1" exponent="2.4" offset="0"/>
   </feComponentTransfer>
  </filter>
  <linearGradient id="LinearGradient" gradientUnits="userSpaceOnUse" x1="0" y1="0" x2="87.035" y2="0" gradientTransform="translate(89.264 30.706) rotate(180)">
   <stop offset="0" stop-color="#6f7f6f"/>
   <stop offset="0.157716974616051" stop-color="#d8e1d8"/>
   <stop offset="0.539225339889526" stop-color="#8f9e8f"/>
   <stop offset="0.772247076034546" stop-color="#c7d4c7"/>
   <stop offset="1" stop-color="#6f7f6f"/>
  </linearGradient>
  <radialGradient id="RadialGradient" gradientUnits="userSpaceOnUse" cx="0" cy="0" r="5.999" gradientTransform="translate(21.747 26.625) scale(1 3.56309)">
   <stop offset="0" stop-color="#ffffff"/>
   <stop offset="1" stop-color="#000000"/>
  </radialGradient>
  <radialGradient id="RadialGradient_1" gradientUnits="userSpaceOnUse" cx="0" cy="0" r="5.999" gradientTransform="translate(21.747 26.625) scale(1 3.56309)">
   <stop offset="0" stop-color="#ffffff"/>
   <stop offset="1" stop-color="#000000"/>
  </radialGradient>
  <linearGradient id="LinearGradient_1" gradientUnits="userSpaceOnUse" x1="0" y1="0" x2="0" y2="-7.5" gradientTransform="translate(47.996 60)">
   <stop offset="0" stop-color="#b4c0b4"/>
   <stop offset="1" stop-color="#d7e0d7"/>
  </linearGradient>
  <radialGradient id="RadialGradient_2" gradientUnits="userSpaceOnUse" cx="0" cy="0" r="5.999" gradientTransform="translate(75.747 31.875) scale(1 3.56309)">
   <stop offset="0" stop-color="#ffffff"/>
   <stop offset="1" stop-color="#000000"/>
  </radialGradient>
  <radialGradient id="RadialGradient_3" gradientUnits="userSpaceOnUse" cx="0" cy="0" r="3.767" gradientTransform="translate(75.747 31.875) scale(1 4.67879)">
   <stop offset="0" stop-color="#ffffff"/>
   <stop offset="1" stop-color="#000000"/>
  </radialGradient>
 </defs>
 <g id="Document" fill="none" stroke="black" font-family="Times New Roman" font-size="16" transform="scale(1 -1)">
  <g id="Spread" transform="translate(0 -66)">
   <g id="Layer 1">
    <path d="M 91.494,4.5 L 91.495,55.5 L -0.006,55.5 L -0.006,4.5 C -0.006,2.016 20.49,0 45.744,0 C 70.998,0 91.494,2.016 91.494,4.5 Z" stroke="none" stroke-linejoin="miter" marker-start="none" marker-end="none" fill="url(#LinearGradient)"/>
    <mask id="TranspMask">
     <rect x="-10%" y="-10%" width="120%" height="120%" fill="#4d4d4d" stroke="none"/>
    </mask>
    <g id="Group" stroke="none" fill-rule="evenodd" stroke-width="0.5" fill="#6f7f6f" stroke-miterlimit="79.8403193612775" mask="url(#TranspMask)">
     <path d="M 11.245,7.874 L 11.245,55.5 L 11.995,55.5 L 11.995,7.874 C 11.995,7.667 11.826,7.499 11.62,7.499 C 11.413,7.499 11.245,7.667 11.245,7.874 Z" marker-start="none" marker-end="none"/>
     <path d="M 17.246,7.125 L 17.246,55.5 L 17.996,55.5 L 17.996,7.125 C 17.996,6.918 17.827,6.75 17.621,6.75 C 17.414,6.75 17.246,6.918 17.246,7.125 Z" marker-start="none" marker-end="none"/>
     <path d="M 11.88,55.5 L 17.931,55.5 C 17.977,55.432 18.001,55.348 17.994,55.26 C 17.977,55.053 17.795,54.9 17.589,54.918 C 15.516,55.094 13.604,55.289 11.88,55.5 Z" marker-start="none" marker-end="none"/>
     <path d="M 11.573,52.327 C 11.368,52.353 11.222,52.541 11.247,52.746 C 11.273,52.951 11.461,53.097 11.666,53.072 C 13.457,52.847 15.463,52.641 17.652,52.454 C 17.859,52.437 18.012,52.255 17.994,52.049 C 17.977,51.842 17.795,51.689 17.589,51.707 C 15.392,51.894 13.376,52.102 11.573,52.327 Z" marker-start="none" marker-end="none"/>
     <path d="M 11.573,49.116 C 11.368,49.142 11.222,49.33 11.247,49.535 C 11.273,49.74 11.461,49.886 11.666,49.861 C 13.457,49.636 15.463,49.43 17.652,49.243 C 17.859,49.226 18.012,49.044 17.994,48.838 C 17.977,48.631 17.795,48.478 17.589,48.496 C 15.392,48.683 13.376,48.891 11.573,49.116 Z" marker-start="none" marker-end="none"/>
     <path d="M 11.573,45.905 C 11.368,45.931 11.222,46.119 11.247,46.324 C 11.273,46.529 11.461,46.675 11.666,46.65 C 13.457,46.425 15.463,46.219 17.652,46.032 C 17.859,46.015 18.012,45.833 17.994,45.627 C 17.977,45.42 17.795,45.267 17.589,45.285 C 15.392,45.472 13.376,45.68 11.573,45.905 Z" marker-start="none" marker-end="none"/>
     <path d="M 11.573,42.694 C 11.368,42.72 11.222,42.908 11.247,43.113 C 11.273,43.318 11.461,43.464 11.666,43.439 C 13.457,43.214 15.463,43.008 17.652,42.821 C 17.859,42.804 18.012,42.622 17.994,42.416 C 17.977,42.209 17.795,42.056 17.589,42.074 C 15.392,42.261 13.376,42.469 11.573,42.694 Z" marker-start="none" marker-end="none"/>
     <path d="M 11.573,39.483 C 11.368,39.509 11.222,39.697 11.247,39.902 C 11.273,40.107 11.461,40.253 11.666,40.228 C 13.457,40.003 15.463,39.797 17.652,39.61 C 17.859,39.593 18.012,39.411 17.994,39.205 C 17.977,38.998 17.795,38.845 17.589,38.863 C 15.392,39.05 13.376,39.258 11.573,39.483 Z" marker-start="none" marker-end="none"/>
     <path d="M 11.573,36.272 C 11.368,36.298 11.222,36.486 11.247,36.691 C 11.273,36.896 11.461,37.042 11.666,37.017 C 13.457,36.792 15.463,36.586 17.652,36.399 C 17.859,36.382 18.012,36.2 17.994,35.994 C 17.977,35.787 17.795,35.634 17.589,35.652 C 15.392,35.839 13.376,36.047 11.573,36.272 Z" marker-start="none" marker-end="none"/>
     <path d="M 11.573,33.061 C 11.368,33.087 11.222,33.275 11.247,33.48 C 11.273,33.685 11.461,33.831 11.666,33.806 C 13.457,33.581 15.463,33.375 17.652,33.188 C 17.859,33.171 18.012,32.989 17.994,32.783 C 17.977,32.576 17.795,32.423 17.589,32.441 C 15.392,32.628 13.376,32.836 11.573,33.061 Z" marker-start="none" marker-end="none"/>
     <path d="M 11.573,29.85 C 11.368,29.876 11.222,30.064 11.247,30.269 C 11.273,30.474 11.461,30.62 11.666,30.595 C 13.457,30.37 15.463,30.164 17.652,29.977 C 17.859,29.96 18.012,29.778 17.994,29.572 C 17.977,29.365 17.795,29.212 17.589,29.23 C 15.392,29.417 13.376,29.625 11.573,29.85 Z" marker-start="none" marker-end="none"/>
     <path d="M 11.573,26.639 C 11.368,26.665 11.222,26.853 11.247,27.058 C 11.273,27.263 11.461,27.409 11.666,27.384 C 13.457,27.159 15.463,26.953 17.652,26.766 C 17.859,26.749 18.012,26.567 17.994,26.361 C 17.977,26.154 17.795,26.001 17.589,26.019 C 15.392,26.206 13.376,26.414 11.573,26.639 Z" marker-start="none" marker-end="none"/>
     <path d="M 11.573,23.428 C 11.368,23.454 11.222,23.642 11.247,23.847 C 11.273,24.052 11.461,24.198 11.666,24.173 C 13.457,23.948 15.463,23.742 17.652,23.555 C 17.859,23.538 18.012,23.356 17.994,23.15 C 17.977,22.943 17.795,22.79 17.589,22.808 C 15.392,22.995 13.376,23.203 11.573,23.428 Z" marker-start="none" marker-end="none"/>
     <path d="M 11.573,20.217 C 11.368,20.243 11.222,20.431 11.247,20.636 C 11.273,20.841 11.461,20.987 11.666,20.962 C 13.457,20.737 15.463,20.531 17.652,20.344 C 17.859,20.327 18.012,20.145 17.994,19.939 C 17.977,19.732 17.795,19.579 17.589,19.597 C 15.392,19.784 13.376,19.992 11.573,20.217 Z" marker-start="none" marker-end="none"/>
     <path d="M 11.573,17.006 C 11.368,17.032 11.222,17.22 11.247,17.425 C 11.273,17.63 11.461,17.776 11.666,17.751 C 13.457,17.526 15.463,17.32 17.652,17.133 C 17.859,17.116 18.012,16.934 17.994,16.728 C 17.977,16.521 17.795,16.368 17.589,16.386 C 15.392,16.573 13.376,16.781 11.573,17.006 Z" marker-start="none" marker-end="none"/>
     <path d="M 11.573,13.795 C 11.368,13.821 11.222,14.009 11.247,14.214 C 11.273,14.419 11.461,14.565 11.666,14.54 C 13.457,14.315 15.463,14.109 17.652,13.922 C 17.859,13.905 18.012,13.723 17.994,13.517 C 17.977,13.31 17.795,13.157 17.589,13.175 C 15.392,13.362 13.376,13.57 11.573,13.795 Z" marker-start="none" marker-end="none"/>
     <path d="M 11.573,10.584 C 11.368,10.61 11.222,10.798 11.247,11.003 C 11.273,11.208 11.461,11.354 11.666,11.329 C 13.457,11.104 15.463,10.898 17.652,10.711 C 17.859,10.694 18.012,10.512 17.994,10.306 C 17.977,10.099 17.795,9.946 17.589,9.964 C 15.392,10.151 13.376,10.359 11.573,10.584 Z" marker-start="none" marker-end="none"/>
     <path d="M 11.573,7.373 C 11.368,7.399 11.222,7.587 11.247,7.792 C 11.273,7.997 11.461,8.143 11.666,8.118 C 13.457,7.893 15.463,7.687 17.652,7.5 C 17.859,7.483 18.012,7.301 17.994,7.095 C 17.977,6.888 17.795,6.735 17.589,6.753 C 15.392,6.94 13.376,7.148 11.573,7.373 Z" marker-start="none" marker-end="none"/>
    </g>
    <mask id="TranspMask_1">
     <rect x="-10%" y="-10%" width="120%" height="120%" fill="#191919" stroke="none"/>
    </mask>
    <g id="Group_1" stroke="none" fill-rule="evenodd" stroke-width="0.5" fill="#000000" stroke-miterlimit="79.8403193612775" mask="url(#TranspMask_1)">
     <path d="M 9.745,6.374 L 9.745,54 L 10.495,54 L 10.495,6.374 C 10.495,6.167 10.326,5.999 10.12,5.999 C 9.913,5.999 9.745,6.167 9.745,6.374 Z" marker-start="none" marker-end="none"/>
     <path d="M 15.746,5.625 L 15.746,54 L 16.496,54 L 16.496,5.625 C 16.496,5.418 16.327,5.25 16.121,5.25 C 15.914,5.25 15.746,5.418 15.746,5.625 Z" marker-start="none" marker-end="none"/>
     <path d="M 10.38,54 L 16.431,54 C 16.477,53.932 16.501,53.848 16.494,53.76 C 16.477,53.553 16.295,53.4 16.089,53.418 C 14.016,53.594 12.104,53.789 10.38,54 Z" marker-start="none" marker-end="none"/>
     <path d="M 10.073,50.827 C 9.868,50.853 9.722,51.041 9.747,51.246 C 9.773,51.451 9.961,51.597 10.166,51.572 C 11.957,51.347 13.963,51.141 16.152,50.954 C 16.359,50.937 16.512,50.755 16.494,50.549 C 16.477,50.342 16.295,50.189 16.089,50.207 C 13.892,50.394 11.876,50.602 10.073,50.827 Z" marker-start="none" marker-end="none"/>
     <path d="M 10.073,47.616 C 9.868,47.642 9.722,47.83 9.747,48.035 C 9.773,48.24 9.961,48.386 10.166,48.361 C 11.957,48.136 13.963,47.93 16.152,47.743 C 16.359,47.726 16.512,47.544 16.494,47.338 C 16.477,47.131 16.295,46.978 16.089,46.996 C 13.892,47.183 11.876,47.391 10.073,47.616 Z" marker-start="none" marker-end="none"/>
     <path d="M 10.073,44.405 C 9.868,44.431 9.722,44.619 9.747,44.824 C 9.773,45.029 9.961,45.175 10.166,45.15 C 11.957,44.925 13.963,44.719 16.152,44.532 C 16.359,44.515 16.512,44.333 16.494,44.127 C 16.477,43.92 16.295,43.767 16.089,43.785 C 13.892,43.972 11.876,44.18 10.073,44.405 Z" marker-start="none" marker-end="none"/>
     <path d="M 10.073,41.194 C 9.868,41.22 9.722,41.408 9.747,41.613 C 9.773,41.818 9.961,41.964 10.166,41.939 C 11.957,41.714 13.963,41.508 16.152,41.321 C 16.359,41.304 16.512,41.122 16.494,40.916 C 16.477,40.709 16.295,40.556 16.089,40.574 C 13.892,40.761 11.876,40.969 10.073,41.194 Z" marker-start="none" marker-end="none"/>
     <path d="M 10.073,37.983 C 9.868,38.009 9.722,38.197 9.747,38.402 C 9.773,38.607 9.961,38.753 10.166,38.728 C 11.957,38.503 13.963,38.297 16.152,38.11 C 16.359,38.093 16.512,37.911 16.494,37.705 C 16.477,37.498 16.295,37.345 16.089,37.363 C 13.892,37.55 11.876,37.758 10.073,37.983 Z" marker-start="none" marker-end="none"/>
     <path d="M 10.073,34.772 C 9.868,34.798 9.722,34.986 9.747,35.191 C 9.773,35.396 9.961,35.542 10.166,35.517 C 11.957,35.292 13.963,35.086 16.152,34.899 C 16.359,34.882 16.512,34.7 16.494,34.494 C 16.477,34.287 16.295,34.134 16.089,34.152 C 13.892,34.339 11.876,34.547 10.073,34.772 Z" marker-start="none" marker-end="none"/>
     <path d="M 10.073,31.561 C 9.868,31.587 9.722,31.775 9.747,31.98 C 9.773,32.185 9.961,32.331 10.166,32.306 C 11.957,32.081 13.963,31.875 16.152,31.688 C 16.359,31.671 16.512,31.489 16.494,31.283 C 16.477,31.076 16.295,30.923 16.089,30.941 C 13.892,31.128 11.876,31.336 10.073,31.561 Z" marker-start="none" marker-end="none"/>
     <path d="M 10.073,28.35 C 9.868,28.376 9.722,28.564 9.747,28.769 C 9.773,28.974 9.961,29.12 10.166,29.095 C 11.957,28.87 13.963,28.664 16.152,28.477 C 16.359,28.46 16.512,28.278 16.494,28.072 C 16.477,27.865 16.295,27.712 16.089,27.73 C 13.892,27.917 11.876,28.125 10.073,28.35 Z" marker-start="none" marker-end="none"/>
     <path d="M 10.073,25.139 C 9.868,25.165 9.722,25.353 9.747,25.558 C 9.773,25.763 9.961,25.909 10.166,25.884 C 11.957,25.659 13.963,25.453 16.152,25.266 C 16.359,25.249 16.512,25.067 16.494,24.861 C 16.477,24.654 16.295,24.501 16.089,24.519 C 13.892,24.706 11.876,24.914 10.073,25.139 Z" marker-start="none" marker-end="none"/>
     <path d="M 10.073,21.928 C 9.868,21.954 9.722,22.142 9.747,22.347 C 9.773,22.552 9.961,22.698 10.166,22.673 C 11.957,22.448 13.963,22.242 16.152,22.055 C 16.359,22.038 16.512,21.856 16.494,21.65 C 16.477,21.443 16.295,21.29 16.089,21.308 C 13.892,21.495 11.876,21.703 10.073,21.928 Z" marker-start="none" marker-end="none"/>
     <path d="M 10.073,18.717 C 9.868,18.743 9.722,18.931 9.747,19.136 C 9.773,19.341 9.961,19.487 10.166,19.462 C 11.957,19.237 13.963,19.031 16.152,18.844 C 16.359,18.827 16.512,18.645 16.494,18.439 C 16.477,18.232 16.295,18.079 16.089,18.097 C 13.892,18.284 11.876,18.492 10.073,18.717 Z" marker-start="none" marker-end="none"/>
     <path d="M 10.073,15.506 C 9.868,15.532 9.722,15.72 9.747,15.925 C 9.773,16.13 9.961,16.276 10.166,16.251 C 11.957,16.026 13.963,15.82 16.152,15.633 C 16.359,15.616 16.512,15.434 16.494,15.228 C 16.477,15.021 16.295,14.868 16.089,14.886 C 13.892,15.073 11.876,15.281 10.073,15.506 Z" marker-start="none" marker-end="none"/>
     <path d="M 10.073,12.295 C 9.868,12.321 9.722,12.509 9.747,12.714 C 9.773,12.919 9.961,13.065 10.166,13.04 C 11.957,12.815 13.963,12.609 16.152,12.422 C 16.359,12.405 16.512,12.223 16.494,12.017 C 16.477,11.81 16.295,11.657 16.089,11.675 C 13.892,11.862 11.876,12.07 10.073,12.295 Z" marker-start="none" marker-end="none"/>
     <path d="M 10.073,9.084 C 9.868,9.11 9.722,9.298 9.747,9.503 C 9.773,9.708 9.961,9.854 10.166,9.829 C 11.957,9.604 13.963,9.398 16.152,9.211 C 16.359,9.194 16.512,9.012 16.494,8.806 C 16.477,8.599 16.295,8.446 16.089,8.464 C 13.892,8.651 11.876,8.859 10.073,9.084 Z" marker-start="none" marker-end="none"/>
     <path d="M 10.073,5.873 C 9.868,5.899 9.722,6.087 9.747,6.292 C 9.773,6.497 9.961,6.643 10.166,6.618 C 11.957,6.393 13.963,6.187 16.152,6 C 16.359,5.983 16.512,5.801 16.494,5.595 C 16.477,5.388 16.295,5.235 16.089,5.253 C 13.892,5.44 11.876,5.648 10.073,5.873 Z" marker-start="none" marker-end="none"/>
    </g>
    <mask id="TranspMask_3">
     <rect x="-10%" y="-10%" width="120%" height="120%" fill="url(#RadialGradient_1)" stroke="none"/>
    </mask>
    <g id="Group_2" stroke="none" stroke-linejoin="miter" fill="#ffffff" mask="url(#TranspMask_3)">
     <mask id="TranspMask_2">
      <rect x="-10%" y="-10%" width="120%" height="120%" fill="url(#RadialGradient)" stroke="none"/>
     </mask>
     <path d="M 21.747,48 C 25.058,48 27.746,38.424 27.746,26.625 C 27.746,14.826 25.058,5.25 21.747,5.25 C 18.436,5.25 15.748,14.826 15.748,26.625 C 15.748,38.424 18.436,48 21.747,48 Z" marker-start="none" marker-end="none" mask="url(#TranspMask_2)"/>
    </g>
    <path d="M -0.004,54.378 L -0.004,55.5 L 91.495,55.5 L 91.495,54.371 C 91.463,51.682 70.979,49.501 45.746,49.501 C 20.492,49.501 -0.004,51.686 -0.004,54.378 Z" stroke="none" fill="#ffffff" stroke-opacity="0.301961" stroke-linejoin="miter" marker-start="none" marker-end="none" fill-opacity="0.301961"/>
    <path d="M 45.746,60.005 C 20.492,60.005 -0.004,57.82 -0.004,55.128 C -0.004,52.436 20.492,50.251 45.746,50.251 C 71,50.251 91.496,52.436 91.496,55.128 C 91.496,57.82 71,60.005 45.746,60.005 Z" stroke="none" stroke-width="0.5" stroke-linejoin="miter" stroke-linecap="round" marker-start="none" marker-end="none" stroke-miterlimit="79.8403193612775" fill="url(#LinearGradient_1)"/>
    <path d="M -0.004,55.128 C -0.004,57.82 20.492,60.005 45.746,60.005 C 71,60.005 91.496,57.82 91.496,55.128 C 91.496,52.436 71,50.251 45.746,50.251 C 20.492,50.251 -0.004,52.436 -0.004,55.128 Z M 77.152,52.336 C 81.241,52.75 84.589,53.241 86.986,53.783 C 89.299,54.305 90.228,54.772 90.576,55.025 L 90.699,55.127 L 90.57,55.234 C 90.216,55.488 89.278,55.953 86.986,56.472 C 84.589,57.014 81.241,57.505 77.152,57.919 C 68.98,58.746 57.922,59.255 45.746,59.255 C 33.569,59.255 22.511,58.746 14.339,57.919 C 10.25,57.505 6.902,57.014 4.505,56.472 C 2.192,55.949 1.262,55.482 0.914,55.229 L 0.791,55.127 L 0.92,55.02 C 1.274,54.766 2.213,54.301 4.505,53.783 C 6.902,53.241 10.25,52.75 14.339,52.336 C 22.511,51.509 33.569,51.001 45.746,51.001 C 57.922,51.001 68.98,51.509 77.152,52.336 Z" stroke="none" stroke-opacity="0.180392" fill="#000000" stroke-linejoin="miter" stroke-linecap="round" stroke-width="0.5" marker-start="none" marker-end="none" stroke-miterlimit="79.8403193612775" fill-opacity="0.180392"/>
    <g id="Group_3" stroke="none" fill-rule="evenodd" stroke-width="0.5" fill="#6f7f6f" stroke-miterlimit="79.8403193612775">
     <path d="M 0.739,54.123 L 0.738,60.22 C 0.737,60.427 0.905,60.595 1.112,60.595 C 1.319,60.596 1.487,60.428 1.487,60.221 L 1.488,54.124 C 1.489,53.917 1.321,53.749 1.114,53.749 C 0.907,53.748 0.739,53.916 0.739,54.123 Z" marker-start="none" marker-end="none"/>
     <path d="M 2.995,53.421 L 2.995,59.038 C 2.995,59.244 3.163,59.413 3.37,59.413 C 3.576,59.413 3.745,59.244 3.745,59.038 L 3.745,53.421 C 3.745,53.214 3.576,53.046 3.37,53.046 C 3.163,53.046 2.995,53.214 2.995,53.421 Z" marker-start="none" marker-end="none"/>
     <path d="M 5.245,52.959 L 5.245,58.576 C 5.245,58.782 5.413,58.951 5.62,58.951 C 5.826,58.951 5.995,58.782 5.995,58.576 L 5.995,52.959 C 5.995,52.752 5.826,52.584 5.62,52.584 C 5.413,52.584 5.245,52.752 5.245,52.959 Z" marker-start="none" marker-end="none"/>
     <path d="M 7.495,52.6 L 7.495,58.217 C 7.495,58.423 7.663,58.592 7.87,58.592 C 8.076,58.592 8.245,58.423 8.245,58.217 L 8.245,52.6 C 8.245,52.393 8.076,52.225 7.87,52.225 C 7.663,52.225 7.495,52.393 7.495,52.6 Z" marker-start="none" marker-end="none"/>
     <path d="M 9.745,7.124 L 9.745,57.92 C 9.745,58.126 9.913,58.295 10.12,58.295 C 10.326,58.295 10.495,58.126 10.495,57.92 L 10.495,7.124 C 10.495,6.917 10.326,6.749 10.12,6.749 C 9.913,6.749 9.745,6.917 9.745,7.124 Z" marker-start="none" marker-end="none"/>
     <path d="M 15.746,6.375 L 15.746,57.317 C 15.746,57.523 15.914,57.692 16.121,57.692 C 16.327,57.692 16.496,57.523 16.496,57.317 L 16.496,6.375 C 16.496,6.168 16.327,6 16.121,6 C 15.914,6 15.746,6.168 15.746,6.375 Z" marker-start="none" marker-end="none"/>
     <path d="M 18.746,51.47 L 18.746,57.087 C 18.746,57.293 18.914,57.462 19.121,57.462 C 19.327,57.462 19.496,57.293 19.496,57.087 L 19.496,51.47 C 19.496,51.263 19.327,51.095 19.121,51.095 C 18.914,51.095 18.746,51.263 18.746,51.47 Z" marker-start="none" marker-end="none"/>
     <path d="M 21.745,51.275 L 21.744,56.892 C 21.743,57.099 21.911,57.267 22.118,57.267 C 22.325,57.268 22.493,57.1 22.493,56.893 L 22.494,51.276 C 22.495,51.069 22.327,50.901 22.12,50.901 C 21.913,50.9 21.745,51.068 21.745,51.275 Z" marker-start="none" marker-end="none"/>
     <path d="M 24.746,51.113 L 24.746,56.73 C 24.746,56.936 24.914,57.105 25.121,57.105 C 25.327,57.105 25.496,56.936 25.496,56.73 L 25.496,51.113 C 25.496,50.906 25.327,50.738 25.121,50.738 C 24.914,50.738 24.746,50.906 24.746,51.113 Z" marker-start="none" marker-end="none"/>
     <path d="M 27.745,50.976 L 27.744,56.593 C 27.743,56.8 27.911,56.968 28.118,56.968 C 28.325,56.969 28.493,56.801 28.493,56.594 L 28.494,50.977 C 28.495,50.77 28.327,50.602 28.12,50.602 C 27.913,50.601 27.745,50.769 27.745,50.976 Z" marker-start="none" marker-end="none"/>
     <path d="M 31.496,50.842 L 31.496,56.459 C 31.496,56.665 31.664,56.834 31.871,56.834 C 32.077,56.834 32.246,56.665 32.246,56.459 L 32.246,50.842 C 32.246,50.635 32.077,50.467 31.871,50.467 C 31.664,50.467 31.496,50.635 31.496,50.842 Z" marker-start="none" marker-end="none"/>
     <path d="M 35.245,50.742 L 35.244,56.359 C 35.243,56.566 35.411,56.734 35.618,56.734 C 35.825,56.735 35.993,56.567 35.993,56.36 L 35.994,50.743 C 35.995,50.536 35.827,50.368 35.62,50.368 C 35.413,50.367 35.245,50.535 35.245,50.742 Z" marker-start="none" marker-end="none"/>
     <path d="M 38.996,50.676 L 38.996,56.293 C 38.996,56.499 39.164,56.668 39.371,56.668 C 39.577,56.668 39.746,56.499 39.746,56.293 L 39.746,50.676 C 39.746,50.469 39.577,50.301 39.371,50.301 C 39.164,50.301 38.996,50.469 38.996,50.676 Z" marker-start="none" marker-end="none"/>
     <path d="M 43.495,50.635 L 43.494,56.252 C 43.493,56.459 43.661,56.627 43.868,56.627 C 44.075,56.628 44.243,56.46 44.243,56.253 L 44.244,50.636 C 44.245,50.429 44.077,50.261 43.87,50.261 C 43.663,50.26 43.495,50.428 43.495,50.635 Z" marker-start="none" marker-end="none"/>
     <path d="M 90.75,54.539 L 90.75,60.636 C 90.75,60.842 90.918,61.011 91.125,61.011 C 91.331,61.011 91.5,60.842 91.5,60.636 L 91.5,54.539 C 91.5,54.332 91.331,54.164 91.125,54.164 C 90.918,54.164 90.75,54.332 90.75,54.539 Z" marker-start="none" marker-end="none"/>
     <path d="M 88.494,53.613 L 88.494,59.23 C 88.494,59.436 88.662,59.605 88.869,59.605 C 89.075,59.605 89.244,59.436 89.244,59.23 L 89.244,53.613 C 89.244,53.406 89.075,53.238 88.869,53.238 C 88.662,53.238 88.494,53.406 88.494,53.613 Z" marker-start="none" marker-end="none"/>
     <path d="M 86.244,53.098 L 86.244,58.715 C 86.244,58.921 86.412,59.09 86.619,59.09 C 86.825,59.09 86.994,58.921 86.994,58.715 L 86.994,53.098 C 86.994,52.891 86.825,52.723 86.619,52.723 C 86.412,52.723 86.244,52.891 86.244,53.098 Z" marker-start="none" marker-end="none"/>
     <path d="M 83.994,52.711 L 83.994,58.328 C 83.994,58.534 84.162,58.703 84.369,58.703 C 84.575,58.703 84.744,58.534 84.744,58.328 L 84.744,52.711 C 84.744,52.504 84.575,52.336 84.369,52.336 C 84.162,52.336 83.994,52.504 83.994,52.711 Z" marker-start="none" marker-end="none"/>
     <path d="M 81.744,52.396 L 81.744,58.013 C 81.744,58.219 81.912,58.388 82.119,58.388 C 82.325,58.388 82.494,58.219 82.494,58.013 L 82.494,52.396 C 82.494,52.189 82.325,52.021 82.119,52.021 C 81.912,52.021 81.744,52.189 81.744,52.396 Z" marker-start="none" marker-end="none"/>
     <path d="M 78.744,52.049 L 78.744,57.666 C 78.744,57.872 78.912,58.041 79.119,58.041 C 79.325,58.041 79.494,57.872 79.494,57.666 L 79.494,52.049 C 79.494,51.842 79.325,51.674 79.119,51.674 C 78.912,51.674 78.744,51.842 78.744,52.049 Z" marker-start="none" marker-end="none"/>
     <path d="M 75.744,51.763 L 75.744,57.38 C 75.744,57.586 75.912,57.755 76.119,57.755 C 76.325,57.755 76.494,57.586 76.494,57.38 L 76.494,51.763 C 76.494,51.556 76.325,51.388 76.119,51.388 C 75.912,51.388 75.744,51.556 75.744,51.763 Z" marker-start="none" marker-end="none"/>
     <path d="M 72.744,51.523 L 72.744,57.14 C 72.744,57.346 72.912,57.515 73.119,57.515 C 73.325,57.515 73.494,57.346 73.494,57.14 L 73.494,51.523 C 73.494,51.316 73.325,51.148 73.119,51.148 C 72.912,51.148 72.744,51.316 72.744,51.523 Z" marker-start="none" marker-end="none"/>
     <path d="M 69.744,51.321 L 69.744,56.938 C 69.744,57.144 69.912,57.313 70.119,57.313 C 70.325,57.313 70.494,57.144 70.494,56.938 L 70.494,51.321 C 70.494,51.114 70.325,50.946 70.119,50.946 C 69.912,50.946 69.744,51.114 69.744,51.321 Z" marker-start="none" marker-end="none"/>
     <path d="M 66.744,51.151 L 66.744,56.768 C 66.744,56.974 66.912,57.143 67.119,57.143 C 67.325,57.143 67.494,56.974 67.494,56.768 L 67.494,51.151 C 67.494,50.944 67.325,50.776 67.119,50.776 C 66.912,50.776 66.744,50.944 66.744,51.151 Z" marker-start="none" marker-end="none"/>
     <path d="M 63.744,51.009 L 63.744,56.626 C 63.744,56.832 63.912,57.001 64.119,57.001 C 64.325,57.001 64.494,56.832 64.494,56.626 L 64.494,51.009 C 64.494,50.802 64.325,50.634 64.119,50.634 C 63.912,50.634 63.744,50.802 63.744,51.009 Z" marker-start="none" marker-end="none"/>
     <path d="M 59.994,50.867 L 59.994,56.484 C 59.994,56.69 60.162,56.859 60.369,56.859 C 60.575,56.859 60.744,56.69 60.744,56.484 L 60.744,50.867 C 60.744,50.66 60.575,50.492 60.369,50.492 C 60.162,50.492 59.994,50.66 59.994,50.867 Z" marker-start="none" marker-end="none"/>
     <path d="M 56.244,50.76 L 56.244,56.377 C 56.244,56.583 56.412,56.752 56.619,56.752 C 56.825,56.752 56.994,56.583 56.994,56.377 L 56.994,50.76 C 56.994,50.553 56.825,50.385 56.619,50.385 C 56.412,50.385 56.244,50.553 56.244,50.76 Z" marker-start="none" marker-end="none"/>
     <path d="M 52.494,50.687 L 52.494,56.304 C 52.494,56.51 52.662,56.679 52.869,56.679 C 53.075,56.679 53.244,56.51 53.244,56.304 L 53.244,50.687 C 53.244,50.48 53.075,50.312 52.869,50.312 C 52.662,50.312 52.494,50.48 52.494,50.687 Z" marker-start="none" marker-end="none"/>
     <path d="M 47.994,50.64 L 47.994,56.257 C 47.994,56.463 48.162,56.632 48.369,56.632 C 48.575,56.632 48.744,56.463 48.744,56.257 L 48.744,50.64 C 48.744,50.433 48.575,50.265 48.369,50.265 C 48.162,50.265 47.994,50.433 47.994,50.64 Z" marker-start="none" marker-end="none"/>
    </g>
    <g id="Group_4" stroke="none" fill-rule="evenodd" stroke-width="0.5" fill="#677567" stroke-miterlimit="79.8403193612775">
     <path d="M 1.501,56.435 L 1.501,62.045 C 1.501,62.251 1.669,62.42 1.876,62.42 C 2.082,62.42 2.251,62.251 2.251,62.045 L 2.251,56.435 C 2.251,56.228 2.082,56.06 1.876,56.06 C 1.669,56.06 1.501,56.228 1.501,56.435 Z" marker-start="none" marker-end="none"/>
     <path d="M 3.751,57.021 L 3.75,62.631 C 3.749,62.838 3.917,63.006 4.124,63.006 C 4.331,63.007 4.499,62.839 4.499,62.632 L 4.5,57.022 C 4.501,56.815 4.333,56.647 4.126,56.647 C 3.919,56.646 3.751,56.814 3.751,57.021 Z" marker-start="none" marker-end="none"/>
     <path d="M 6.001,57.442 L 6.001,63.052 C 6.001,63.258 6.169,63.427 6.376,63.427 C 6.582,63.427 6.751,63.258 6.751,63.052 L 6.751,57.442 C 6.751,57.235 6.582,57.067 6.376,57.067 C 6.169,57.067 6.001,57.235 6.001,57.442 Z" marker-start="none" marker-end="none"/>
     <path d="M 8.251,57.778 L 8.251,63.388 C 8.251,63.594 8.419,63.763 8.626,63.763 C 8.832,63.763 9.001,63.594 9.001,63.388 L 9.001,57.778 C 9.001,57.571 8.832,57.403 8.626,57.403 C 8.419,57.403 8.251,57.571 8.251,57.778 Z" marker-start="none" marker-end="none"/>
     <path d="M 11.251,58.143 L 11.251,63.753 C 11.251,63.959 11.419,64.128 11.626,64.128 C 11.832,64.128 12.001,63.959 12.001,63.753 L 12.001,58.143 C 12.001,57.936 11.832,57.768 11.626,57.768 C 11.419,57.768 11.251,57.936 11.251,58.143 Z" marker-start="none" marker-end="none"/>
     <path d="M 14.251,58.443 L 14.251,64.053 C 14.251,64.259 14.419,64.428 14.626,64.428 C 14.832,64.428 15.001,64.259 15.001,64.053 L 15.001,58.443 C 15.001,58.236 14.832,58.068 14.626,58.068 C 14.419,58.068 14.251,58.236 14.251,58.443 Z" marker-start="none" marker-end="none"/>
     <path d="M 17.251,58.692 L 17.25,64.302 C 17.249,64.509 17.417,64.677 17.624,64.677 C 17.831,64.678 17.999,64.51 17.999,64.303 L 18,58.693 C 18.001,58.486 17.833,58.318 17.626,58.318 C 17.419,58.317 17.251,58.485 17.251,58.692 Z" marker-start="none" marker-end="none"/>
     <path d="M 20.252,58.904 L 20.252,64.514 C 20.252,64.72 20.42,64.889 20.627,64.889 C 20.833,64.889 21.002,64.72 21.002,64.514 L 21.002,58.904 C 21.002,58.697 20.833,58.529 20.627,58.529 C 20.42,58.529 20.252,58.697 20.252,58.904 Z" marker-start="none" marker-end="none"/>
     <path d="M 23.252,59.082 L 23.252,64.692 C 23.252,64.898 23.42,65.067 23.627,65.067 C 23.833,65.067 24.002,64.898 24.002,64.692 L 24.002,59.082 C 24.002,58.875 23.833,58.707 23.627,58.707 C 23.42,58.707 23.252,58.875 23.252,59.082 Z" marker-start="none" marker-end="none"/>
     <path d="M 26.252,59.23 L 26.252,64.84 C 26.252,65.046 26.42,65.215 26.627,65.215 C 26.833,65.215 27.002,65.046 27.002,64.84 L 27.002,59.23 C 27.002,59.023 26.833,58.855 26.627,58.855 C 26.42,58.855 26.252,59.023 26.252,59.23 Z" marker-start="none" marker-end="none"/>
     <path d="M 30.002,59.38 L 30.002,64.99 C 30.002,65.196 30.17,65.365 30.377,65.365 C 30.583,65.365 30.752,65.196 30.752,64.99 L 30.752,59.38 C 30.752,59.173 30.583,59.005 30.377,59.005 C 30.17,59.005 30.002,59.173 30.002,59.38 Z" marker-start="none" marker-end="none"/>
     <path d="M 33.751,59.494 L 33.751,65.104 C 33.751,65.31 33.919,65.479 34.126,65.479 C 34.332,65.479 34.501,65.31 34.501,65.104 L 34.501,59.494 C 34.501,59.287 34.332,59.119 34.126,59.119 C 33.919,59.119 33.751,59.287 33.751,59.494 Z" marker-start="none" marker-end="none"/>
     <path d="M 37.501,59.573 L 37.501,65.183 C 37.501,65.389 37.669,65.558 37.876,65.558 C 38.082,65.558 38.251,65.389 38.251,65.183 L 38.251,59.573 C 38.251,59.366 38.082,59.198 37.876,59.198 C 37.669,59.198 37.501,59.366 37.501,59.573 Z" marker-start="none" marker-end="none"/>
     <path d="M 42.001,59.628 L 42.001,65.238 C 42.001,65.444 42.169,65.613 42.376,65.613 C 42.582,65.613 42.751,65.444 42.751,65.238 L 42.751,59.628 C 42.751,59.421 42.582,59.253 42.376,59.253 C 42.169,59.253 42.001,59.421 42.001,59.628 Z" marker-start="none" marker-end="none"/>
     <path d="M 87.74,56.852 L 87.74,62.462 C 87.74,62.668 87.908,62.837 88.115,62.837 C 88.321,62.837 88.49,62.668 88.49,62.462 L 88.49,56.852 C 88.49,56.645 88.321,56.477 88.115,56.477 C 87.908,56.477 87.74,56.645 87.74,56.852 Z" marker-start="none" marker-end="none"/>
     <path d="M 85.49,57.314 L 85.49,62.924 C 85.49,63.13 85.658,63.299 85.865,63.299 C 86.071,63.299 86.24,63.13 86.24,62.924 L 86.24,57.314 C 86.24,57.107 86.071,56.939 85.865,56.939 C 85.658,56.939 85.49,57.107 85.49,57.314 Z" marker-start="none" marker-end="none"/>
     <path d="M 83.24,57.673 L 83.24,63.283 C 83.24,63.489 83.408,63.658 83.615,63.658 C 83.821,63.658 83.99,63.489 83.99,63.283 L 83.99,57.673 C 83.99,57.466 83.821,57.298 83.615,57.298 C 83.408,57.298 83.24,57.466 83.24,57.673 Z" marker-start="none" marker-end="none"/>
     <path d="M 80.99,57.97 L 80.99,63.58 C 80.99,63.786 81.158,63.955 81.365,63.955 C 81.571,63.955 81.74,63.786 81.74,63.58 L 81.74,57.97 C 81.74,57.763 81.571,57.595 81.365,57.595 C 81.158,57.595 80.99,57.763 80.99,57.97 Z" marker-start="none" marker-end="none"/>
     <path d="M 77.99,58.3 L 77.99,63.91 C 77.99,64.116 78.158,64.285 78.365,64.285 C 78.571,64.285 78.74,64.116 78.74,63.91 L 78.74,58.3 C 78.74,58.093 78.571,57.925 78.365,57.925 C 78.158,57.925 77.99,58.093 77.99,58.3 Z" marker-start="none" marker-end="none"/>
     <path d="M 74.99,58.573 L 74.99,64.183 C 74.99,64.389 75.158,64.558 75.365,64.558 C 75.571,64.558 75.74,64.389 75.74,64.183 L 75.74,58.573 C 75.74,58.366 75.571,58.198 75.365,58.198 C 75.158,58.198 74.99,58.366 74.99,58.573 Z" marker-start="none" marker-end="none"/>
     <path d="M 71.99,58.803 L 71.99,64.413 C 71.99,64.619 72.158,64.788 72.365,64.788 C 72.571,64.788 72.74,64.619 72.74,64.413 L 72.74,58.803 C 72.74,58.596 72.571,58.428 72.365,58.428 C 72.158,58.428 71.99,58.596 71.99,58.803 Z" marker-start="none" marker-end="none"/>
     <path d="M 68.99,58.996 L 68.99,64.606 C 68.99,64.812 69.158,64.981 69.365,64.981 C 69.571,64.981 69.74,64.812 69.74,64.606 L 69.74,58.996 C 69.74,58.789 69.571,58.621 69.365,58.621 C 69.158,58.621 68.99,58.789 68.99,58.996 Z" marker-start="none" marker-end="none"/>
     <path d="M 65.99,59.159 L 65.99,64.769 C 65.99,64.975 66.158,65.144 66.365,65.144 C 66.571,65.144 66.74,64.975 66.74,64.769 L 66.74,59.159 C 66.74,58.952 66.571,58.784 66.365,58.784 C 66.158,58.784 65.99,58.952 65.99,59.159 Z" marker-start="none" marker-end="none"/>
     <path d="M 62.99,59.295 L 62.99,64.905 C 62.99,65.111 63.158,65.28 63.365,65.28 C 63.571,65.28 63.74,65.111 63.74,64.905 L 63.74,59.295 C 63.74,59.088 63.571,58.92 63.365,58.92 C 63.158,58.92 62.99,59.088 62.99,59.295 Z" marker-start="none" marker-end="none"/>
     <path d="M 59.24,59.43 L 59.24,65.04 C 59.24,65.246 59.408,65.415 59.615,65.415 C 59.821,65.415 59.99,65.246 59.99,65.04 L 59.99,59.43 C 59.99,59.223 59.821,59.055 59.615,59.055 C 59.408,59.055 59.24,59.223 59.24,59.43 Z" marker-start="none" marker-end="none"/>
     <path d="M 55.49,59.529 L 55.49,65.139 C 55.49,65.345 55.658,65.514 55.865,65.514 C 56.071,65.514 56.24,65.345 56.24,65.139 L 56.24,59.529 C 56.24,59.322 56.071,59.154 55.865,59.154 C 55.658,59.154 55.49,59.322 55.49,59.529 Z" marker-start="none" marker-end="none"/>
     <path d="M 51.74,59.596 L 51.74,65.206 C 51.74,65.412 51.908,65.581 52.115,65.581 C 52.321,65.581 52.49,65.412 52.49,65.206 L 52.49,59.596 C 52.49,59.389 52.321,59.221 52.115,59.221 C 51.908,59.221 51.74,59.389 51.74,59.596 Z" marker-start="none" marker-end="none"/>
     <path d="M 47.24,59.636 L 47.24,65.246 C 47.24,65.452 47.408,65.621 47.615,65.621 C 47.821,65.621 47.99,65.452 47.99,65.246 L 47.99,59.636 C 47.99,59.429 47.821,59.261 47.615,59.261 C 47.408,59.261 47.24,59.429 47.24,59.636 Z" marker-start="none" marker-end="none"/>
    </g>
    <path d="M 13.63,57.606 C 9.517,58.012 6.175,58.496 3.854,59.038 C 1.867,59.501 -0.003,60.112 -0.003,61.146 C -0.003,62.191 1.913,62.801 3.854,63.253 C 6.175,63.795 9.517,64.279 13.63,64.685 C 21.858,65.497 33.215,66 45.747,66 C 58.278,66 69.635,65.497 77.863,64.685 C 81.976,64.279 85.318,63.795 87.639,63.253 C 89.626,62.79 91.497,62.179 91.497,61.146 C 91.497,60.1 89.58,59.49 87.639,59.038 C 85.318,58.496 81.976,58.012 77.863,57.606 C 69.635,56.794 58.278,56.292 45.747,56.292 C 33.215,56.292 21.858,56.794 13.63,57.606 Z M 77.79,58.352 C 81.891,58.757 85.195,59.238 87.469,59.768 C 88.608,60.034 89.469,60.308 90.036,60.581 C 90.66,60.882 90.747,61.094 90.747,61.146 C 90.747,61.199 90.656,61.411 90.036,61.71 C 89.469,61.983 88.608,62.257 87.469,62.523 C 85.195,63.053 81.891,63.534 77.79,63.939 C 69.593,64.748 58.262,65.25 45.747,65.25 C 33.231,65.25 21.9,64.748 13.703,63.939 C 9.602,63.534 6.298,63.053 4.024,62.523 C 2.885,62.257 2.024,61.983 1.457,61.71 C 0.833,61.409 0.747,61.197 0.747,61.146 C 0.747,61.092 0.837,60.88 1.457,60.581 C 2.024,60.308 2.885,60.034 4.024,59.768 C 6.298,59.238 9.602,58.757 13.703,58.352 C 21.9,57.543 33.231,57.042 45.747,57.042 C 58.262,57.042 69.593,57.543 77.79,58.352 Z" stroke="none" stroke-width="0.5" fill="#6f7f6f" fill-rule="evenodd" marker-start="none" marker-end="none" stroke-miterlimit="79.8403193612775"/>
    <mask id="TranspMask_4">
     <rect x="-10%" y="-10%" width="120%" height="120%" fill="#333333" stroke="none"/>
    </mask>
    <g id="Group_5" stroke="none" fill-rule="evenodd" stroke-width="0.5" fill="#6f7f6f" stroke-miterlimit="79.8403193612775" mask="url(#TranspMask_4)">
     <path d="M 80.99,52.33 L 80.99,58.236 C 81.243,58.204 81.493,58.171 81.74,58.137 L 81.74,52.33 C 81.74,52.247 81.712,52.17 81.667,52.108 C 81.49,52.084 81.311,52.061 81.13,52.037 C 81.044,52.106 80.99,52.211 80.99,52.33 Z M 11.251,52.503 L 11.25,58.33 C 11.497,58.36 11.747,58.39 12,58.42 L 12.001,52.503 C 12.001,52.296 11.832,52.128 11.626,52.128 C 11.419,52.128 11.251,52.296 11.251,52.503 Z M 8.25,52.333 L 8.25,57.921 C 8.496,57.959 8.746,57.996 9,58.032 L 9.001,52.223 C 8.746,52.259 8.496,52.296 8.25,52.333 Z M 77.99,52.66 L 77.99,58.586 C 78.242,58.56 78.492,58.532 78.74,58.505 L 78.74,52.66 C 78.74,52.453 78.571,52.285 78.365,52.285 C 78.158,52.285 77.99,52.453 77.99,52.66 Z M 83.24,52.333 L 83.24,57.922 C 83.495,57.883 83.745,57.844 83.99,57.804 L 83.99,52.451 C 83.745,52.411 83.495,52.372 83.24,52.333 Z M 14.251,52.803 L 14.25,58.664 C 14.498,58.689 14.748,58.714 15,58.738 L 15.001,52.803 C 15.001,52.596 14.832,52.428 14.626,52.428 C 14.419,52.428 14.251,52.596 14.251,52.803 Z M 74.99,52.933 L 74.99,58.877 C 75.242,58.855 75.492,58.832 75.74,58.809 L 75.74,52.933 C 75.74,52.726 75.571,52.558 75.365,52.558 C 75.158,52.558 74.99,52.726 74.99,52.933 Z M 6,52.712 L 6,57.543 C 6.244,57.589 6.494,57.634 6.75,57.678 L 6.75,52.577 C 6.494,52.621 6.244,52.666 6,52.712 Z M 17.251,53.052 L 17.25,58.942 C 17.497,58.963 17.746,58.984 17.999,59.005 L 18,53.053 C 18.001,52.846 17.833,52.678 17.626,52.678 C 17.419,52.677 17.251,52.845 17.251,53.052 Z M 85.49,52.711 L 85.49,57.544 C 85.747,57.496 85.997,57.447 86.24,57.398 L 86.24,52.857 C 85.997,52.808 85.747,52.759 85.49,52.711 Z M 71.99,53.163 L 71.99,59.122 C 72.241,59.103 72.491,59.084 72.74,59.065 L 72.74,53.163 C 72.74,52.956 72.571,52.788 72.365,52.788 C 72.158,52.788 71.99,52.956 71.99,53.163 Z M 20.252,53.264 L 20.251,59.177 C 20.5,59.195 20.75,59.212 21.001,59.23 L 21.002,53.264 C 21.002,53.057 20.833,52.889 20.627,52.889 C 20.42,52.889 20.252,53.057 20.252,53.264 Z M 68.99,53.356 L 68.99,59.328 C 69.241,59.312 69.492,59.296 69.74,59.28 L 69.74,53.356 C 69.74,53.149 69.571,52.981 69.365,52.981 C 69.158,52.981 68.99,53.149 68.99,53.356 Z M 3.75,53.191 L 3.749,57.064 C 3.988,57.123 4.238,57.181 4.498,57.239 L 4.499,53.016 C 4.239,53.074 3.989,53.132 3.75,53.191 Z M 23.252,53.442 L 23.251,59.375 C 23.499,59.39 23.75,59.404 24.001,59.419 L 24.002,53.442 C 24.002,53.235 23.833,53.067 23.627,53.067 C 23.42,53.067 23.252,53.235 23.252,53.442 Z M 65.99,53.519 L 65.99,59.502 C 66.24,59.488 66.49,59.475 66.74,59.461 L 66.74,53.519 C 66.74,53.312 66.571,53.144 66.365,53.144 C 66.158,53.144 65.99,53.312 65.99,53.519 Z M 87.74,53.19 L 87.74,57.065 C 88.003,57 88.253,56.935 88.49,56.869 L 88.49,53.386 C 88.253,53.32 88.003,53.255 87.74,53.19 Z M 26.252,53.59 L 26.251,59.54 C 26.5,59.553 26.75,59.565 27.001,59.577 L 27.002,53.59 C 27.002,53.383 26.833,53.215 26.627,53.215 C 26.42,53.215 26.252,53.383 26.252,53.59 Z M 62.99,53.655 L 62.99,59.646 C 63.24,59.635 63.491,59.624 63.74,59.612 L 63.74,53.655 C 63.74,53.448 63.571,53.28 63.365,53.28 C 63.158,53.28 62.99,53.448 62.99,53.655 Z M 30.002,53.74 L 30.001,59.708 C 30.251,59.717 30.501,59.727 30.751,59.736 L 30.752,53.74 C 30.752,53.533 30.583,53.365 30.377,53.365 C 30.17,53.365 30.002,53.533 30.002,53.74 Z M 59.24,53.79 L 59.24,59.789 C 59.491,59.78 59.741,59.772 59.99,59.763 L 59.99,53.79 C 59.99,53.583 59.821,53.415 59.615,53.415 C 59.408,53.415 59.24,53.583 59.24,53.79 Z M 33.751,53.854 L 33.75,59.835 C 34,59.842 34.25,59.849 34.5,59.856 L 34.501,53.854 C 34.501,53.647 34.332,53.479 34.126,53.479 C 33.919,53.479 33.751,53.647 33.751,53.854 Z M 55.49,53.889 L 55.49,59.893 C 55.74,59.888 55.99,59.882 56.24,59.875 L 56.24,53.889 C 56.24,53.682 56.071,53.514 55.865,53.514 C 55.658,53.514 55.49,53.682 55.49,53.889 Z M 37.501,53.933 L 37.5,59.925 C 37.75,59.93 38,59.935 38.25,59.939 L 38.251,53.933 C 38.251,53.726 38.082,53.558 37.876,53.558 C 37.669,53.558 37.501,53.726 37.501,53.933 Z M 51.74,53.956 L 51.74,59.963 C 51.99,59.959 52.241,59.956 52.49,59.952 L 52.49,53.956 C 52.49,53.749 52.321,53.581 52.115,53.581 C 51.908,53.581 51.74,53.749 51.74,53.956 Z M 42.001,53.988 L 42,59.988 C 42.25,59.991 42.499,59.992 42.75,59.994 L 42.751,53.988 C 42.751,53.781 42.582,53.613 42.376,53.613 C 42.169,53.613 42.001,53.781 42.001,53.988 Z M 1.5,53.883 L 1.5,56.372 C 1.726,56.463 1.976,56.554 2.25,56.643 L 2.25,53.612 C 1.977,53.701 1.727,53.792 1.5,53.883 Z M 47.24,53.996 L 47.24,60.002 C 47.491,60.001 47.741,60 47.99,59.999 L 47.99,53.996 C 47.99,53.789 47.821,53.621 47.615,53.621 C 47.408,53.621 47.24,53.789 47.24,53.996 Z" marker-start="none" marker-end="none"/>
     <path d="M 9.262,52.186 C 10.596,52.362 12.056,52.529 13.63,52.685 C 21.858,53.497 33.215,54 45.747,54 C 58.278,54 69.635,53.497 77.863,52.685 C 79.436,52.529 80.896,52.363 82.229,52.186 C 81.269,52.051 80.244,51.921 79.159,51.797 C 78.713,51.845 78.256,51.892 77.79,51.939 C 69.593,52.748 58.262,53.25 45.747,53.25 C 33.231,53.25 21.9,52.748 13.703,51.939 C 13.235,51.892 12.779,51.845 12.332,51.797 C 11.248,51.921 10.223,52.05 9.262,52.186 Z" marker-start="none" marker-end="none"/>
    </g>
    <path d="M -0.006,4.5 L -0.006,5.25 C -0.006,2.766 20.49,0.75 45.744,0.75 C 70.998,0.75 91.494,2.766 91.494,5.25 L 91.494,4.5 C 91.494,2.016 70.998,0 45.744,0 C 20.49,0 -0.006,2.016 -0.006,4.5 Z" stroke="none" stroke-opacity="0.101961" fill="#000000" stroke-linejoin="miter" marker-start="none" marker-end="none" fill-opacity="0.101961"/>
    <mask id="TranspMask_6">
     <rect x="-10%" y="-10%" width="120%" height="120%" fill="url(#RadialGradient_3)" stroke="none"/>
    </mask>
    <g id="Group_6" stroke="none" stroke-linejoin="miter" fill="#ffffff" mask="url(#TranspMask_6)">
     <mask id="TranspMask_5">
      <rect x="-10%" y="-10%" width="120%" height="120%" fill="url(#RadialGradient_2)" stroke="none"/>
     </mask>
     <path d="M 75.747,53.25 C 79.058,53.25 81.746,43.674 81.746,31.875 C 81.746,20.076 79.058,10.5 75.747,10.5 C 72.436,10.5 69.748,20.076 69.748,31.875 C 69.748,43.674 72.436,53.25 75.747,53.25 Z" marker-start="none" marker-end="none" mask="url(#TranspMask_5)"/>
    </g>
    <g id="Group_7" stroke="none" fill-rule="evenodd" stroke-width="0.5" fill="#6f7f6f" stroke-miterlimit="79.8403193612775">
     <path d="M 16.089,54.168 C 13.892,54.355 11.876,54.563 10.073,54.788 C 9.868,54.814 9.722,55.002 9.747,55.207 C 9.773,55.412 9.961,55.558 10.166,55.533 C 11.957,55.308 13.963,55.102 16.152,54.915 C 16.359,54.898 16.512,54.716 16.494,54.51 C 16.477,54.303 16.295,54.15 16.089,54.168 Z" marker-start="none" marker-end="none"/>
     <path d="M 16.089,50.957 C 13.892,51.144 11.876,51.352 10.073,51.577 C 9.868,51.603 9.722,51.791 9.747,51.996 C 9.773,52.201 9.961,52.347 10.166,52.322 C 11.957,52.097 13.963,51.891 16.152,51.704 C 16.359,51.687 16.512,51.505 16.494,51.299 C 16.477,51.092 16.295,50.939 16.089,50.957 Z" marker-start="none" marker-end="none"/>
     <path d="M 16.089,47.746 C 13.892,47.933 11.876,48.141 10.073,48.366 C 9.868,48.392 9.722,48.58 9.747,48.785 C 9.773,48.99 9.961,49.136 10.166,49.111 C 11.957,48.886 13.963,48.68 16.152,48.493 C 16.359,48.476 16.512,48.294 16.494,48.088 C 16.477,47.881 16.295,47.728 16.089,47.746 Z" marker-start="none" marker-end="none"/>
     <path d="M 16.089,44.535 C 13.892,44.722 11.876,44.93 10.073,45.155 C 9.868,45.181 9.722,45.369 9.747,45.574 C 9.773,45.779 9.961,45.925 10.166,45.9 C 11.957,45.675 13.963,45.469 16.152,45.282 C 16.359,45.265 16.512,45.083 16.494,44.877 C 16.477,44.67 16.295,44.517 16.089,44.535 Z" marker-start="none" marker-end="none"/>
     <path d="M 16.089,41.324 C 13.892,41.511 11.876,41.719 10.073,41.944 C 9.868,41.97 9.722,42.158 9.747,42.363 C 9.773,42.568 9.961,42.714 10.166,42.689 C 11.957,42.464 13.963,42.258 16.152,42.071 C 16.359,42.054 16.512,41.872 16.494,41.666 C 16.477,41.459 16.295,41.306 16.089,41.324 Z" marker-start="none" marker-end="none"/>
     <path d="M 16.089,38.113 C 13.892,38.3 11.876,38.508 10.073,38.733 C 9.868,38.759 9.722,38.947 9.747,39.152 C 9.773,39.357 9.961,39.503 10.166,39.478 C 11.957,39.253 13.963,39.047 16.152,38.86 C 16.359,38.843 16.512,38.661 16.494,38.455 C 16.477,38.248 16.295,38.095 16.089,38.113 Z" marker-start="none" marker-end="none"/>
     <path d="M 16.089,34.902 C 13.892,35.089 11.876,35.297 10.073,35.522 C 9.868,35.548 9.722,35.736 9.747,35.941 C 9.773,36.146 9.961,36.292 10.166,36.267 C 11.957,36.042 13.963,35.836 16.152,35.649 C 16.359,35.632 16.512,35.45 16.494,35.244 C 16.477,35.037 16.295,34.884 16.089,34.902 Z" marker-start="none" marker-end="none"/>
     <path d="M 16.089,31.691 C 13.892,31.878 11.876,32.086 10.073,32.311 C 9.868,32.337 9.722,32.525 9.747,32.73 C 9.773,32.935 9.961,33.081 10.166,33.056 C 11.957,32.831 13.963,32.625 16.152,32.438 C 16.359,32.421 16.512,32.239 16.494,32.033 C 16.477,31.826 16.295,31.673 16.089,31.691 Z" marker-start="none" marker-end="none"/>
     <path d="M 16.089,28.48 C 13.892,28.667 11.876,28.875 10.073,29.1 C 9.868,29.126 9.722,29.314 9.747,29.519 C 9.773,29.724 9.961,29.87 10.166,29.845 C 11.957,29.62 13.963,29.414 16.152,29.227 C 16.359,29.21 16.512,29.028 16.494,28.822 C 16.477,28.615 16.295,28.462 16.089,28.48 Z" marker-start="none" marker-end="none"/>
     <path d="M 16.089,25.269 C 13.892,25.456 11.876,25.664 10.073,25.889 C 9.868,25.915 9.722,26.103 9.747,26.308 C 9.773,26.513 9.961,26.659 10.166,26.634 C 11.957,26.409 13.963,26.203 16.152,26.016 C 16.359,25.999 16.512,25.817 16.494,25.611 C 16.477,25.404 16.295,25.251 16.089,25.269 Z" marker-start="none" marker-end="none"/>
     <path d="M 16.089,22.058 C 13.892,22.245 11.876,22.453 10.073,22.678 C 9.868,22.704 9.722,22.892 9.747,23.097 C 9.773,23.302 9.961,23.448 10.166,23.423 C 11.957,23.198 13.963,22.992 16.152,22.805 C 16.359,22.788 16.512,22.606 16.494,22.4 C 16.477,22.193 16.295,22.04 16.089,22.058 Z" marker-start="none" marker-end="none"/>
     <path d="M 16.089,18.847 C 13.892,19.034 11.876,19.242 10.073,19.467 C 9.868,19.493 9.722,19.681 9.747,19.886 C 9.773,20.091 9.961,20.237 10.166,20.212 C 11.957,19.987 13.963,19.781 16.152,19.594 C 16.359,19.577 16.512,19.395 16.494,19.189 C 16.477,18.982 16.295,18.829 16.089,18.847 Z" marker-start="none" marker-end="none"/>
     <path d="M 16.089,15.636 C 13.892,15.823 11.876,16.031 10.073,16.256 C 9.868,16.282 9.722,16.47 9.747,16.675 C 9.773,16.88 9.961,17.026 10.166,17.001 C 11.957,16.776 13.963,16.57 16.152,16.383 C 16.359,16.366 16.512,16.184 16.494,15.978 C 16.477,15.771 16.295,15.618 16.089,15.636 Z" marker-start="none" marker-end="none"/>
     <path d="M 16.089,12.425 C 13.892,12.612 11.876,12.82 10.073,13.045 C 9.868,13.071 9.722,13.259 9.747,13.464 C 9.773,13.669 9.961,13.815 10.166,13.79 C 11.957,13.565 13.963,13.359 16.152,13.172 C 16.359,13.155 16.512,12.973 16.494,12.767 C 16.477,12.56 16.295,12.407 16.089,12.425 Z" marker-start="none" marker-end="none"/>
     <path d="M 16.089,9.214 C 13.892,9.401 11.876,9.609 10.073,9.834 C 9.868,9.86 9.722,10.048 9.747,10.253 C 9.773,10.458 9.961,10.604 10.166,10.579 C 11.957,10.354 13.963,10.148 16.152,9.961 C 16.359,9.944 16.512,9.762 16.494,9.556 C 16.477,9.349 16.295,9.196 16.089,9.214 Z" marker-start="none" marker-end="none"/>
     <path d="M 16.089,6.003 C 13.892,6.19 11.876,6.398 10.073,6.623 C 9.868,6.649 9.722,6.837 9.747,7.042 C 9.773,7.247 9.961,7.393 10.166,7.368 C 11.957,7.143 13.963,6.937 16.152,6.75 C 16.359,6.733 16.512,6.551 16.494,6.345 C 16.477,6.138 16.295,5.985 16.089,6.003 Z" marker-start="none" marker-end="none"/>
    </g>
   </g>
  </g>
 </g>
</svg>
